<?xml version="1.0" encoding="UTF-8" standalone="no"?>
<!DOCTYPE svg PUBLIC "-//W3C//DTD SVG 1.1//EN" "http://www.w3.org/Graphics/SVG/1.1/DTD/svg11.dtd">
<svg xmlns="http://www.w3.org/2000/svg">
<metadata/>
<defs>
<font id="ebisulight" horiz-adv-x="1189">
<font-face units-per-em="2048" ascent="1536" descent="-512"/>
<missing-glyph horiz-adv-x="593"/>
<glyph horiz-adv-x="2048"/>
<glyph horiz-adv-x="2048"/>
<glyph unicode="" horiz-adv-x="593"/>
<glyph unicode=" " horiz-adv-x="593"/>
<glyph unicode="	" horiz-adv-x="593"/>
<glyph unicode=" " horiz-adv-x="593"/>
<glyph unicode="!" horiz-adv-x="339" d="M78 84q0 -39 26.5 -65.5t65.5 -26.5q37 0 64.5 26.5t27.5 65.5q0 37 -27.5 64.5t-64.5 27.5q-39 0 -65.5 -27.5t-26.5 -64.5zM78 270v1266h184v-1266h-184z"/>
<glyph unicode="&quot;" horiz-adv-x="593" d="M82 938v598h143v-598h-143zM369 938v598h143v-598h-143z"/>
<glyph unicode="#" horiz-adv-x="1316" d="M68 461v80h307l53 391h-295v80h309l58 420h78l-54 -420h348l58 420h74l-7 -52q-4 -39 -15 -124t-30 -244h295v-80h-307l-55 -391h295v-80h-308l-59 -461h-84l64 461h-353l-59 -461h-80l59 461h-292zM457 541h348l55 391h-350z"/>
<glyph unicode="$" horiz-adv-x="950" d="M59 1135q0 72 23.5 137t65.5 118.5t99.5 91.5t123.5 56v178h184v-172q90 -16 164 -69.5t119 -128.5q12 -23 12 -46q0 -37 -27.5 -64.5t-64.5 -27.5q-29 0 -50.5 15.5t-33.5 38.5q-27 49 -81 78.5t-114 29.5q-47 0 -88 -18.5t-71.5 -49t-48 -71.5t-17.5 -86 q0 -63 34 -112.5t81 -84.5q27 -20 64.5 -40.5t79.5 -40t83 -39t74 -37.5q109 -61 164 -157.5t55 -219.5q0 -76 -25.5 -144.5t-70.5 -124t-106.5 -94.5t-131.5 -55v-184h-184v180q-63 12 -116.5 37.5t-92.5 61.5t-63.5 79t-32.5 88v10q0 37 27.5 64.5t64.5 27.5 q31 0 54.5 -21.5t35.5 -49.5q27 -59 87 -91t128 -32q51 0 97 19.5t80 53t53.5 80t19.5 97.5q0 70 -36 123t-91 88q-37 25 -78 42t-83 32.5t-81 32t-72 36.5q-106 66 -159.5 154t-53.5 211z"/>
<glyph unicode="%" horiz-adv-x="1781" d="M63 1167q0 -76 29 -143.5t79 -117.5t117.5 -78.5t143.5 -28.5t143.5 28.5t117.5 78.5t79 118t29 143q0 76 -29 143.5t-79 118t-117.5 79t-143.5 28.5t-143.5 -28.5t-117.5 -79t-79 -118t-29 -143.5zM209 1167q0 47 17.5 88t47 71t70.5 47.5t88 17.5t88 -17.5t71 -47.5 t47 -71t17 -88t-17 -88t-47 -70.5t-71 -47t-88 -17.5t-88 17.5t-70.5 47t-47 70.5t-17.5 88zM418 39l823 1513l94 -61l-821 -1505zM979 369q0 -76 28.5 -143.5t79 -118t118 -79t143.5 -28.5t143.5 28.5t117.5 79t78.5 118t28.5 143.5t-28.5 143.5t-78.5 117.5t-118 78.5 t-143 28.5q-76 0 -143.5 -28.5t-118 -78.5t-79 -117.5t-28.5 -143.5zM1124 369q0 47 17.5 88t47.5 70.5t70.5 47t88.5 17.5q47 0 88 -17.5t70.5 -47t47 -70.5t17.5 -88t-17.5 -88t-47 -71t-70.5 -47.5t-88 -17.5t-88 17.5t-71 47.5t-47.5 71t-17.5 88z"/>
<glyph unicode="&amp;" horiz-adv-x="1449" d="M66 416q0 123 66.5 229.5t182.5 185.5l72 50q-49 47 -78.5 77.5t-52.5 55.5q-45 45 -60.5 100t-15.5 111q0 70 24.5 129t69.5 103t108.5 69.5t141.5 25.5q63 0 123 -26.5t105 -70.5t71.5 -103.5t26.5 -126.5q0 -106 -38 -195.5t-140 -175.5l229 -233l158 297l162 -87 l-185 -348l346 -352l-131 -129l-303 311q-51 -104 -104 -168.5t-108.5 -100.5t-112 -48t-113.5 -12q-90 0 -171 32.5t-141.5 91t-96 137.5t-35.5 171zM250 424q0 -53 19.5 -99t54 -82t82 -56.5t102.5 -20.5q41 0 84 27.5t81 65.5t69.5 80t50.5 73l16 34q2 2 2 7l-291 292 q-49 -29 -97 -62.5t-86 -73.5t-62.5 -86t-24.5 -99zM360 1231q0 -18 4.5 -41t21.5 -51.5t53 -65.5t100 -84q4 0 24.5 13.5t44 41t42 71.5t18.5 106q0 61 -45.5 105t-104.5 44q-66 0 -112 -37t-46 -102z"/>
<glyph unicode="'" horiz-adv-x="305" d="M80 942v594h143v-594h-143z"/>
<glyph unicode="(" horiz-adv-x="514" d="M80 317v803q0 322 237 506l117 -119q-57 -55 -91 -106t-52.5 -105.5t-23.5 -116t-5 -137.5v-649q0 -74 5 -135t23.5 -115.5t52.5 -105.5t91 -107l-117 -120q-117 92 -177 220t-60 287z"/>
<glyph unicode=")" horiz-adv-x="505" d="M76 -70q57 55 91 106.5t52.5 106t23.5 115.5t5 135v649q0 76 -5 137.5t-23.5 116t-52.5 105.5t-91 106l117 119q238 -184 237 -506v-803q0 -319 -237 -507z"/>
<glyph unicode="*" horiz-adv-x="890" d="M61 1008v161l281 -36l-229 170l120 118l168 -227l-39 279h164l-39 -279l168 227l121 -123l-227 -165l278 36v-161l-278 39l227 -168l-121 -119l-168 227l39 -278h-164l39 276l-168 -227l-120 121l227 168z"/>
<glyph unicode="+" horiz-adv-x="1114" d="M43 457v127h451v440h127v-440h450v-127h-450v-449h-127v449h-451z"/>
<glyph unicode="," horiz-adv-x="276" d="M47 229l166 13l16 -402h-63z"/>
<glyph unicode="-" horiz-adv-x="808" d="M78 520v135h651v-135h-651z"/>
<glyph unicode="." horiz-adv-x="313" d="M70 80q0 35 26.5 59.5t61.5 24.5q33 0 59.5 -25.5t26.5 -58.5q0 -35 -25.5 -61.5t-60.5 -26.5q-37 0 -62.5 25.5t-25.5 62.5z"/>
<glyph unicode="/" horiz-adv-x="630" d="M41 31l440 1521l109 -32l-443 -1524z"/>
<glyph unicode="0" horiz-adv-x="1228" d="M115 483v568q0 100 40 190t108.5 158.5t158.5 108.5t192 40q88 0 176.5 -34.5t160 -99t116.5 -157t45 -206.5v-568q0 -100 -40 -191t-108.5 -160t-159 -108.5t-190.5 -39.5q-96 0 -186 37.5t-159.5 104.5t-111.5 158t-42 199zM295 487q0 -61 25.5 -118.5t68.5 -101.5 t101.5 -70.5t123.5 -26.5q63 0 121 25.5t101 68.5t67.5 100.5t24.5 122.5v560q0 63 -24.5 120.5t-67.5 100.5t-101 68.5t-121 25.5q-68 0 -126 -26.5t-101 -70.5t-67.5 -101.5t-24.5 -116.5v-560z"/>
<glyph unicode="1" horiz-adv-x="1228" d="M406 1372v164h415v-1536h-186v1346q0 12 -3 19t-20 7h-206z"/>
<glyph unicode="2" horiz-adv-x="1228" d="M145 0v219q25 27 89.5 85t147.5 134t172 163t163 173t122 165t48 138t-22.5 111.5t-61.5 90.5t-91.5 60.5t-109.5 22.5q-94 0 -168 -54.5t-104 -142.5l-174 58q23 70 67.5 129t103 102t129 66.5t146.5 23.5q98 0 183 -37t148.5 -101.5t100.5 -149.5t37 -179 q0 -98 -60.5 -204.5t-152.5 -213t-200.5 -209t-204.5 -188.5l-50 -45q-27 -20 -26 -27q0 -6 41 -6h663v-184h-936z"/>
<glyph unicode="3" horiz-adv-x="1228" d="M137 367l182 30q12 -49 39 -92t65 -74.5t86 -49t101 -17.5q59 0 112.5 23.5t94.5 63.5t65.5 95t24.5 119q0 61 -20.5 119.5t-57 106.5t-88 79t-112.5 35h-13.5t-13.5 2l-8 158q23 16 48.5 33.5t48 44t36.5 64.5t14 93q0 29 -7 59.5t-23.5 55t-43 40t-63.5 15.5 q-35 0 -60.5 -7t-45 -20.5t-38 -33t-38.5 -45.5l-156 94q10 23 26.5 42t33.5 36q29 29 57.5 50t61 36.5t72.5 22.5t93 7q55 0 110.5 -22.5t100.5 -64.5t74 -100t29 -132q0 -70 -17.5 -145.5t-87.5 -169.5q150 -78 210.5 -198t60.5 -255q0 -98 -38 -185t-102.5 -153 t-151.5 -104.5t-188 -38.5q-84 0 -162.5 28.5t-143 79.5t-108.5 122t-59 153z"/>
<glyph unicode="4" horiz-adv-x="1228" d="M106 266v172l705 1098h152v-1073q0 -12 12 -12h145v-185h-147q-10 0 -10 -12v-254h-185v254q0 12 -12 12h-660zM311 457q0 -6 8 -6h445q14 0 14 16v694q0 8 -4 8t-6 -6l-455 -700q-2 -2 -2 -6z"/>
<glyph unicode="5" horiz-adv-x="1228" d="M125 268l162 74q39 -82 118.5 -129t180.5 -47q70 0 131 26.5t106 71.5t71 106.5t26 131.5t-26 130t-71 105t-106.5 72t-130.5 27h-13q-66 0 -118 -7.5t-86 -15.5q-41 -8 -74 -20l-115 133l127 610h699v-180h-533q-14 0 -20.5 -2t-10.5 -15q-16 -82 -27.5 -145.5 t-21.5 -110.5q-10 -53 -18 -94q31 6 65 15q29 6 67 11t79 5q106 0 201.5 -41t165 -111.5t110.5 -165t41 -200.5q0 -109 -41 -203t-110.5 -163.5t-165 -110.5t-201.5 -41q-74 0 -143.5 20.5t-130 57t-108.5 89t-79 117.5z"/>
<glyph unicode="6" horiz-adv-x="1228" d="M88 508q0 137 70 264l495 778l160 -96l-272 -426q32 6 73 6q100 0 195.5 -35.5t168.5 -103.5t117 -165t44 -222q0 -111 -41 -207t-112 -167t-165 -110.5t-203 -39.5q-115 0 -212 39.5t-167.5 110.5t-110.5 167t-40 207zM272 508q0 -74 26 -135.5t72 -107.5t108.5 -71.5 t135.5 -25.5q72 0 134.5 25.5t108.5 71.5t71.5 107.5t25.5 135.5q0 72 -26.5 134.5t-72.5 108.5t-108.5 72.5t-132.5 26.5q-74 0 -136 -25.5t-108 -71.5t-72 -108.5t-26 -136.5z"/>
<glyph unicode="7" horiz-adv-x="1228" d="M188 1358v178h852v-178l-602 -1366l-170 74l563 1277q2 4 3 9q0 6 -11 6h-635z"/>
<glyph unicode="8" horiz-adv-x="1228" d="M133 465q0 100 55 199q23 41 54.5 79.5t72.5 71.5l56 45l-47 49q-45 49 -78 108.5t-33 133.5q0 80 28.5 152.5t88.5 132.5q121 117 284 116q78 0 153 -29.5t130 -86.5q59 -59 89 -132t30 -153q0 -70 -31 -126t-84 -116l-45 -49l53 -45q20 -16 52 -48t61 -77t50.5 -101.5 t21.5 -123.5q0 -98 -35 -184t-107 -156q-68 -68 -155 -104.5t-183 -36.5q-98 0 -184 36.5t-158 102.5q-68 72 -103.5 158t-35.5 184zM313 465q0 -61 23.5 -116.5t64.5 -96.5t96.5 -64.5t116.5 -23.5q59 0 114.5 24.5t98.5 67.5q84 84 84 209q0 59 -21.5 115.5t-62.5 99.5 q-43 41 -98.5 62.5t-114.5 21.5t-114.5 -21.5t-96.5 -62.5q-43 -43 -66.5 -99.5t-23.5 -115.5zM393 1151q0 -43 17.5 -83t46.5 -75q66 -66 157 -65q90 0 156 65q66 70 66 158q0 45 -17.5 85t-48.5 69.5t-71 47t-85 17.5t-85 -17.5t-70 -45.5q-31 -31 -48.5 -71t-17.5 -85z "/>
<glyph unicode="9" horiz-adv-x="1228" d="M88 1020q0 111 41 206t111.5 165.5t165 111.5t202.5 41q115 0 212.5 -41t168 -111.5t110.5 -166t40 -205.5q0 -137 -70 -264l-491 -774l-160 96l268 422q-35 -6 -74 -6q-102 0 -196 35.5t-167 103t-117 165t-44 222.5zM272 1020q0 -72 27 -134.5t73 -108.5t107 -72.5 t133 -26.5q74 0 136.5 25.5t108.5 71.5t71.5 108.5t25.5 136.5t-25.5 135.5t-71.5 107.5t-108.5 71.5t-136.5 25.5q-72 0 -134 -25.5t-108 -71.5t-72 -107.5t-26 -135.5z"/>
<glyph unicode=":" horiz-adv-x="319" d="M72 80q0 35 26.5 59.5t61.5 24.5q33 0 59.5 -25.5t26.5 -58.5q0 -35 -25.5 -61.5t-60.5 -26.5q-37 0 -62.5 25.5t-25.5 62.5zM72 836q0 35 26.5 59.5t61.5 24.5q33 0 59.5 -26t26.5 -58q0 -35 -25.5 -61.5t-60.5 -26.5q-37 0 -62.5 25.5t-25.5 62.5z"/>
<glyph unicode=";" horiz-adv-x="294" d="M49 229l166 13l16 -402h-63zM72 836q0 35 26.5 59.5t61.5 24.5q33 0 59.5 -26t26.5 -58q0 -35 -25.5 -61.5t-60.5 -26.5q-37 0 -62.5 25.5t-25.5 62.5z"/>
<glyph unicode="&lt;" horiz-adv-x="1222" d="M51 453v135l1079 426l39 -101l-41 -17t-106.5 -46t-148 -64.5t-171.5 -72.5q-205 -88 -464 -201l931 -389l-39 -100z"/>
<glyph unicode="=" horiz-adv-x="1095" d="M80 303v135h934v-135h-934zM80 582v135h934v-135h-934z"/>
<glyph unicode="&gt;" horiz-adv-x="1290" d="M86 123l932 389q-260 113 -465 201q-88 37 -172 72.5t-149.5 64.5t-105.5 46l-40 17l39 101l1079 -426v-135l-1079 -430z"/>
<glyph unicode="?" horiz-adv-x="856" d="M63 1354q18 31 52.5 64.5t79.5 61t101 46t120 18.5q74 0 141.5 -22.5t119.5 -68.5t83 -114.5t31 -158.5q0 -84 -29 -147.5t-72 -115t-92 -94.5t-92 -86t-71.5 -90t-28.5 -104q0 -31 8 -65t18 -62q10 -33 27 -64l-162 -65q-23 25 -39 57q-16 29 -27.5 65.5t-11.5 82.5 q0 102 28.5 175.5t71.5 130t92.5 100.5t92.5 86t71.5 89t28.5 109q0 55 -16.5 90t-43 54.5t-60 26.5t-68.5 7q-45 0 -77 -14.5t-56.5 -35t-45 -43t-38.5 -40.5zM313 84q0 -39 27 -65.5t66 -26.5t65.5 26.5t26.5 65.5t-27 65.5t-65 26.5q-39 0 -66 -26.5t-27 -65.5z"/>
<glyph unicode="@" horiz-adv-x="1777" d="M68 719q0 174 68.5 327.5t197.5 270.5q129 115 289 174q84 31 171 47t179 16q135 0 268 -41q133 -39 236 -116q231 -176 231 -463q0 -141 -56.5 -262t-160.5 -213q-61 -47 -132 -73t-138 -26q-47 0 -73 7.5t-48 23.5q-20 16 -38 50t-18 96q-27 -35 -48 -58.5t-37.5 -39 t-32 -24.5t-29.5 -18q-66 -37 -145 -37q-129 0 -198 74t-69 213q0 102 31 192.5t90 157.5q57 66 131 102t154 36t132 -28t93 -116l64 127l104 -12l-127 -504q-8 -31 -8 -59q0 -92 100 -92q55 0 109.5 28.5t99.5 81.5q139 139 139 373q0 117 -45 211t-128 161.5t-200.5 103.5 t-260.5 36q-156 0 -299 -55q-143 -57 -248 -156q-115 -104 -175.5 -239.5t-62.5 -286.5q0 -119 43 -226q43 -102 123 -184q98 -98 240 -154q143 -55 307 -55q346 0 557 141l37 -49q-127 -96 -268 -145q-150 -53 -314 -53q-162 0 -313 47q-154 51 -266 141 q-127 100 -191.5 238.5t-64.5 308.5zM616 647q0 -100 43 -155q43 -59 132 -60q84 0 157 68q35 33 59.5 77t36.5 95l39 149q8 33 9 66q0 41 -12.5 69.5t-26.5 44.5q-52 64 -140 64q-61 0 -115.5 -33t-94 -89t-63.5 -133t-24 -163z"/>
<glyph unicode="A" horiz-adv-x="1263" d="M23 0l538 1536h135l543 -1536h-197l-114 330q-4 14 -19 14h-557q-18 0 -20 -14l-117 -330h-192zM403 539q0 -10 11 -11h432q14 0 14 11q0 2 -1 3t-1 3l-223 651q0 6 -4 6q-2 0 -4 -6l-221 -651q-2 -2 -3 -6z"/>
<glyph unicode="B" horiz-adv-x="1062" d="M82 0v1536h348q98 0 180 -29.5t141.5 -84t92.5 -131.5t33 -173q0 -66 -11.5 -113t-28 -81.5t-38 -60t-41.5 -50.5q111 -57 167 -159.5t56 -227.5q0 -98 -33 -177t-92 -134.5t-141 -85t-180 -29.5h-453zM266 201q0 -18 19 -19h254q80 0 130 27t78.5 64.5t39 79.5t10.5 75 t-10.5 76t-39 82t-79 66.5t-129.5 27.5h-260q-12 -4 -13 -12v-467zM266 879q0 -14 13 -15h155q80 0 130 27t79 64.5t39 80.5t10 76t-10 75t-39 79t-79 62.5t-130 25.5h-149q-18 0 -19 -19v-456z"/>
<glyph unicode="C" horiz-adv-x="1423" d="M74 766q0 162 62.5 304t169 249.5t249.5 170t305 62.5q111 0 196 -21.5t146.5 -50t98 -56t49.5 -38.5l-111 -151q-80 66 -178 99.5t-205 33.5q-127 0 -236.5 -48t-189.5 -130t-126 -191.5t-46 -232.5q0 -115 50 -222.5t134 -191.5t192.5 -134t225.5 -50q104 0 201.5 34 t177.5 99l109 -154q-12 -10 -48 -36.5t-97.5 -55t-146.5 -50t-196 -21.5q-162 0 -304 62.5t-249.5 169t-170 248.5t-62.5 302z"/>
<glyph unicode="D" horiz-adv-x="1398" d="M82 0v1536h471q160 0 299 -60.5t242.5 -165t163 -243.5t59.5 -299t-59.5 -300t-163 -243.5t-242.5 -164t-299 -60.5h-471zM266 197q0 -12 13 -13h274q119 0 224.5 47.5t184 127t125 185t46.5 224.5t-46.5 225.5t-126 186.5t-186 126t-225.5 46h-270q-12 0 -13 -9v-1146z "/>
<glyph unicode="E" horiz-adv-x="921" d="M84 0v1536h754v-184h-557q-12 0 -13 -9v-471q0 -8 13 -8h557v-184h-557q-12 0 -13 -10v-473q0 -12 13 -13h557v-184h-754z"/>
<glyph unicode="F" horiz-adv-x="921" d="M82 0v1536h758v-184h-561q-12 0 -13 -13v-462q0 -12 13 -13h561v-184h-561q-12 0 -13 -12v-668h-184z"/>
<glyph unicode="G" horiz-adv-x="1605" d="M86 768q0 162 61.5 305.5t168 250t249 167.5t305.5 61q147 0 277.5 -50t234.5 -140l-129 -131q-74 66 -173 101.5t-210 35.5q-123 0 -232.5 -47t-191 -129t-129 -190.5t-47.5 -233.5q0 -123 47.5 -232.5t129 -191.5t191.5 -129t232 -47q98 0 175 30.5t132.5 85t89 128 t46.5 157.5h-539v185h744v-119q-10 -141 -57.5 -261t-129.5 -207t-197.5 -135t-263.5 -48q-164 0 -306 61t-248.5 167.5t-168 249t-61.5 306.5z"/>
<glyph unicode="H" horiz-adv-x="1171" d="M80 0v1536h184v-664q0 -12 12 -12h617q12 0 12 12v664h185v-1536h-185v664q0 12 -12 12h-617q-10 0 -11 -5t-1 -7v-664h-184z"/>
<glyph unicode="I" horiz-adv-x="346" d="M80 0v1534h184v-1534h-184z"/>
<glyph unicode="J" horiz-adv-x="827" d="M47 223l170 72q23 -53 71 -90t111 -37q39 0 75 15.5t62.5 41t42 61.5t15.5 76v1178h184v-1178q0 -78 -29.5 -147.5t-81 -120.5t-121 -80.5t-147.5 -29.5q-121 0 -214 67.5t-138 171.5z"/>
<glyph unicode="K" horiz-adv-x="966" d="M61 0v1536h185v-676q0 -4 4 -4l4 6t19.5 27.5t43 65.5t76.5 120t121 188.5t174 272.5h211q-119 -186 -202 -314t-137 -212t-86 -132.5t-47 -72t-19.5 -30.5t-4.5 -11l500 -764h-221l-428 670q-4 4 -6 4l-1 -22q-1 -23 -1 -94v-204v-354h-185z"/>
<glyph unicode="L" horiz-adv-x="919" d="M80 0v1536h184v-1339q0 -12 12 -13h562v-184h-758z"/>
<glyph unicode="M" horiz-adv-x="1519" d="M80 0v1534h266l410 -1200q2 -6 4 -6q4 0 4 6l407 1200h267v-1532h-185v1241l-18 -52t-48 -139t-67 -198t-76.5 -227.5t-77.5 -228t-68 -199.5t-48.5 -142.5t-18.5 -56.5h-141l-426 1249v-1249h-184z"/>
<glyph unicode="N" horiz-adv-x="1327" d="M80 0v1534h227l746 -1245q2 -6 6 -6q2 0 2 6v1247h184v-1536h-229l-742 1239q-4 6 -6 6q-4 0 -4 -8v-1237h-184z"/>
<glyph unicode="O" horiz-adv-x="1705" d="M68 768q0 162 61 305.5t167.5 250t249 167.5t306.5 61q162 0 305 -61t249.5 -167.5t168 -250t61.5 -305.5q0 -164 -61.5 -306.5t-168 -249t-249.5 -167.5t-305 -61q-164 0 -306.5 61t-249 167.5t-167.5 249t-61 306.5zM252 768q0 -123 47 -232.5t129 -191.5t191.5 -129 t232.5 -47q125 0 233.5 47t190.5 129t129 191.5t47 232.5q0 125 -47 233.5t-129 190.5t-190.5 129t-233.5 47q-123 0 -232.5 -47t-191.5 -129t-129 -190.5t-47 -233.5z"/>
<glyph unicode="P" horiz-adv-x="948" d="M80 0v1536h342q98 0 180 -36t141.5 -97.5t92 -145t32.5 -182.5q0 -98 -32.5 -183t-92 -149.5t-141.5 -101.5t-180 -37h-143q-12 0 -13 -12v-592h-186zM266 801q0 -14 19 -15h141q80 0 130 34t79 80t39 95t10 82t-10 80t-39 91t-79 75t-130 31h-141q-18 0 -19 -19v-534z "/>
<glyph unicode="Q" horiz-adv-x="1705" d="M68 768q0 162 61 305.5t167.5 250t249 167.5t306.5 61q162 0 305 -61t249.5 -167.5t168 -250t61.5 -305.5q0 -156 -56 -293t-155 -244l72 -73q27 -27 27 -62q0 -38 -31 -65q-29 -29 -66 -29q-35 0 -61 27l-82 84q-94 -61 -202.5 -95t-229.5 -34q-164 0 -306.5 61 t-249 167.5t-167.5 249t-61 306.5zM252 768q0 -123 47 -232.5t129 -191.5t191.5 -129t232.5 -47q82 0 158.5 20.5t142.5 59.5l-154 160q-25 25 -24 61q0 37 29 66q32 28 65 28h2q35 0 59 -26l166 -172q72 80 114 183t42 220q0 125 -47 233.5t-129 190.5t-190.5 129 t-233.5 47q-123 0 -232.5 -47t-191.5 -129t-129 -190.5t-47 -233.5z"/>
<glyph unicode="R" horiz-adv-x="952" d="M57 0v1536h342q98 0 180.5 -36t141.5 -97.5t92 -145t33 -182.5q0 -139 -63.5 -250.5t-174.5 -171.5q-6 -4 -6 -14l291 -639h-203l-268 592q-6 12 -23 12h-143q-12 0 -12 -12v-592h-187zM244 801q0 -14 18 -15h141q80 0 130.5 34t79 80t39 95t10.5 82t-10.5 80t-39 91 t-79 75t-130.5 31h-141q-18 0 -18 -19v-534z"/>
<glyph unicode="S" horiz-adv-x="966" d="M68 1135q0 86 33.5 161.5t91 133t133 90t159.5 32.5q115 0 211.5 -57t149.5 -149l-164 -84q-27 49 -81 78.5t-114 29.5q-47 0 -89 -18.5t-74.5 -50t-52 -72.5t-19.5 -84q0 -84 30.5 -127t77.5 -70q27 -14 68 -33.5t86 -41t88 -43t76 -39.5q113 -66 166 -160t53 -217 q0 -88 -35 -167t-93 -137.5t-137 -92t-165 -33.5q-82 0 -149.5 23.5t-119 62.5t-84 88t-40.5 100l178 31q29 -59 85 -91t134 -32q47 0 92 19.5t80 53t56.5 80t21.5 97.5q0 70 -36 123t-91 88q-74 47 -160 84t-153 73q-115 63 -164 145.5t-49 205.5z"/>
<glyph unicode="T" horiz-adv-x="1083" d="M53 1352v184h977v-184h-383q-16 0 -16 -17v-1335h-185v1335q0 16 -14 17h-379z"/>
<glyph unicode="U" horiz-adv-x="1067" d="M76 438v1098h184v-1079q0 -59 20.5 -111.5t56.5 -92.5t86 -62.5t109 -22.5q57 0 107.5 21.5t87.5 59.5t57.5 89t20.5 108v1090h184v-1104q0 -92 -37 -174t-99 -143.5t-145 -96t-176 -34.5q-94 0 -177 35.5t-145.5 97t-98 144.5t-35.5 177z"/>
<glyph unicode="V" horiz-adv-x="1259" d="M18 1536h197l410 -1202q2 -6 4 -6q4 0 4 6l414 1202h194l-545 -1536h-135z"/>
<glyph unicode="W" horiz-adv-x="1787" d="M37 1536h194l291 -1182q0 -6 4 -6l4 6l10 50q11 49 29.5 127.5t43 181t50 211t50 213t46 189.5t35 142.5t17.5 67.5h154q0 -4 13 -56.5t34.5 -136t48 -189t53.5 -216.5q63 -258 143 -584q0 -6 5 -6l4 6l288 1182h195l-414 -1536h-149l-293 1124q-4 4 -6 4l-3 -10 t-13.5 -46t-29 -108.5t-50 -198.5t-78.5 -312.5t-115 -452.5h-143z"/>
<glyph unicode="X" horiz-adv-x="1230" d="M25 0l471 754q2 4 2 10q0 10 -4 14l-469 758h223l358 -575q2 -6 10 -7q4 0 9 7l356 575h223l-471 -758q-4 -8 -4 -12t4 -12l469 -754h-221l-358 573q-4 6 -9 7q-6 0 -8 -7l-358 -573h-223z"/>
<glyph unicode="Y" horiz-adv-x="1071" d="M16 1536h203l309 -711q2 -8 9 -8q6 0 8 8l307 711h201l-424 -981v-555h-185v555z"/>
<glyph unicode="Z" horiz-adv-x="1107" d="M68 0v145l716 1194q2 2 2 7q0 6 -8 6h-710v184h970v-131l-725 -1208q-2 -2 -2 -7q0 -6 8 -6h721v-184h-972z"/>
<glyph unicode="[" horiz-adv-x="557" d="M76 -301v1960h403v-131h-227v-1698h227v-131h-403z"/>
<glyph unicode="\" horiz-adv-x="630" d="M41 1520l109 32l440 -1521l-107 -35z"/>
<glyph unicode="]" horiz-adv-x="499" d="M47 -170h227v1698h-227v131h404v-1960h-404v131z"/>
<glyph unicode="^" horiz-adv-x="1032" d="M66 831l385 705h131l385 -707l-166 -57l-285 543l-285 -541z"/>
<glyph unicode="_" horiz-adv-x="1296" d="M0 -131h1296v-115h-1296v115z"/>
<glyph unicode="`" horiz-adv-x="548" d="M55 1298l45 105l394 -162l-45 -106z"/>
<glyph unicode="a" d="M66 514q0 109 40.5 205t113.5 167.5t169 112.5t207 41q102 0 191.5 -35.5t160.5 -99.5v121h174v-1026l-174 76v43q-72 -63 -161 -99t-191 -36q-111 0 -207 41t-169 113.5t-113.5 168.5t-40.5 207zM242 514q0 -74 27.5 -139.5t74.5 -112.5t112.5 -74.5t139.5 -27.5 t138.5 27.5t111.5 74.5t74.5 112.5t27.5 139.5t-27.5 138.5t-74.5 111.5t-111.5 74.5t-138.5 27.5t-139.5 -27.5t-112.5 -74.5t-74.5 -111.5t-27.5 -138.5z"/>
<glyph unicode="b" horiz-adv-x="1214" d="M78 -2v1438h174v-531q70 63 160 99t192 36q111 0 207 -41t169 -112.5t114 -167.5t41 -205q0 -111 -41 -207t-114 -168.5t-169 -113.5t-207 -41q-102 0 -192 35.5t-160 99.5v-43zM252 514q0 -74 27.5 -139.5t74.5 -112.5t111.5 -74.5t138.5 -27.5t139.5 27.5t112.5 74.5 t74.5 112.5t27.5 139.5t-27.5 138.5t-74.5 111.5t-112.5 74.5t-139.5 27.5t-138.5 -27.5t-111.5 -74.5t-74.5 -111.5t-27.5 -138.5z"/>
<glyph unicode="c" horiz-adv-x="1138" d="M66 514q0 109 40.5 205t113.5 167.5t169 112.5t207 41q129 0 237.5 -61t186.5 -154l-137 -104q-45 68 -121 106.5t-166 38.5q-74 0 -139.5 -27.5t-112.5 -74.5t-74.5 -111.5t-27.5 -138.5t27.5 -139.5t74.5 -112.5t112.5 -74.5t139.5 -27.5q98 0 182 46t121 126l166 -58 q-31 -68 -78 -121t-108.5 -90.5t-133 -58t-149.5 -20.5q-111 0 -207 41t-169 113.5t-113.5 168.5t-40.5 207z"/>
<glyph unicode="d" horiz-adv-x="1157" d="M49 514q0 109 41 205t113.5 167.5t169 112.5t207.5 41q102 0 192 -35.5t160 -99.5v531h174v-1436l-174 76v43q-70 -63 -160 -99t-192 -36q-111 0 -207.5 41t-169 113.5t-113.5 168.5t-41 207zM225 514q0 -74 28 -139.5t75 -112.5t112.5 -74.5t139.5 -27.5t138 27.5 t111.5 74.5t75 112.5t27.5 139.5t-27.5 138.5t-75 111.5t-112 74.5t-137.5 27.5q-74 0 -139.5 -27.5t-112.5 -74.5t-75 -111.5t-28 -138.5z"/>
<glyph unicode="e" horiz-adv-x="1110" d="M66 514q0 109 39.5 205t110.5 167.5t166 112.5t206 41q106 0 192 -39.5t146.5 -108.5t93.5 -159t33 -190v-94h-807q12 -63 42.5 -116.5t77 -91.5t105.5 -59.5t125 -21.5q70 0 132.5 22.5t107.5 69.5l127 -119q-72 -72 -166.5 -110.5t-200.5 -38.5q-111 0 -207 41 t-169 113.5t-113.5 168.5t-40.5 207zM250 592h620q0 47 -20.5 96t-57 89t-89 64.5t-115.5 24.5q-66 0 -121 -20.5t-99 -57t-75 -87t-43 -109.5z"/>
<glyph unicode="f" horiz-adv-x="874" d="M49 850v158h240v176q0 115 60.5 182.5t164.5 67.5h246v-146h-201q-96 0 -96 -127v-153h362v-158h-362v-850h-174v850h-240z"/>
<glyph unicode="g" horiz-adv-x="1187" d="M66 512q0 111 40.5 207t113.5 169t169 113.5t207 40.5q102 0 192.5 -35.5t159.5 -99.5v43l174 76v-991q0 -111 -42 -209t-114.5 -170t-171 -114t-208.5 -42q-125 0 -229.5 49.5t-178.5 135.5l137 102q49 -59 118 -88t153 -29q76 0 141.5 29t114.5 78t77.5 114.5 t28.5 141.5v88q-70 -63 -160 -99t-192 -36q-111 0 -207 41t-169 112.5t-113.5 167.5t-40.5 205zM260 512q0 -74 27.5 -138.5t75 -111.5t113 -74.5t138.5 -27.5q74 0 138.5 27.5t111.5 74.5t75 111.5t28 138.5t-28 139.5t-75 112.5t-111.5 74.5t-138.5 27.5t-139 -27.5 t-112.5 -74.5t-75 -112.5t-27.5 -139.5z"/>
<glyph unicode="h" horiz-adv-x="1050" d="M78 0v1434h174v-480q115 86 270 86q88 0 170 -32.5t143.5 -90t98.5 -133t37 -163.5v-621h-174v596q0 55 -22.5 104.5t-59.5 86t-86 59t-105 22.5q-53 0 -102 -12t-87 -42t-60.5 -81t-22.5 -127v-606h-174z"/>
<glyph unicode="i" horiz-adv-x="321" d="M74 0v1024h174v-1024h-174zM74 1249q0 35 26.5 59.5t61.5 24.5q33 0 59.5 -25.5t26.5 -58.5q0 -35 -25.5 -61.5t-60.5 -26.5q-37 0 -62.5 25.5t-25.5 62.5z"/>
<glyph unicode="j" horiz-adv-x="401" d="M70 -322q10 4 28.5 10.5t37 17.5t32.5 31.5t14 55.5v1231h174l-2 -1319q0 -49 -27.5 -87t-69.5 -63.5t-92 -39t-95 -13.5v176zM182 1249q0 35 27 59.5t61 24.5q33 0 59.5 -25.5t26.5 -58.5q0 -35 -25.5 -61.5t-60.5 -26.5q-37 0 -62.5 25.5t-25.5 62.5z"/>
<glyph unicode="k" horiz-adv-x="782" d="M80 0v1436h174v-834q0 -6 4 -6q2 0 8 10l299 418h217l-356 -492l346 -532h-209l-297 461q-4 8 -8 8t-4 -6v-463h-174z"/>
<glyph unicode="l" horiz-adv-x="331" d="M78 0v1432h174v-1432h-174z"/>
<glyph unicode="m" horiz-adv-x="1769" d="M78 0v1024l174 -72q113 88 270 88q109 0 203 -46t158 -126q61 80 155.5 126t202.5 46q88 0 170 -32.5t143.5 -90t98.5 -133t37 -163.5v-621h-174v596q0 55 -23 104.5t-59.5 86t-86 59t-104.5 22.5q-53 0 -102 -19.5t-88 -54t-62.5 -80.5t-23.5 -98v-616h-170v596 q0 55 -22.5 104.5t-59.5 86t-86 59t-105 22.5q-53 0 -102 -11t-87 -41t-60.5 -80t-22.5 -126v-610h-174z"/>
<glyph unicode="n" horiz-adv-x="1050" d="M78 0v1024l174 -72q113 88 270 88q88 0 170 -32.5t143.5 -90t98.5 -133t37 -163.5v-621h-174v596q0 55 -22.5 104.5t-59.5 86t-86 59t-105 22.5q-53 0 -102 -12t-87 -42t-60.5 -81t-22.5 -127v-606h-174z"/>
<glyph unicode="o" d="M66 514q0 109 40.5 205t113.5 167.5t169 112.5t207 41q109 0 205 -41t167.5 -112.5t112.5 -167.5t41 -205q0 -111 -41 -207t-112.5 -168.5t-167.5 -113.5t-205 -41q-111 0 -207 41t-169 113.5t-113.5 168.5t-40.5 207zM242 514q0 -74 27.5 -139.5t74.5 -112.5 t112.5 -74.5t139.5 -27.5t138.5 27.5t111.5 74.5t74.5 112.5t27.5 139.5t-27.5 138.5t-74.5 111.5t-111.5 74.5t-138.5 27.5t-139.5 -27.5t-112.5 -74.5t-74.5 -111.5t-27.5 -138.5z"/>
<glyph unicode="p" horiz-adv-x="1214" d="M78 -420v1446l174 -76v-43q70 63 160 99t192 36q111 0 207 -40.5t169 -113.5t114 -169t41 -207q0 -109 -41 -205t-114 -167.5t-169 -112.5t-207 -41q-102 0 -192 35.5t-160 99.5v-541h-174zM252 512q0 -74 27.5 -138.5t74.5 -111.5t111.5 -74.5t138.5 -27.5t139.5 27.5 t112.5 74.5t74.5 111.5t27.5 138.5t-27.5 139.5t-74.5 112.5t-112.5 74.5t-139.5 27.5t-138.5 -27.5t-111.5 -74.5t-74.5 -112.5t-27.5 -139.5z"/>
<glyph unicode="q" horiz-adv-x="1157" d="M47 512q0 111 41 207t113.5 169t169 113.5t207.5 40.5q102 0 192 -35.5t160 -99.5v43l174 76v-1446h-174v541q-70 -63 -160 -99t-192 -36q-111 0 -207.5 41t-169 112.5t-113.5 167.5t-41 205zM223 512q0 -74 28 -138.5t75 -111.5t112.5 -74.5t139.5 -27.5t138 27.5 t111 74.5t75 111.5t28 138.5t-28 139.5t-75 112.5t-111.5 74.5t-137.5 27.5q-74 0 -139.5 -27.5t-112.5 -74.5t-75 -112.5t-28 -139.5z"/>
<glyph unicode="r" horiz-adv-x="692" d="M78 0v1024l174 -72q27 20 54.5 37t67.5 28t98 17t146 6v-176q-80 0 -147.5 -11t-116.5 -41t-75.5 -80t-26.5 -126v-606h-174z"/>
<glyph unicode="s" horiz-adv-x="700" d="M72 139l139 97q10 -12 21.5 -25.5t24.5 -25t33.5 -19.5t49.5 -8q47 0 83 33.5t36 80.5q0 106 -215 232q-74 43 -123 97t-49 149q0 57 23.5 110t63.5 93t92 63.5t111 23.5q35 0 72 -10t70 -27.5t59.5 -41t42.5 -50.5l-133 -116q-23 23 -47.5 47t-71.5 24 q-49 0 -78.5 -28.5t-29.5 -75.5q0 -35 28.5 -62.5t71.5 -55.5t93 -59.5t93 -74.5t72 -100.5t29 -139.5q0 -63 -23.5 -115.5t-63.5 -90t-94.5 -59t-117.5 -21.5q-41 0 -82 11t-78 31.5t-63.5 49t-38.5 63.5z"/>
<glyph unicode="t" horiz-adv-x="856" d="M43 850v158h297v315h174v-315h295v-158h-295v-850h-174v850h-297z"/>
<glyph unicode="u" horiz-adv-x="1040" d="M74 408v614h174v-590q0 -55 22.5 -104t59.5 -86t86 -59.5t104 -22.5q53 0 102.5 12t87.5 42t60.5 80t22.5 128v600h174v-1022l-174 76q-55 -43 -124 -67.5t-147 -24.5q-90 0 -171 33.5t-142.5 91t-98 134t-36.5 165.5z"/>
<glyph unicode="v" horiz-adv-x="927" d="M29 1024h188l246 -748l248 746l188 2l-364 -1024h-146z"/>
<glyph unicode="w" horiz-adv-x="1515" d="M33 1024h186l236 -748l235 748h137l232 -748l233 748h187l-349 -1024h-149l-225 700l-228 -700h-147z"/>
<glyph unicode="x" horiz-adv-x="874" d="M4 1026h211l221 -354l223 352h207l-325 -514l323 -510h-207l-221 346l-219 -346h-207l324 510z"/>
<glyph unicode="y" horiz-adv-x="897" d="M4 1024h186l259 -762l264 766h182l-512 -1450h-180l155 430z"/>
<glyph unicode="z" horiz-adv-x="870" d="M82 0v115l485 747h-485v162h696v-133l-473 -729h488v-162h-711z"/>
<glyph unicode="{" horiz-adv-x="821" d="M143 598v195q106 10 153.5 75.5t47.5 200.5v260q0 127 24.5 202t96.5 120q45 27 91 36t132 9v-164q-98 -10 -138 -65.5t-40 -172.5v-262q0 -72 -8 -125t-32 -93t-66 -67.5t-109 -46.5q-8 0 -8 -4t8 -4q68 -18 109.5 -46t65.5 -67.5t32 -94t8 -124.5v-262q0 -117 40 -172 t138 -65l-2 -164q-43 0 -73.5 2t-56.5 7t-47.5 14.5t-43.5 21.5q-72 45 -96.5 120t-24.5 201v261q0 135 -47 199.5t-154 74.5z"/>
<glyph unicode="|" horiz-adv-x="315" d="M78 -16v1593h158v-1593h-158z"/>
<glyph unicode="}" horiz-adv-x="856" d="M143 -139q98 10 138.5 65.5t40.5 171.5v262q0 70 8 124.5t31.5 94t65.5 67.5t110 46q8 0 8 4t-8 4q-68 18 -110 46t-65.5 68t-31.5 93.5t-8 124.5v262q0 117 -40 172.5t-139 65.5v164q86 0 132.5 -9.5t91.5 -35.5q72 -45 96 -120t24 -202v-260q0 -135 47.5 -200.5 t153.5 -75.5v-195q-106 -10 -153.5 -74.5t-47.5 -199.5v-261q0 -127 -24.5 -201.5t-95.5 -119.5q-23 -12 -44.5 -21.5t-47 -14.5t-56.5 -7t-74 -2z"/>
<glyph unicode="~" horiz-adv-x="1249" d="M72 457q0 14 16 48t52 68.5t90.5 61.5t131.5 31h27q57 -2 118.5 -27t123 -52.5t120 -52t107.5 -26.5h8q61 0 106.5 21.5t76.5 50.5q37 33 61 73l68 -67q0 -16 -17.5 -51t-54.5 -70t-95.5 -61.5t-140.5 -26.5q-57 0 -120.5 23.5t-126 52t-122 53t-110.5 29.5h-29 q-55 0 -96 -23t-69 -51q-33 -33 -58 -72z"/>
<glyph unicode="¡" horiz-adv-x="339" d="M78 -8v1265h184v-1265h-184zM78 1444q0 39 26.5 65.5t65.5 26.5q37 0 64.5 -26.5t27.5 -65.5q0 -37 -27.5 -64.5t-64.5 -27.5q-39 0 -65.5 27.5t-26.5 64.5z"/>
<glyph unicode="¢" horiz-adv-x="1122" d="M57 514q0 94 32 179t88 153.5t133 116t167 65.5v186h174v-178q111 -16 201 -74.5t160 -136.5l-138 -104q-37 55 -95 91t-128 48v-696q78 14 143.5 57t96.5 111l166 -58q-53 -121 -162 -196.5t-244 -89.5v-166h-174v174q-90 18 -167 65.5t-133 116t-88 154.5t-32 182z M233 514q0 -121 68 -212t176 -126v674q-109 -35 -176.5 -126t-67.5 -210z"/>
<glyph unicode="£" horiz-adv-x="1196" d="M121 735v133h74q-23 90 -33 139.5t-10 79.5q0 98 34.5 182.5t97 148t147.5 99t185 35.5q115 0 203 -35.5t160 -103.5l-143 -119q-20 25 -49 39.5t-59 21.5t-57.5 9t-47.5 2q-59 0 -110.5 -20.5t-89.5 -56.5t-60.5 -83t-22.5 -100q0 -43 6 -85t14.5 -76t15.5 -54.5 t9 -20.5h381v-135h-326l60 -100q37 -61 61.5 -129t24.5 -131q0 -33 -12.5 -66t-28.5 -59q-18 -33 -39 -62h205q121 0 178 56.5t59 171.5l182 -6q0 -127 -37.5 -206t-102 -125t-151.5 -62.5t-186 -16.5h-491v186h67q29 0 58.5 9.5t54.5 32t41 57t16 88.5q0 43 -22.5 105.5 t-50 119.5t-50 97t-24.5 40h-131z"/>
<glyph unicode="¤" horiz-adv-x="1275" d="M74 1174l82 81l196 -198l21 12q74 41 135 63.5t137 22.5q66 0 126 -23.5t126 -62.5l21 -12l198 196l82 -79l-194 -195l12 -21q88 -133 88 -266q0 -61 -20.5 -123.5t-63.5 -134.5l-12 -20l194 -195l-80 -82l-194 197l-23 -17q-59 -45 -128.5 -66.5t-141.5 -21.5 q-115 0 -264 88l-21 13l-18 -17l-176 -176l-80 82l192 195l-14 22q-39 59 -60.5 123t-21.5 135q0 78 27.5 143.5t60.5 118.5l12 21zM319 694q0 -66 26 -124t69 -101t101 -68.5t124 -25.5q63 0 121.5 25.5t101.5 68.5t68.5 101.5t25.5 123.5q0 66 -25.5 124.5t-69.5 102.5 t-101.5 69.5t-120.5 25.5q-66 0 -123 -25.5t-101 -71t-70 -103.5t-26 -122z"/>
<glyph unicode="¥" horiz-adv-x="1251" d="M55 586v135h410l-98 225h-312v135h252l-198 455h198l314 -711q2 -8 8 -8t8 8l307 711h203l-199 -455h244v-135h-303l-96 -225h399v-135h-459l-12 -31v-555h-184v555l-15 31h-467z"/>
<glyph unicode="¦" horiz-adv-x="313" d="M78 -23v650h158v-650h-158zM78 930v649h158v-649h-158z"/>
<glyph unicode="§" horiz-adv-x="1167" d="M66 496q0 49 9 88t29.5 73.5t53 67.5t78.5 72l53 45q-86 59 -108.5 117.5t-22.5 117.5q0 80 31.5 143.5t89 108.5t133 69.5t166.5 24.5q53 0 111.5 -8t112.5 -23.5t101 -38t82 -50.5l-127 -183q-23 14 -47.5 32.5t-54 35t-66.5 27t-84 10.5q-45 0 -86 -10.5t-72.5 -32 t-50 -55t-18.5 -78.5t27.5 -77t80 -60.5t126 -61.5t165.5 -78q152 -63 237 -145t85 -195q0 -55 -10.5 -100t-39 -87t-79.5 -83t-131 -86q72 -53 97.5 -107.5t25.5 -138.5q0 -74 -31 -135.5t-84 -105.5t-125 -69.5t-156 -25.5q-63 0 -129.5 15.5t-127 41t-109.5 59.5t-78 71 l125 147q20 -16 44.5 -37.5t58.5 -42t77 -34t100 -13.5q41 0 81 8t73 25.5t52.5 44t19.5 63.5q0 51 -24.5 89t-71 69t-110 56.5t-138.5 56.5l-41 16q-57 20 -111.5 53t-97.5 78t-68.5 103.5t-25.5 132.5zM262 510q0 -47 18.5 -83t43 -61.5t49 -41t39.5 -21.5l307 -129l29 16 q25 14 50 33t45.5 45.5t34 60t13.5 77.5q0 27 -8.5 55t-32 58t-63 58.5t-101.5 53.5l-272 108l-29 -22q-14 -12 -35.5 -30.5t-41 -44.5t-33 -58.5t-13.5 -73.5z"/>
<glyph unicode="¨" horiz-adv-x="645" d="M74 1284q0 35 26.5 59.5t61.5 24.5q33 0 59.5 -25.5t26.5 -58.5q0 -35 -25.5 -61.5t-60.5 -26.5q-37 0 -62.5 25.5t-25.5 62.5zM395 1284q0 35 27 59.5t61 24.5q33 0 59.5 -25.5t26.5 -58.5q0 -35 -25.5 -61.5t-60.5 -26.5q-37 0 -62.5 25.5t-25.5 62.5z"/>
<glyph unicode="©" horiz-adv-x="1617" d="M66 737q0 154 59 289t160.5 236.5t236.5 160t287 58.5q156 0 291 -58.5t235.5 -160t157.5 -236.5t57 -289q0 -152 -57 -287t-157.5 -236t-235.5 -159.5t-291 -58.5q-152 0 -287 58.5t-236.5 159.5t-160.5 236t-59 287zM166 737q0 -133 50 -249.5t137 -203.5t204 -137.5 t252 -50.5q133 0 252 50.5t208 137.5t140 203.5t51 249.5q0 135 -51 252t-140 204t-208 137t-252 50q-135 0 -252 -50t-204 -137t-137 -204t-50 -252zM375 737q0 94 35.5 179t100 148.5t151 101.5t188.5 38q57 0 104 -12t82 -28.5t57.5 -33t32.5 -24.5l-55 -96 q-51 47 -110.5 65.5t-110.5 18.5q-78 0 -145.5 -28t-116.5 -76t-77 -112.5t-28 -140.5q0 -70 29 -134t79 -113.5t116.5 -78t140.5 -28.5q53 0 112.5 19.5t106.5 60.5l68 -90q-6 -8 -29 -24.5t-58.5 -34t-86 -30t-111.5 -12.5q-102 0 -188.5 38t-151 101.5t-100 147.5 t-35.5 178z"/>
<glyph unicode="ª" horiz-adv-x="845" d="M66 1133q0 74 27.5 138t76.5 112.5t114.5 76t139.5 27.5q68 0 129 -24.5t109 -67.5v71h116v-692l-116 62v30q-47 -43 -108.5 -67.5t-129.5 -24.5q-74 0 -139.5 27.5t-114.5 77t-76.5 115t-27.5 139.5zM184 1133q0 -51 18.5 -95.5t50.5 -76t76 -50t95 -18.5q49 0 92 18.5 t76 50t51.5 75.5t18.5 96q0 49 -18.5 92t-51.5 75.5t-76 51t-92 18.5q-51 0 -95 -18.5t-76 -51t-50.5 -75.5t-18.5 -92z"/>
<glyph unicode="«" horiz-adv-x="770" d="M43 553l256 397l113 -73l-209 -326l209 -324l-113 -73q-90 141 -141.5 221t-77 117.5t-31.5 47t-6 13.5zM338 553l256 397l113 -73l-209 -326l209 -324l-113 -73q-90 141 -141.5 221t-77 117.5t-31.5 47t-6 13.5z"/>
<glyph unicode="¬" horiz-adv-x="1157" d="M43 674v135h1071v-649h-135v514h-936z"/>
<glyph unicode="­" horiz-adv-x="808" d="M78 520v135h651v-135h-651z"/>
<glyph unicode="®" horiz-adv-x="1699" d="M66 768q0 160 62 303t168.5 249.5t249 169t302.5 62.5q166 0 308 -62.5t248.5 -169t167 -249.5t60.5 -303t-60.5 -303t-167 -249.5t-248.5 -169t-308 -62.5q-160 0 -302.5 62.5t-249 169t-168.5 249.5t-62 303zM168 768q0 -141 53 -266t145.5 -217t216.5 -145.5 t265 -53.5t268 53.5t221.5 145.5t149.5 217t55 266t-55 266t-149.5 217t-221.5 145.5t-268 53.5t-265 -53.5t-216.5 -145.5t-145.5 -217t-53 -266zM629 313h108v357q0 8 8 8h84q8 0 15 -8l162 -355h114l-172 383q0 8 4 9q66 35 104 100t38 149q0 57 -19.5 106.5t-54.5 86.5 t-84 57.5t-107 20.5h-200v-914zM737 793v315q0 12 11 12h83q47 0 77 -18.5t47.5 -44t23.5 -54t6 -47.5q0 -18 -6 -47.5t-23.5 -56.5t-47 -46.5t-77.5 -19.5h-83q-10 0 -11 7z"/>
<glyph unicode="¯" horiz-adv-x="800" d="M78 1311v135h643v-135h-643z"/>
<glyph unicode="°" horiz-adv-x="792" d="M66 1153q0 68 25.5 128t70.5 105.5t105.5 71t127.5 25.5q68 0 128.5 -25.5t105.5 -71t70.5 -105.5t25.5 -128t-25.5 -128t-70.5 -105.5t-105.5 -71t-128.5 -25.5t-128 25.5t-105 71t-70.5 105.5t-25.5 128zM158 1153q0 -49 18.5 -92t51 -76t75.5 -51.5t92 -18.5t92 18.5 t76 51.5t51.5 76t18.5 92t-18.5 92t-51.5 76t-76 51.5t-92 18.5t-92 -18.5t-75.5 -51.5t-51 -76t-18.5 -92z"/>
<glyph unicode="±" horiz-adv-x="1191" d="M57 61v136h1080v-136h-1080zM57 588v127h473v344h127v-344h480v-127h-480v-334h-127v334h-473z"/>
<glyph unicode="²" horiz-adv-x="770" d="M97 371v132q15 17 54 52t89 81t103.5 98.5t98.5 104.5t74 99.5t29 83.5q0 35 -13.5 67t-37.5 55t-55.5 36.5t-65.5 13.5q-57 0 -102 -33t-63 -86l-105 35q14 42 41 78t62.5 62t78 40t88.5 14q59 0 110 -22.5t89.5 -61.5t61 -90t22.5 -108q0 -59 -36.5 -123.5t-92 -129 t-121 -126.5t-123.5 -114l-31 -27q-16 -12 -15 -16q0 -4 24 -4h401v-111h-565z"/>
<glyph unicode="³" horiz-adv-x="745" d="M84 594l110 18q7 -30 23.5 -56t39 -45t51.5 -29.5t61 -10.5q36 0 68.5 14t57 38.5t39.5 57.5t15 72q0 37 -12.5 72t-34.5 64t-53 48t-68 21h-8t-8 1l-5 96q14 10 29 20.5t29 26.5t22.5 39t8.5 56q0 17 -4.5 35.5t-14.5 33.5t-26 24t-38 9q-21 0 -36.5 -4t-27.5 -12 t-23 -20t-23 -28l-94 57q6 14 16 25.5t20 21.5q17 18 34.5 30.5t37 22t43.5 13.5t56 4q34 0 67.5 -13.5t60.5 -39t44.5 -60.5t17.5 -79q0 -43 -10.5 -88.5t-52.5 -102.5q90 -47 126.5 -119.5t36.5 -153.5q0 -59 -23 -111.5t-61.5 -92.5t-91.5 -63.5t-114 -23.5 q-50 0 -97.5 17.5t-86.5 48t-65.5 73.5t-35.5 93z"/>
<glyph unicode="´" horiz-adv-x="552" d="M55 1241l394 162l45 -105l-394 -163z"/>
<glyph unicode="¶" horiz-adv-x="1175" d="M53 1094q0 111 39 181.5t106.5 111t160 56t198.5 15.5h563v-1894h-184v1716h-219v-1716h-185v1179q-109 2 -196.5 27t-150 70t-97.5 109.5t-35 144.5z"/>
<glyph unicode="·" horiz-adv-x="309" d="M68 778q0 35 26.5 59.5t61.5 24.5q33 0 59.5 -25.5t26.5 -58.5q0 -35 -25.5 -61.5t-60.5 -26.5q-37 0 -62.5 25.5t-25.5 62.5z"/>
<glyph unicode="¸" horiz-adv-x="528" d="M57 -344l58 45q14 -10 37 -18q18 -8 43.5 -13.5t58.5 -5.5t63.5 21.5t30.5 58.5q0 41 -24.5 61.5t-51.5 20.5q-12 0 -34.5 -3t-44.5 -3l-60 30l107 150h88l-80 -104q10 0 22.5 3t44.5 3q66 0 110 -41t44 -115q0 -49 -21.5 -86t-54.5 -60.5t-73.5 -34.5t-77.5 -11 q-39 0 -72 15t-57 36q-29 23 -56 51z"/>
<glyph unicode="¹" horiz-adv-x="313" d="M117 1190v99h249v-921h-112v807q0 7 -2 11t-12 4h-123z"/>
<glyph unicode="º" horiz-adv-x="841" d="M66 1128q0 74 27.5 137.5t75.5 111.5t113.5 76t139.5 28t137.5 -28t111.5 -76t75.5 -111.5t27.5 -137.5t-27.5 -139t-75.5 -113.5t-111.5 -76t-137.5 -27.5t-139.5 27.5t-113.5 76t-75.5 113.5t-27.5 139zM184 1128q0 -49 18.5 -93t50.5 -75.5t76 -50t93 -18.5t92 18.5 t75 50t50 75.5t18 93t-18 92.5t-50 75t-75 50t-92 18.5t-93 -18.5t-76 -50t-50.5 -75t-18.5 -92.5z"/>
<glyph unicode="»" horiz-adv-x="806" d="M43 227l209 324l-209 326l113 73l256 -397q0 -4 -6.5 -13.5t-32 -47t-76.5 -117.5t-141 -221zM338 227l209 324l-209 326l113 73l256 -397q0 -4 -6.5 -13.5t-32 -47t-76.5 -117.5t-141 -221z"/>
<glyph unicode="¼" horiz-adv-x="1513" d="M39 1434v106h268v-999h-121v874q0 8 -2 13.5t-12 5.5h-133zM391 31l440 1521l109 -32l-442 -1524zM754 174v111l456 714h99v-698q0 -8 8 -8h94v-119h-94q-8 0 -8 -8v-166h-119v166q0 8 -8 8h-428zM887 301q0 -8 4 -8h289q10 0 10 10v453q0 4 -4 4l-5 -8q-5 -7 -34 -50 t-89.5 -136t-170.5 -265z"/>
<glyph unicode="½" horiz-adv-x="1572" d="M39 1434v106h268v-999h-121v874q0 8 -2 13.5t-12 5.5h-133zM391 31l440 1521l109 -32l-442 -1524zM879 0v141q16 18 58 56.5t95 87.5t111.5 105t106.5 112.5t79 108t31 89.5q0 78 -54.5 131.5t-129.5 53.5q-61 0 -109.5 -35t-69.5 -92l-112 37q31 92 111.5 150.5 t179.5 58.5q63 0 118.5 -25t96.5 -66t65.5 -96t24.5 -117q0 -63 -40 -132.5t-99.5 -139.5t-130 -135.5t-134.5 -122.5l-30 -29q-18 -16 -19 -18q0 -4 27 -4h432v-119h-608z"/>
<glyph unicode="¾" horiz-adv-x="1716" d="M61 768l119 18q16 -66 67.5 -108.5t123.5 -42.5q39 0 73.5 15.5t61 42t42 62.5t15.5 76q0 39 -13 78t-38 70t-58.5 50.5t-72.5 23.5h-16l-7 102q14 10 32 22.5t32 29t23.5 41t9.5 61.5q0 39 -20.5 74.5t-67.5 35.5t-69 -17.5t-50 -51.5l-103 61q14 27 39 51 q39 37 78 56.5t109 19.5q35 0 70.5 -14.5t65.5 -42t48 -65.5t18 -85t-10 -96t-57 -111q98 -49 137 -126.5t39 -166.5q0 -63 -24.5 -120.5t-66.5 -100.5t-99.5 -67.5t-120.5 -24.5q-55 0 -106.5 18.5t-93.5 52.5t-71.5 80t-38.5 99zM610 31l441 1521l108 -32l-442 -1524z M973 174v111l457 714h98v-698q0 -8 8 -8h94v-119h-94q-8 0 -8 -8v-166h-119v166q0 8 -8 8h-428zM1106 301q0 -8 4 -8h289q10 0 10 10v453q0 4 -4 4l-5 -8q-5 -7 -34 -50t-89 -136t-171 -265z"/>
<glyph unicode="¿" horiz-adv-x="856" d="M63 356q0 84 29 147.5t72 115t92 94.5t92 86t72 90t29 104q0 31 -8.5 64t-18.5 61q-12 33 -27 66l162 65q20 -25 39 -57q14 -29 26.5 -65.5t12.5 -82.5q0 -102 -28.5 -175.5t-71.5 -130t-92.5 -100.5t-92.5 -86t-71.5 -89t-28.5 -109q0 -55 16.5 -90t43 -54.5t60 -26.5 t68.5 -7q45 0 77 14.5t56.5 35t45 43t38.5 40.5l136 -127q-18 -31 -52 -64.5t-79.5 -61t-101.5 -46t-120 -18.5q-74 0 -141.5 22.5t-119.5 68.5t-83 114.5t-31 158.5zM356 1452q0 39 27 65.5t66 26.5t65.5 -26.5t26.5 -65.5t-27 -65.5t-65 -26.5q-39 0 -66 26.5t-27 65.5z "/>
<glyph unicode="À" horiz-adv-x="1263" d="M23 0l538 1536h135l543 -1536h-197l-114 330q-4 14 -19 14h-557q-18 0 -20 -14l-117 -330h-192zM403 539q0 -10 11 -11h432q14 0 14 11q0 2 -1 3t-1 3l-223 651q0 6 -4 6q-2 0 -4 -6l-221 -651q-2 -2 -3 -6zM411 1708l45 105l394 -162l-45 -106z"/>
<glyph unicode="Á" horiz-adv-x="1263" d="M23 0l538 1536h135l543 -1536h-197l-114 330q-4 14 -19 14h-557q-18 0 -20 -14l-117 -330h-192zM403 539q0 -10 11 -11h432q14 0 14 11q0 2 -1 3t-1 3l-223 651q0 6 -4 6q-2 0 -4 -6l-221 -651q-2 -2 -3 -6zM411 1651l394 162l45 -105l-394 -163z"/>
<glyph unicode="Â" horiz-adv-x="1263" d="M23 0l538 1536h135l543 -1536h-197l-114 330q-4 14 -19 14h-557q-18 0 -20 -14l-117 -330h-192zM391 1686l240 100l242 -96l-4 -115q-16 0 -82 27t-156 68q-90 -41 -154.5 -70t-81.5 -29zM403 539q0 -10 11 -11h432q14 0 14 11q0 2 -1 3t-1 3l-223 651q0 6 -4 6 q-2 0 -4 -6l-221 -651q-2 -2 -3 -6z"/>
<glyph unicode="Ã" horiz-adv-x="1263" d="M23 0l538 1536h135l543 -1536h-197l-114 330q-4 14 -19 14h-557q-18 0 -20 -14l-117 -330h-192zM289 1790q0 70 51 105t115 35h14q35 0 67.5 -9.5t65.5 -21.5t64.5 -21.5t64.5 -9.5q49 0 83 9.5t56 21.5q25 14 43 33l60 -74q0 -37 -16.5 -63.5t-41 -43t-53.5 -24.5 t-55 -8q-39 0 -76 9t-72.5 21.5t-67.5 21.5t-63 9h-14q-37 0 -67.5 -10t-53.5 -23q-27 -14 -49 -30zM403 539q0 -10 11 -11h432q14 0 14 11q0 2 -1 3t-1 3l-223 651q0 6 -4 6q-2 0 -4 -6l-221 -651q-2 -2 -3 -6z"/>
<glyph unicode="Ä" horiz-adv-x="1263" d="M23 0l538 1536h135l543 -1536h-197l-114 330q-4 14 -19 14h-557q-18 0 -20 -14l-117 -330h-192zM383 1694q0 35 26.5 59.5t61.5 24.5q33 0 59.5 -25.5t26.5 -58.5q0 -35 -25.5 -61.5t-60.5 -26.5q-37 0 -62.5 25.5t-25.5 62.5zM403 539q0 -10 11 -11h432q14 0 14 11 q0 2 -1 3t-1 3l-223 651q0 6 -4 6q-2 0 -4 -6l-221 -651q-2 -2 -3 -6zM704 1694q0 35 27 59.5t61 24.5q33 0 59.5 -25.5t26.5 -58.5q0 -35 -25.5 -61.5t-60.5 -26.5q-37 0 -62.5 25.5t-25.5 62.5z"/>
<glyph unicode="Å" horiz-adv-x="1263" d="M23 0l538 1536h135l543 -1536h-197l-114 330q-4 14 -19 14h-557q-18 0 -20 -14l-117 -330h-192zM403 539q0 -10 11 -11h432q14 0 14 11q0 2 -1 3t-1 3l-223 651q0 6 -4 6q-2 0 -4 -6l-221 -651q-2 -2 -3 -6zM547 1635q0 37 24.5 61.5t59.5 24.5t60.5 -25.5t25.5 -60.5 t-24.5 -59.5t-61.5 -24.5t-60.5 24.5t-23.5 59.5zM583 1635q1 -47 48 -47q20 0 33.5 12t13.5 35q0 20 -13.5 33.5t-33.5 13.5q-23 0 -35.5 -13.5t-12.5 -33.5z"/>
<glyph unicode="Æ" horiz-adv-x="1572" d="M23 0l593 1536h891v-184h-557q-12 0 -12 -9v-471q0 -8 12 -8h557v-184h-557q-12 0 -12 -10v-473q0 -12 12 -13h557v-184h-753v344h-379q-18 0 -21 -14l-139 -330h-192zM426 539q0 -10 10 -11h318v803l-2 17q0 6 -4 6q-3 0 -5 -6l-315 -803q-2 -2 -2 -6z"/>
<glyph unicode="Ç" horiz-adv-x="1423" d="M74 766q0 162 62.5 304t169 249.5t249.5 170t305 62.5q111 0 196 -21.5t146.5 -50t98 -56t49.5 -38.5l-111 -151q-80 66 -178 99.5t-205 33.5q-127 0 -236.5 -48t-189.5 -130t-126 -191.5t-46 -232.5q0 -115 50 -222.5t134 -191.5t192.5 -134t225.5 -50q104 0 201.5 34 t177.5 99l109 -154q-12 -10 -48 -36.5t-97.5 -55t-146.5 -50t-196 -21.5q-162 0 -304 62.5t-249.5 169t-170 248.5t-62.5 302zM506 -344l58 45q14 -10 37 -18q18 -8 43.5 -13.5t58.5 -5.5t63.5 21.5t30.5 58.5q0 41 -24.5 61.5t-51.5 20.5q-12 0 -34.5 -3t-44.5 -3l-60 30 l107 150h88l-80 -104q10 0 22.5 3t44.5 3q66 0 110 -41t44 -115q0 -49 -21.5 -86t-54.5 -60.5t-73.5 -34.5t-77.5 -11q-39 0 -72 15t-57 36q-29 23 -56 51z"/>
<glyph unicode="È" horiz-adv-x="921" d="M84 0v1536h754v-184h-557q-12 0 -13 -9v-471q0 -8 13 -8h557v-184h-557q-12 0 -13 -10v-473q0 -12 13 -13h557v-184h-754zM241 1708l45 105l394 -162l-45 -106z"/>
<glyph unicode="É" horiz-adv-x="921" d="M84 0v1536h754v-184h-557q-12 0 -13 -9v-471q0 -8 13 -8h557v-184h-557q-12 0 -13 -10v-473q0 -12 13 -13h557v-184h-754zM241 1651l394 162l45 -105l-394 -163z"/>
<glyph unicode="Ê" horiz-adv-x="921" d="M84 0v1536h754v-184h-557q-12 0 -13 -9v-471q0 -8 13 -8h557v-184h-557q-12 0 -13 -10v-473q0 -12 13 -13h557v-184h-754zM219 1686l240 100l242 -96l-4 -115q-16 0 -82 27t-156 68q-90 -41 -154.5 -70t-81.5 -29z"/>
<glyph unicode="Ë" horiz-adv-x="921" d="M84 0v1536h754v-184h-557q-12 0 -13 -9v-471q0 -8 13 -8h557v-184h-557q-12 0 -13 -10v-473q0 -12 13 -13h557v-184h-754zM213 1694q0 35 26.5 59.5t61.5 24.5q33 0 59.5 -25.5t26.5 -58.5q0 -35 -25.5 -61.5t-60.5 -26.5q-37 0 -62.5 25.5t-25.5 62.5zM534 1694 q0 35 27 59.5t61 24.5q33 0 59.5 -25.5t26.5 -58.5q0 -35 -25.5 -61.5t-60.5 -26.5q-37 0 -62.5 25.5t-25.5 62.5z"/>
<glyph unicode="Ì" horiz-adv-x="346" d="M-43 1708l45 105l394 -162l-45 -106zM80 0v1534h184v-1534h-184z"/>
<glyph unicode="Í" horiz-adv-x="346" d="M-43 1651l394 162l45 -105l-394 -163zM80 0v1534h184v-1534h-184z"/>
<glyph unicode="Î" horiz-adv-x="346" d="M-66 1686l240 100l242 -96l-4 -115q-16 0 -82 27t-156 68q-90 -41 -154.5 -70t-81.5 -29zM80 0v1534h184v-1534h-184z"/>
<glyph unicode="Ï" horiz-adv-x="346" d="M-71 1694q0 35 26.5 59.5t61.5 24.5q33 0 59.5 -25.5t26.5 -58.5q0 -35 -25.5 -61.5t-60.5 -26.5q-37 0 -62.5 25.5t-25.5 62.5zM80 0v1534h184v-1534h-184zM250 1694q0 35 27 59.5t61 24.5q33 0 59.5 -25.5t26.5 -58.5q0 -35 -25.5 -61.5t-60.5 -26.5q-37 0 -62.5 25.5 t-25.5 62.5z"/>
<glyph unicode="Ð" horiz-adv-x="1622" d="M61 637v184h265v715h471q160 0 299 -60.5t242.5 -165t163 -243.5t59.5 -299t-59.5 -300t-163 -243.5t-243 -164t-298.5 -60.5h-471v637h-265zM510 197q0 -12 12 -13h275q119 0 224 47.5t184 127t125 185t46 224.5t-46 225.5t-126 186.5t-186.5 126t-224.5 46h-271 q-12 0 -12 -9v-522h262v-184h-262v-440z"/>
<glyph unicode="Ñ" horiz-adv-x="1327" d="M80 0v1534h227l746 -1245q2 -6 6 -6q2 0 2 6v1247h184v-1536h-229l-742 1239q-4 6 -6 6q-4 0 -4 -8v-1237h-184zM322 1790q0 70 51 105t115 35h14q35 0 67.5 -9.5t65.5 -21.5t64.5 -21.5t64.5 -9.5q49 0 83 9.5t56 21.5q25 14 43 33l60 -74q0 -37 -16.5 -63.5t-41 -43 t-53.5 -24.5t-55 -8q-39 0 -76 9t-72.5 21.5t-67.5 21.5t-63 9h-14q-37 0 -67.5 -10t-53.5 -23q-27 -14 -49 -30z"/>
<glyph unicode="Ò" horiz-adv-x="1705" d="M68 768q0 162 61 305.5t167.5 250t249 167.5t306.5 61q162 0 305 -61t249.5 -167.5t168 -250t61.5 -305.5q0 -164 -61.5 -306.5t-168 -249t-249.5 -167.5t-305 -61q-164 0 -306.5 61t-249 167.5t-167.5 249t-61 306.5zM252 768q0 -123 47 -232.5t129 -191.5t191.5 -129 t232.5 -47q125 0 233.5 47t190.5 129t129 191.5t47 232.5q0 125 -47 233.5t-129 190.5t-190.5 129t-233.5 47q-123 0 -232.5 -47t-191.5 -129t-129 -190.5t-47 -233.5zM633 1708l45 105l394 -162l-45 -106z"/>
<glyph unicode="Ó" horiz-adv-x="1705" d="M68 768q0 162 61 305.5t167.5 250t249 167.5t306.5 61q162 0 305 -61t249.5 -167.5t168 -250t61.5 -305.5q0 -164 -61.5 -306.5t-168 -249t-249.5 -167.5t-305 -61q-164 0 -306.5 61t-249 167.5t-167.5 249t-61 306.5zM252 768q0 -123 47 -232.5t129 -191.5t191.5 -129 t232.5 -47q125 0 233.5 47t190.5 129t129 191.5t47 232.5q0 125 -47 233.5t-129 190.5t-190.5 129t-233.5 47q-123 0 -232.5 -47t-191.5 -129t-129 -190.5t-47 -233.5zM633 1651l394 162l45 -105l-394 -163z"/>
<glyph unicode="Ô" horiz-adv-x="1705" d="M68 768q0 162 61 305.5t167.5 250t249 167.5t306.5 61q162 0 305 -61t249.5 -167.5t168 -250t61.5 -305.5q0 -164 -61.5 -306.5t-168 -249t-249.5 -167.5t-305 -61q-164 0 -306.5 61t-249 167.5t-167.5 249t-61 306.5zM252 768q0 -123 47 -232.5t129 -191.5t191.5 -129 t232.5 -47q125 0 233.5 47t190.5 129t129 191.5t47 232.5q0 125 -47 233.5t-129 190.5t-190.5 129t-233.5 47q-123 0 -232.5 -47t-191.5 -129t-129 -190.5t-47 -233.5zM612 1686l240 100l242 -96l-4 -115q-16 0 -82 27t-156 68q-90 -41 -154.5 -70t-81.5 -29z"/>
<glyph unicode="Õ" horiz-adv-x="1705" d="M68 768q0 162 61 305.5t167.5 250t249 167.5t306.5 61q162 0 305 -61t249.5 -167.5t168 -250t61.5 -305.5q0 -164 -61.5 -306.5t-168 -249t-249.5 -167.5t-305 -61q-164 0 -306.5 61t-249 167.5t-167.5 249t-61 306.5zM252 768q0 -123 47 -232.5t129 -191.5t191.5 -129 t232.5 -47q125 0 233.5 47t190.5 129t129 191.5t47 232.5q0 125 -47 233.5t-129 190.5t-190.5 129t-233.5 47q-123 0 -232.5 -47t-191.5 -129t-129 -190.5t-47 -233.5zM510 1790q0 70 51 105t115 35h14q35 0 67.5 -9.5t65.5 -21.5t64.5 -21.5t64.5 -9.5q49 0 83 9.5t56 21.5 q25 14 43 33l60 -74q0 -37 -16.5 -63.5t-41 -43t-53.5 -24.5t-55 -8q-39 0 -76 9t-72.5 21.5t-67.5 21.5t-63 9h-14q-37 0 -67.5 -10t-53.5 -23q-27 -14 -49 -30z"/>
<glyph unicode="Ö" horiz-adv-x="1705" d="M68 768q0 162 61 305.5t167.5 250t249 167.5t306.5 61q162 0 305 -61t249.5 -167.5t168 -250t61.5 -305.5q0 -164 -61.5 -306.5t-168 -249t-249.5 -167.5t-305 -61q-164 0 -306.5 61t-249 167.5t-167.5 249t-61 306.5zM252 768q0 -123 47 -232.5t129 -191.5t191.5 -129 t232.5 -47q125 0 233.5 47t190.5 129t129 191.5t47 232.5q0 125 -47 233.5t-129 190.5t-190.5 129t-233.5 47q-123 0 -232.5 -47t-191.5 -129t-129 -190.5t-47 -233.5zM604 1694q0 35 26.5 59.5t61.5 24.5q33 0 59.5 -25.5t26.5 -58.5q0 -35 -25.5 -61.5t-60.5 -26.5 q-37 0 -62.5 25.5t-25.5 62.5zM925 1694q0 35 27 59.5t61 24.5q33 0 59.5 -25.5t26.5 -58.5q0 -35 -25.5 -61.5t-60.5 -26.5q-37 0 -62.5 25.5t-25.5 62.5z"/>
<glyph unicode="×" horiz-adv-x="1034" d="M109 201l319 317l-311 311l90 91l311 -312l318 320l90 -90l-320 -320l318 -315l-90 -90l-316 317l-319 -319z"/>
<glyph unicode="Ø" horiz-adv-x="1695" d="M63 768q0 162 61.5 305.5t168 250t249 167.5t306.5 61q78 0 156 -16l34 111h121l-45 -142q113 -41 208 -113.5t163.5 -169t107.5 -212t39 -242.5q0 -164 -61.5 -306.5t-168 -249t-249.5 -167.5t-305 -61q-45 0 -88 5t-84 13l-27 -100l-119 -2l37 135q-111 43 -203 115.5 t-159.5 168t-104.5 209t-37 240.5zM248 768q0 -94 27.5 -180t76.5 -158t118 -128t151 -89l331 1145q-25 4 -51.5 7t-52.5 3q-123 0 -232.5 -47t-191.5 -129t-129 -190.5t-47 -233.5zM727 180q58 -12 121 -12q125 0 233.5 47t190.5 129t129 191.5t47 232.5q0 96 -28.5 183 t-80 160t-122 128t-156.5 88z"/>
<glyph unicode="Ù" horiz-adv-x="1067" d="M76 438v1098h184v-1079q0 -59 20.5 -111.5t56.5 -92.5t86 -62.5t109 -22.5q57 0 107.5 21.5t87.5 59.5t57.5 89t20.5 108v1090h184v-1104q0 -92 -37 -174t-99 -143.5t-145 -96t-176 -34.5q-94 0 -177 35.5t-145.5 97t-98 144.5t-35.5 177zM313 1708l45 105l394 -162 l-45 -106z"/>
<glyph unicode="Ú" horiz-adv-x="1067" d="M76 438v1098h184v-1079q0 -59 20.5 -111.5t56.5 -92.5t86 -62.5t109 -22.5q57 0 107.5 21.5t87.5 59.5t57.5 89t20.5 108v1090h184v-1104q0 -92 -37 -174t-99 -143.5t-145 -96t-176 -34.5q-94 0 -177 35.5t-145.5 97t-98 144.5t-35.5 177zM313 1651l394 162l45 -105 l-394 -163z"/>
<glyph unicode="Û" horiz-adv-x="1067" d="M76 438v1098h184v-1079q0 -59 20.5 -111.5t56.5 -92.5t86 -62.5t109 -22.5q57 0 107.5 21.5t87.5 59.5t57.5 89t20.5 108v1090h184v-1104q0 -92 -37 -174t-99 -143.5t-145 -96t-176 -34.5q-94 0 -177 35.5t-145.5 97t-98 144.5t-35.5 177zM292 1686l240 100l242 -96 l-4 -115q-16 0 -82 27t-156 68q-90 -41 -154.5 -70t-81.5 -29z"/>
<glyph unicode="Ü" horiz-adv-x="1067" d="M76 438v1098h184v-1079q0 -59 20.5 -111.5t56.5 -92.5t86 -62.5t109 -22.5q57 0 107.5 21.5t87.5 59.5t57.5 89t20.5 108v1090h184v-1104q0 -92 -37 -174t-99 -143.5t-145 -96t-176 -34.5q-94 0 -177 35.5t-145.5 97t-98 144.5t-35.5 177zM285 1694q0 35 26.5 59.5 t61.5 24.5q33 0 59.5 -25.5t26.5 -58.5q0 -35 -25.5 -61.5t-60.5 -26.5q-37 0 -62.5 25.5t-25.5 62.5zM606 1694q0 35 27 59.5t61 24.5q33 0 59.5 -25.5t26.5 -58.5q0 -35 -25.5 -61.5t-60.5 -26.5q-37 0 -62.5 25.5t-25.5 62.5z"/>
<glyph unicode="Ý" horiz-adv-x="1071" d="M16 1536h203l309 -711q2 -8 9 -8q6 0 8 8l307 711h201l-424 -981v-555h-185v555zM315 1651l394 162l45 -105l-394 -163z"/>
<glyph unicode="Þ" horiz-adv-x="944" d="M78 0v1536h184v-283h156q98 0 180 -35.5t141.5 -97t92 -145.5t32.5 -182t-32.5 -183.5t-92 -150t-141.5 -101t-180 -36.5h-144q-12 0 -12 -13v-309h-184zM262 514q2 -10 19 -10h141q80 0 130 33.5t78.5 80t39 95.5t10.5 82t-10.5 80t-39 91t-78.5 74.5t-130 30.5h-141 q-18 0 -19 -14v-543z"/>
<glyph unicode="ß" horiz-adv-x="1056" d="M78 0v1536h348q98 0 180 -29.5t141.5 -84t92 -131.5t32.5 -173q0 -66 -11 -113t-27.5 -81.5t-38 -60t-41.5 -50.5q111 -57 167 -159.5t56 -227.5q0 -98 -33 -177t-92 -134.5t-141 -85t-181 -29.5h-163v182h168q80 0 130 27t78.5 64.5t39 79.5t10.5 75q0 57 -27 104.5 t-70 80t-98 50t-111 17.5h-125v184h19.5t39 1t39 1h19.5q63 8 104.5 37t64 65t31.5 74.5t9 69.5q0 33 -10 75t-39 79t-79 62.5t-130 25.5h-149q-18 0 -19 -19v-1335h-184z"/>
<glyph unicode="à" d="M66 514q0 109 40.5 205t113.5 167.5t169 112.5t207 41q102 0 191.5 -35.5t160.5 -99.5v121h174v-1026l-174 76v43q-72 -63 -161 -99t-191 -36q-111 0 -207 41t-169 113.5t-113.5 168.5t-40.5 207zM242 514q0 -74 27.5 -139.5t74.5 -112.5t112.5 -74.5t139.5 -27.5 t138.5 27.5t111.5 74.5t74.5 112.5t27.5 139.5t-27.5 138.5t-74.5 111.5t-111.5 74.5t-138.5 27.5t-139.5 -27.5t-112.5 -74.5t-74.5 -111.5t-27.5 -138.5zM374 1298l45 105l394 -162l-45 -106z"/>
<glyph unicode="á" d="M66 514q0 109 40.5 205t113.5 167.5t169 112.5t207 41q102 0 191.5 -35.5t160.5 -99.5v121h174v-1026l-174 76v43q-72 -63 -161 -99t-191 -36q-111 0 -207 41t-169 113.5t-113.5 168.5t-40.5 207zM242 514q0 -74 27.5 -139.5t74.5 -112.5t112.5 -74.5t139.5 -27.5 t138.5 27.5t111.5 74.5t74.5 112.5t27.5 139.5t-27.5 138.5t-74.5 111.5t-111.5 74.5t-138.5 27.5t-139.5 -27.5t-112.5 -74.5t-74.5 -111.5t-27.5 -138.5zM374 1241l394 162l45 -105l-394 -163z"/>
<glyph unicode="â" d="M66 514q0 109 40.5 205t113.5 167.5t169 112.5t207 41q102 0 191.5 -35.5t160.5 -99.5v121h174v-1026l-174 76v43q-72 -63 -161 -99t-191 -36q-111 0 -207 41t-169 113.5t-113.5 168.5t-40.5 207zM242 514q0 -74 27.5 -139.5t74.5 -112.5t112.5 -74.5t139.5 -27.5 t138.5 27.5t111.5 74.5t74.5 112.5t27.5 139.5t-27.5 138.5t-74.5 111.5t-111.5 74.5t-138.5 27.5t-139.5 -27.5t-112.5 -74.5t-74.5 -111.5t-27.5 -138.5zM354 1276l240 100l242 -96l-4 -115q-16 0 -82 27t-156 68q-90 -41 -154.5 -70t-81.5 -29z"/>
<glyph unicode="ã" d="M66 514q0 109 40.5 205t113.5 167.5t169 112.5t207 41q102 0 191.5 -35.5t160.5 -99.5v121h174v-1026l-174 76v43q-72 -63 -161 -99t-191 -36q-111 0 -207 41t-169 113.5t-113.5 168.5t-40.5 207zM242 514q0 -74 27.5 -139.5t74.5 -112.5t112.5 -74.5t139.5 -27.5 t138.5 27.5t111.5 74.5t74.5 112.5t27.5 139.5t-27.5 138.5t-74.5 111.5t-111.5 74.5t-138.5 27.5t-139.5 -27.5t-112.5 -74.5t-74.5 -111.5t-27.5 -138.5zM252 1380q0 70 51 105t115 35h14q35 0 67.5 -9.5t65.5 -21.5t64.5 -21.5t64.5 -9.5q49 0 83 9.5t56 21.5 q25 14 43 33l60 -74q0 -37 -16.5 -63.5t-41 -43t-53.5 -24.5t-55 -8q-39 0 -76 9t-72.5 21.5t-67.5 21.5t-63 9h-14q-37 0 -67.5 -10t-53.5 -23q-27 -14 -49 -30z"/>
<glyph unicode="ä" d="M66 514q0 109 40.5 205t113.5 167.5t169 112.5t207 41q102 0 191.5 -35.5t160.5 -99.5v121h174v-1026l-174 76v43q-72 -63 -161 -99t-191 -36q-111 0 -207 41t-169 113.5t-113.5 168.5t-40.5 207zM242 514q0 -74 27.5 -139.5t74.5 -112.5t112.5 -74.5t139.5 -27.5 t138.5 27.5t111.5 74.5t74.5 112.5t27.5 139.5t-27.5 138.5t-74.5 111.5t-111.5 74.5t-138.5 27.5t-139.5 -27.5t-112.5 -74.5t-74.5 -111.5t-27.5 -138.5zM346 1284q0 35 26.5 59.5t61.5 24.5q33 0 59.5 -25.5t26.5 -58.5q0 -35 -25.5 -61.5t-60.5 -26.5q-37 0 -62.5 25.5 t-25.5 62.5zM667 1284q0 35 27 59.5t61 24.5q33 0 59.5 -25.5t26.5 -58.5q0 -35 -25.5 -61.5t-60.5 -26.5q-37 0 -62.5 25.5t-25.5 62.5z"/>
<glyph unicode="å" d="M66 514q0 109 40.5 205t113.5 167.5t169 112.5t207 41q102 0 191.5 -35.5t160.5 -99.5v121h174v-1026l-174 76v43q-72 -63 -161 -99t-191 -36q-111 0 -207 41t-169 113.5t-113.5 168.5t-40.5 207zM242 514q0 -74 27.5 -139.5t74.5 -112.5t112.5 -74.5t139.5 -27.5 t138.5 27.5t111.5 74.5t74.5 112.5t27.5 139.5t-27.5 138.5t-74.5 111.5t-111.5 74.5t-138.5 27.5t-139.5 -27.5t-112.5 -74.5t-74.5 -111.5t-27.5 -138.5zM510 1225q0 37 24.5 61.5t59.5 24.5t60.5 -25.5t25.5 -60.5t-24.5 -59.5t-61.5 -24.5t-60.5 24.5t-23.5 59.5z M546 1225q1 -47 48 -47q20 0 33.5 12t13.5 35q0 20 -13.5 33.5t-33.5 13.5q-23 0 -35.5 -13.5t-12.5 -33.5z"/>
<glyph unicode="æ" horiz-adv-x="1990" d="M66 514q0 109 40.5 205t113.5 167.5t169 112.5t207 41q102 0 191.5 -35.5t160.5 -99.5v121h174v-1026l-174 76v43q-72 -63 -161 -99t-191 -36q-111 0 -207 41t-169 113.5t-113.5 168.5t-40.5 207zM242 514q0 -74 27.5 -139.5t74.5 -112.5t112.5 -74.5t139.5 -27.5 t138.5 27.5t111.5 74.5t74.5 112.5t27.5 139.5t-27.5 138.5t-74.5 111.5t-111.5 74.5t-138.5 27.5t-139.5 -27.5t-112.5 -74.5t-74.5 -111.5t-27.5 -138.5zM956 514q0 109 40 205t111 167.5t166 112.5t206 41q106 0 192 -39.5t146.5 -108.5t93.5 -159t33 -190v-94h-807 q12 -63 42.5 -116.5t77 -91.5t105.5 -59.5t125 -21.5q70 0 132 22.5t107 69.5l127 -119q-72 -72 -166 -110.5t-200 -38.5q-111 0 -207 41t-169 113.5t-114 168.5t-41 207zM1141 592h620q0 47 -20.5 96t-57 89t-89 64.5t-115.5 24.5q-66 0 -121 -20.5t-99.5 -57t-75 -87 t-42.5 -109.5z"/>
<glyph unicode="ç" horiz-adv-x="1138" d="M66 514q0 109 40.5 205t113.5 167.5t169 112.5t207 41q129 0 237.5 -61t186.5 -154l-137 -104q-45 68 -121 106.5t-166 38.5q-74 0 -139.5 -27.5t-112.5 -74.5t-74.5 -111.5t-27.5 -138.5t27.5 -139.5t74.5 -112.5t112.5 -74.5t139.5 -27.5q98 0 182 46t121 126l166 -58 q-31 -68 -78 -121t-108.5 -90.5t-133 -58t-149.5 -20.5q-111 0 -207 41t-169 113.5t-113.5 168.5t-40.5 207zM362 -344l58 45q14 -10 37 -18q18 -8 43.5 -13.5t58.5 -5.5t63.5 21.5t30.5 58.5q0 41 -24.5 61.5t-51.5 20.5q-12 0 -34.5 -3t-44.5 -3l-60 30l107 150h88 l-80 -104q10 0 22.5 3t44.5 3q66 0 110 -41t44 -115q0 -49 -21.5 -86t-54.5 -60.5t-73.5 -34.5t-77.5 -11q-39 0 -72 15t-57 36q-29 23 -56 51z"/>
<glyph unicode="è" horiz-adv-x="1110" d="M66 514q0 109 39.5 205t110.5 167.5t166 112.5t206 41q106 0 192 -39.5t146.5 -108.5t93.5 -159t33 -190v-94h-807q12 -63 42.5 -116.5t77 -91.5t105.5 -59.5t125 -21.5q70 0 132.5 22.5t107.5 69.5l127 -119q-72 -72 -166.5 -110.5t-200.5 -38.5q-111 0 -207 41 t-169 113.5t-113.5 168.5t-40.5 207zM250 592h620q0 47 -20.5 96t-57 89t-89 64.5t-115.5 24.5q-66 0 -121 -20.5t-99 -57t-75 -87t-43 -109.5zM336 1298l45 105l394 -162l-45 -106z"/>
<glyph unicode="é" horiz-adv-x="1110" d="M66 514q0 109 39.5 205t110.5 167.5t166 112.5t206 41q106 0 192 -39.5t146.5 -108.5t93.5 -159t33 -190v-94h-807q12 -63 42.5 -116.5t77 -91.5t105.5 -59.5t125 -21.5q70 0 132.5 22.5t107.5 69.5l127 -119q-72 -72 -166.5 -110.5t-200.5 -38.5q-111 0 -207 41 t-169 113.5t-113.5 168.5t-40.5 207zM250 592h620q0 47 -20.5 96t-57 89t-89 64.5t-115.5 24.5q-66 0 -121 -20.5t-99 -57t-75 -87t-43 -109.5zM336 1241l394 162l45 -105l-394 -163z"/>
<glyph unicode="ê" horiz-adv-x="1110" d="M66 514q0 109 39.5 205t110.5 167.5t166 112.5t206 41q106 0 192 -39.5t146.5 -108.5t93.5 -159t33 -190v-94h-807q12 -63 42.5 -116.5t77 -91.5t105.5 -59.5t125 -21.5q70 0 132.5 22.5t107.5 69.5l127 -119q-72 -72 -166.5 -110.5t-200.5 -38.5q-111 0 -207 41 t-169 113.5t-113.5 168.5t-40.5 207zM250 592h620q0 47 -20.5 96t-57 89t-89 64.5t-115.5 24.5q-66 0 -121 -20.5t-99 -57t-75 -87t-43 -109.5zM313 1276l240 100l242 -96l-4 -115q-16 0 -82 27t-156 68q-90 -41 -154.5 -70t-81.5 -29z"/>
<glyph unicode="ë" horiz-adv-x="1110" d="M66 514q0 109 39.5 205t110.5 167.5t166 112.5t206 41q106 0 192 -39.5t146.5 -108.5t93.5 -159t33 -190v-94h-807q12 -63 42.5 -116.5t77 -91.5t105.5 -59.5t125 -21.5q70 0 132.5 22.5t107.5 69.5l127 -119q-72 -72 -166.5 -110.5t-200.5 -38.5q-111 0 -207 41 t-169 113.5t-113.5 168.5t-40.5 207zM250 592h620q0 47 -20.5 96t-57 89t-89 64.5t-115.5 24.5q-66 0 -121 -20.5t-99 -57t-75 -87t-43 -109.5zM307 1284q0 35 26.5 59.5t61.5 24.5q33 0 59.5 -25.5t26.5 -58.5q0 -35 -25.5 -61.5t-60.5 -26.5q-37 0 -62.5 25.5t-25.5 62.5z M628 1284q0 35 27 59.5t61 24.5q33 0 59.5 -25.5t26.5 -58.5q0 -35 -25.5 -61.5t-60.5 -26.5q-37 0 -62.5 25.5t-25.5 62.5z"/>
<glyph unicode="ì" horiz-adv-x="335" d="M-49 1298l45 105l394 -162l-45 -106zM80 0v1026h174v-1026h-174z"/>
<glyph unicode="í" horiz-adv-x="335" d="M-49 1241l394 162l45 -105l-394 -163zM80 0v1026h174v-1026h-174z"/>
<glyph unicode="î" horiz-adv-x="335" d="M-70 1276l240 100l242 -96l-4 -115q-16 0 -82 27t-156 68q-90 -41 -154.5 -70t-81.5 -29zM80 0v1026h174v-1026h-174z"/>
<glyph unicode="ï" horiz-adv-x="335" d="M-78 1284q0 35 26.5 59.5t61.5 24.5q33 0 59.5 -25.5t26.5 -58.5q0 -35 -25.5 -61.5t-60.5 -26.5q-37 0 -62.5 25.5t-25.5 62.5zM80 0v1026h174v-1026h-174zM243 1284q0 35 27 59.5t61 24.5q33 0 59.5 -25.5t26.5 -58.5q0 -35 -25.5 -61.5t-60.5 -26.5q-37 0 -62.5 25.5 t-25.5 62.5z"/>
<glyph unicode="ð" horiz-adv-x="1169" d="M59 508q0 125 44 222t117 165t167 103.5t197 35.5q39 0 73 -6l-98 152l-145 -101l-103 142l154 106l-90 133l160 96l79 -118l144 102l102 -141l-151 -109l331 -518q70 -127 70 -264q0 -111 -40 -207t-110.5 -167t-167 -110.5t-210.5 -39.5q-109 0 -204 39.5t-166 110.5 t-112 167t-41 207zM244 508q0 -74 25.5 -135.5t71.5 -107.5t108.5 -71.5t134.5 -25.5q74 0 136 25.5t108 71.5t72 107.5t26 135.5t-26 136.5t-72 108.5t-108 71.5t-136 25.5q-72 0 -133.5 -26.5t-107.5 -72.5t-72.5 -108.5t-26.5 -134.5z"/>
<glyph unicode="ñ" horiz-adv-x="1050" d="M78 0v1024l174 -72q113 88 270 88q88 0 170 -32.5t143.5 -90t98.5 -133t37 -163.5v-621h-174v596q0 55 -22.5 104.5t-59.5 86t-86 59t-105 22.5q-53 0 -102 -12t-87 -42t-60.5 -81t-22.5 -127v-606h-174zM183 1380q0 70 51 105t115 35h14q35 0 67.5 -9.5t65.5 -21.5 t64.5 -21.5t64.5 -9.5q49 0 83 9.5t56 21.5q25 14 43 33l60 -74q0 -37 -16.5 -63.5t-41 -43t-53.5 -24.5t-55 -8q-39 0 -76 9t-72.5 21.5t-67.5 21.5t-63 9h-14q-37 0 -67.5 -10t-53.5 -23q-27 -14 -49 -30z"/>
<glyph unicode="ò" d="M66 514q0 109 40.5 205t113.5 167.5t169 112.5t207 41q109 0 205 -41t167.5 -112.5t112.5 -167.5t41 -205q0 -111 -41 -207t-112.5 -168.5t-167.5 -113.5t-205 -41q-111 0 -207 41t-169 113.5t-113.5 168.5t-40.5 207zM242 514q0 -74 27.5 -139.5t74.5 -112.5 t112.5 -74.5t139.5 -27.5t138.5 27.5t111.5 74.5t74.5 112.5t27.5 139.5t-27.5 138.5t-74.5 111.5t-111.5 74.5t-138.5 27.5t-139.5 -27.5t-112.5 -74.5t-74.5 -111.5t-27.5 -138.5zM374 1298l45 105l394 -162l-45 -106z"/>
<glyph unicode="ó" d="M66 514q0 109 40.5 205t113.5 167.5t169 112.5t207 41q109 0 205 -41t167.5 -112.5t112.5 -167.5t41 -205q0 -111 -41 -207t-112.5 -168.5t-167.5 -113.5t-205 -41q-111 0 -207 41t-169 113.5t-113.5 168.5t-40.5 207zM242 514q0 -74 27.5 -139.5t74.5 -112.5 t112.5 -74.5t139.5 -27.5t138.5 27.5t111.5 74.5t74.5 112.5t27.5 139.5t-27.5 138.5t-74.5 111.5t-111.5 74.5t-138.5 27.5t-139.5 -27.5t-112.5 -74.5t-74.5 -111.5t-27.5 -138.5zM374 1241l394 162l45 -105l-394 -163z"/>
<glyph unicode="ô" d="M66 514q0 109 40.5 205t113.5 167.5t169 112.5t207 41q109 0 205 -41t167.5 -112.5t112.5 -167.5t41 -205q0 -111 -41 -207t-112.5 -168.5t-167.5 -113.5t-205 -41q-111 0 -207 41t-169 113.5t-113.5 168.5t-40.5 207zM242 514q0 -74 27.5 -139.5t74.5 -112.5 t112.5 -74.5t139.5 -27.5t138.5 27.5t111.5 74.5t74.5 112.5t27.5 139.5t-27.5 138.5t-74.5 111.5t-111.5 74.5t-138.5 27.5t-139.5 -27.5t-112.5 -74.5t-74.5 -111.5t-27.5 -138.5zM354 1276l240 100l242 -96l-4 -115q-16 0 -82 27t-156 68q-90 -41 -154.5 -70t-81.5 -29z "/>
<glyph unicode="õ" d="M66 514q0 109 40.5 205t113.5 167.5t169 112.5t207 41q109 0 205 -41t167.5 -112.5t112.5 -167.5t41 -205q0 -111 -41 -207t-112.5 -168.5t-167.5 -113.5t-205 -41q-111 0 -207 41t-169 113.5t-113.5 168.5t-40.5 207zM242 514q0 -74 27.5 -139.5t74.5 -112.5 t112.5 -74.5t139.5 -27.5t138.5 27.5t111.5 74.5t74.5 112.5t27.5 139.5t-27.5 138.5t-74.5 111.5t-111.5 74.5t-138.5 27.5t-139.5 -27.5t-112.5 -74.5t-74.5 -111.5t-27.5 -138.5zM252 1380q0 70 51 105t115 35h14q35 0 67.5 -9.5t65.5 -21.5t64.5 -21.5t64.5 -9.5 q49 0 83 9.5t56 21.5q25 14 43 33l60 -74q0 -37 -16.5 -63.5t-41 -43t-53.5 -24.5t-55 -8q-39 0 -76 9t-72.5 21.5t-67.5 21.5t-63 9h-14q-37 0 -67.5 -10t-53.5 -23q-27 -14 -49 -30z"/>
<glyph unicode="ö" d="M66 514q0 109 40.5 205t113.5 167.5t169 112.5t207 41q109 0 205 -41t167.5 -112.5t112.5 -167.5t41 -205q0 -111 -41 -207t-112.5 -168.5t-167.5 -113.5t-205 -41q-111 0 -207 41t-169 113.5t-113.5 168.5t-40.5 207zM242 514q0 -74 27.5 -139.5t74.5 -112.5 t112.5 -74.5t139.5 -27.5t138.5 27.5t111.5 74.5t74.5 112.5t27.5 139.5t-27.5 138.5t-74.5 111.5t-111.5 74.5t-138.5 27.5t-139.5 -27.5t-112.5 -74.5t-74.5 -111.5t-27.5 -138.5zM346 1284q0 35 26.5 59.5t61.5 24.5q33 0 59.5 -25.5t26.5 -58.5q0 -35 -25.5 -61.5 t-60.5 -26.5q-37 0 -62.5 25.5t-25.5 62.5zM667 1284q0 35 27 59.5t61 24.5q33 0 59.5 -25.5t26.5 -58.5q0 -35 -25.5 -61.5t-60.5 -26.5q-37 0 -62.5 25.5t-25.5 62.5z"/>
<glyph unicode="÷" horiz-adv-x="1114" d="M47 457v135h1018v-135h-1018zM467 209q0 35 26.5 59.5t61.5 24.5q33 0 59.5 -25.5t26.5 -58.5q0 -35 -25.5 -61.5t-60.5 -26.5q-37 0 -62.5 25.5t-25.5 62.5zM467 842q0 35 26.5 59.5t61.5 24.5q33 0 59.5 -26t26.5 -58q0 -35 -25.5 -61.5t-60.5 -26.5q-37 0 -62.5 25.5 t-25.5 62.5z"/>
<glyph unicode="ø" horiz-adv-x="1179" d="M61 514q0 109 41 205t114 167.5t169 112.5t207 41q23 0 43 -2t43 -6l31 103h118l-41 -131q74 -29 134.5 -78t104.5 -112.5t68.5 -140.5t24.5 -159q0 -111 -41 -207t-112.5 -168.5t-168 -113.5t-204.5 -41q-47 0 -98 10l-35 -113l-115 4q0 4 1 5.5t1 5.5l39 129 q-72 31 -131 80t-102 112.5t-67 138t-24 158.5zM238 514q0 -109 54 -192.5t142 -126.5l195 669q-10 0 -18.5 1t-18.5 1q-74 0 -139.5 -27.5t-112.5 -74.5t-74.5 -111.5t-27.5 -138.5zM543 162q12 -2 24.5 -2h24.5q74 0 138.5 27.5t111.5 74.5t74.5 112.5t27.5 139.5 q0 109 -57.5 195t-149.5 127z"/>
<glyph unicode="ù" horiz-adv-x="1040" d="M74 408v614h174v-590q0 -55 22.5 -104t59.5 -86t86 -59.5t104 -22.5q53 0 102.5 12t87.5 42t60.5 80t22.5 128v600h174v-1022l-174 76q-55 -43 -124 -67.5t-147 -24.5q-90 0 -171 33.5t-142.5 91t-98 134t-36.5 165.5zM301 1298l45 105l394 -162l-45 -106z"/>
<glyph unicode="ú" horiz-adv-x="1040" d="M74 408v614h174v-590q0 -55 22.5 -104t59.5 -86t86 -59.5t104 -22.5q53 0 102.5 12t87.5 42t60.5 80t22.5 128v600h174v-1022l-174 76q-55 -43 -124 -67.5t-147 -24.5q-90 0 -171 33.5t-142.5 91t-98 134t-36.5 165.5zM301 1241l394 162l45 -105l-394 -163z"/>
<glyph unicode="û" horiz-adv-x="1040" d="M74 408v614h174v-590q0 -55 22.5 -104t59.5 -86t86 -59.5t104 -22.5q53 0 102.5 12t87.5 42t60.5 80t22.5 128v600h174v-1022l-174 76q-55 -43 -124 -67.5t-147 -24.5q-90 0 -171 33.5t-142.5 91t-98 134t-36.5 165.5zM278 1276l240 100l242 -96l-4 -115q-16 0 -82 27 t-156 68q-90 -41 -154.5 -70t-81.5 -29z"/>
<glyph unicode="ü" horiz-adv-x="1040" d="M74 408v614h174v-590q0 -55 22.5 -104t59.5 -86t86 -59.5t104 -22.5q53 0 102.5 12t87.5 42t60.5 80t22.5 128v600h174v-1022l-174 76q-55 -43 -124 -67.5t-147 -24.5q-90 0 -171 33.5t-142.5 91t-98 134t-36.5 165.5zM273 1284q0 35 26.5 59.5t61.5 24.5 q33 0 59.5 -25.5t26.5 -58.5q0 -35 -25.5 -61.5t-60.5 -26.5q-37 0 -62.5 25.5t-25.5 62.5zM594 1284q0 35 27 59.5t61 24.5q33 0 59.5 -25.5t26.5 -58.5q0 -35 -25.5 -61.5t-60.5 -26.5q-37 0 -62.5 25.5t-25.5 62.5z"/>
<glyph unicode="ý" horiz-adv-x="897" d="M4 1024h186l259 -762l264 766h182l-512 -1450h-180l155 430zM229 1241l394 162l45 -105l-394 -163z"/>
<glyph unicode="þ" horiz-adv-x="1214" d="M78 -416v1852h174v-529q70 63 160 99t192 36q111 0 207 -40.5t169 -113.5t114 -169t41 -207q0 -109 -41 -205t-114 -167.5t-169 -112.5t-207 -41q-102 0 -192 35.5t-160 99.5v-537h-174zM252 512q0 -74 27.5 -138.5t74.5 -111.5t111.5 -74.5t138.5 -27.5t139.5 27.5 t112.5 74.5t74.5 111.5t27.5 138.5t-27.5 139.5t-74.5 112.5t-112.5 74.5t-139.5 27.5t-138.5 -27.5t-111.5 -74.5t-74.5 -112.5t-27.5 -139.5z"/>
<glyph unicode="ÿ" horiz-adv-x="897" d="M4 1024h186l259 -762l264 766h182l-512 -1450h-180l155 430zM201 1284q0 35 26.5 59.5t61.5 24.5q33 0 59.5 -25.5t26.5 -58.5q0 -35 -25.5 -61.5t-60.5 -26.5q-37 0 -62.5 25.5t-25.5 62.5zM522 1284q0 35 27 59.5t61 24.5q33 0 59.5 -25.5t26.5 -58.5 q0 -35 -25.5 -61.5t-60.5 -26.5q-37 0 -62.5 25.5t-25.5 62.5z"/>
<glyph unicode="Œ" horiz-adv-x="2273" d="M68 768q0 162 61 305.5t167.5 250t249 167.5t306.5 61q162 0 305 -61t249.5 -167.5t168 -250t61.5 -305.5q0 -164 -61.5 -306.5t-168 -249t-249.5 -167.5t-305 -61q-164 0 -306.5 61t-249 167.5t-167.5 249t-61 306.5zM252 768q0 -123 47 -232.5t129 -191.5t191.5 -129 t232.5 -47q125 0 233.5 47t190.5 129t129 191.5t47 232.5q0 125 -47 233.5t-129 190.5t-190.5 129t-233.5 47q-123 0 -232.5 -47t-191.5 -129t-129 -190.5t-47 -233.5zM1456 0v1536h754v-184h-557q-12 0 -13 -9v-471q0 -8 13 -8h557v-184h-557q-12 0 -13 -10v-473 q0 -12 13 -13h557v-184h-754z"/>
<glyph unicode="œ" horiz-adv-x="1984" d="M66 514q0 109 40.5 205t113.5 167.5t169 112.5t207 41q109 0 205 -41t167.5 -112.5t112.5 -167.5t41 -205q0 -111 -41 -207t-112.5 -168.5t-167.5 -113.5t-205 -41q-111 0 -207 41t-169 113.5t-113.5 168.5t-40.5 207zM242 514q0 -74 27.5 -139.5t74.5 -112.5 t112.5 -74.5t139.5 -27.5t138.5 27.5t111.5 74.5t74.5 112.5t27.5 139.5t-27.5 138.5t-74.5 111.5t-111.5 74.5t-138.5 27.5t-139.5 -27.5t-112.5 -74.5t-74.5 -111.5t-27.5 -138.5zM954 514q0 109 40 205t111 167.5t166 112.5t206 41q106 0 192 -39.5t146.5 -108.5 t93.5 -159t33 -190v-94h-807q12 -63 42.5 -116.5t76.5 -91.5t105.5 -59.5t125.5 -21.5q70 0 132 22.5t107 69.5l127 -119q-72 -72 -166 -110.5t-200 -38.5q-111 0 -207 41t-169 113.5t-114 168.5t-41 207zM1139 592h620q0 47 -20.5 96t-57 89t-89 64.5t-115.5 24.5 q-66 0 -121.5 -20.5t-99.5 -57t-74.5 -87t-42.5 -109.5z"/>
<glyph unicode="Ÿ" horiz-adv-x="1071" d="M16 1536h203l309 -711q2 -8 9 -8q6 0 8 8l307 711h201l-424 -981v-555h-185v555zM287 1694q0 35 26.5 59.5t61.5 24.5q33 0 59.5 -25.5t26.5 -58.5q0 -35 -25.5 -61.5t-60.5 -26.5q-37 0 -62.5 25.5t-25.5 62.5zM608 1694q0 35 27 59.5t61 24.5q33 0 59.5 -25.5 t26.5 -58.5q0 -35 -25.5 -61.5t-60.5 -26.5q-37 0 -62.5 25.5t-25.5 62.5z"/>
<glyph unicode="ˆ" horiz-adv-x="600" d="M59 1276l240 100l242 -96l-4 -115q-16 0 -82 27t-156 68q-90 -41 -154.5 -70t-81.5 -29z"/>
<glyph unicode="˜" horiz-adv-x="833" d="M74 1380q0 70 51 105t115 35h14q35 0 67.5 -9.5t65.5 -21.5t64.5 -21.5t64.5 -9.5q49 0 83 9.5t56 21.5q25 14 43 33l60 -74q0 -37 -16.5 -63.5t-41 -43t-53.5 -24.5t-55 -8q-39 0 -76 9t-72.5 21.5t-67.5 21.5t-63 9h-14q-37 0 -67.5 -10t-53.5 -23q-27 -14 -49 -30z "/>
<glyph unicode=" " horiz-adv-x="966"/>
<glyph unicode=" " horiz-adv-x="1932"/>
<glyph unicode=" " horiz-adv-x="966"/>
<glyph unicode=" " horiz-adv-x="1932"/>
<glyph unicode=" " horiz-adv-x="644"/>
<glyph unicode=" " horiz-adv-x="483"/>
<glyph unicode=" " horiz-adv-x="322"/>
<glyph unicode=" " horiz-adv-x="322"/>
<glyph unicode=" " horiz-adv-x="241"/>
<glyph unicode=" " horiz-adv-x="386"/>
<glyph unicode=" " horiz-adv-x="107"/>
<glyph unicode="‐" horiz-adv-x="808" d="M78 520v135h651v-135h-651z"/>
<glyph unicode="‑" horiz-adv-x="808" d="M78 520v135h651v-135h-651z"/>
<glyph unicode="‒" horiz-adv-x="808" d="M78 520v135h651v-135h-651z"/>
<glyph unicode="–" horiz-adv-x="1179" d="M78 520v135h1024v-135h-1024z"/>
<glyph unicode="—" horiz-adv-x="1542" d="M78 520v135h1384v-135h-1384z"/>
<glyph unicode="‘" horiz-adv-x="274" d="M37 1524l166 12l16 -401h-63z"/>
<glyph unicode="’" horiz-adv-x="325" d="M74 1135l16 401l166 -12l-119 -389h-63z"/>
<glyph unicode="‚" horiz-adv-x="325" d="M74 -158l16 400l166 -13l-119 -389z"/>
<glyph unicode="“" horiz-adv-x="542" d="M57 1524l166 12l17 -401h-64zM295 1524l166 12l16 -401h-63z"/>
<glyph unicode="”" horiz-adv-x="563" d="M74 1135l16 401l166 -12l-119 -389h-63zM311 1135l17 401l166 -12l-119 -389h-64z"/>
<glyph unicode="„" horiz-adv-x="563" d="M74 -158l16 400l166 -13l-119 -389zM309 -158l17 400l166 -13l-119 -389z"/>
<glyph unicode="•" horiz-adv-x="503" d="M68 614q0 76 53 130.5t131 54.5q76 0 130 -54.5t54 -130.5q0 -78 -54 -131t-130 -53q-78 0 -131 53t-53 131z"/>
<glyph unicode="…" horiz-adv-x="1224" d="M76 80q0 35 26.5 59.5t61.5 24.5q33 0 59.5 -25.5t26.5 -58.5q0 -35 -25.5 -61.5t-60.5 -26.5q-37 0 -62.5 25.5t-25.5 62.5zM524 80q0 35 27 59.5t61 24.5q33 0 59.5 -25.5t26.5 -58.5q0 -35 -25.5 -61.5t-60.5 -26.5q-37 0 -62.5 25.5t-25.5 62.5zM973 80 q0 35 26.5 59.5t61.5 24.5q33 0 59.5 -25.5t26.5 -58.5q0 -35 -25.5 -61.5t-60.5 -26.5q-37 0 -62.5 25.5t-25.5 62.5z"/>
<glyph unicode=" " horiz-adv-x="386"/>
<glyph unicode="‹" horiz-adv-x="458" d="M35 553l256 397l112 -73l-208 -326l208 -324l-112 -73q-90 141 -141.5 221t-77 117.5t-31.5 47t-6 13.5z"/>
<glyph unicode="›" horiz-adv-x="516" d="M80 227l209 324l-209 326l113 73l256 -397q0 -4 -6.5 -13.5t-32 -47t-76.5 -117.5t-141 -221z"/>
<glyph unicode=" " horiz-adv-x="483"/>
<glyph unicode="€" horiz-adv-x="1196" d="M61 557v135h115v144h-115v135h115v80q0 100 40 190t108.5 158.5t158.5 108.5t193 40q66 0 132 -20.5t125.5 -57t110 -91t82.5 -122.5l-168 -77q-39 80 -114.5 131t-167.5 51q-68 0 -126 -26.5t-101 -70.5t-68 -101.5t-25 -116.5v-76h562v-135h-562v-144h562v-135h-562 v-70q0 -61 26 -118.5t69 -101.5t101 -70.5t124 -26.5q92 0 168 50t114 132l160 -92q-63 -123 -182 -199.5t-260 -76.5q-96 0 -186.5 37.5t-160 104.5t-111.5 158t-42 199v74h-115z"/>
<glyph unicode="™" horiz-adv-x="1310" d="M18 1446v92h490v-92h-193q-8 0 -8 -8v-668h-92v668q0 8 -6 8h-191zM573 770v768h134l204 -600q0 -2 1 1t8.5 18.5t19.5 52.5t35.5 103.5t58.5 169.5t86 255h133v-766h-92v621l-17 -45q-16 -45 -38.5 -115t-50 -149.5t-50 -149.5t-39.5 -117l-16 -47h-71l-213 625v-625 h-93z"/>
<glyph unicode="" horiz-adv-x="1024" d="M0 0v1024h1024v-1024h-1024z"/>
<glyph unicode="ﬁ" horiz-adv-x="1222" d="M49 850v158h240v176q0 115 60.5 182.5t164.5 67.5h246v-146h-201q-96 0 -96 -127v-153h362v-158h-362v-850h-174v850h-240zM975 0v1024h174v-1024h-174zM975 1249q0 35 26.5 59.5t61.5 24.5q33 0 59.5 -25.5t26.5 -58.5q0 -35 -25.5 -61.5t-60.5 -26.5q-37 0 -62.5 25.5 t-25.5 62.5z"/>
</font>
</defs>
</svg>
