<?xml version="1.0" encoding="UTF-8" standalone="no"?>
<!DOCTYPE svg PUBLIC "-//W3C//DTD SVG 1.1//EN" "http://www.w3.org/Graphics/SVG/1.1/DTD/svg11.dtd">
<svg xmlns="http://www.w3.org/2000/svg">
<metadata/>
<defs>
<font id="ebisuregular" horiz-adv-x="1228">
<font-face units-per-em="2048" ascent="1536" descent="-512"/>
<missing-glyph horiz-adv-x="593"/>
<glyph horiz-adv-x="2048"/>
<glyph horiz-adv-x="2048"/>
<glyph unicode="" horiz-adv-x="593"/>
<glyph unicode=" " horiz-adv-x="593"/>
<glyph unicode="	" horiz-adv-x="593"/>
<glyph unicode=" " horiz-adv-x="593"/>
<glyph unicode="!" horiz-adv-x="462" d="M92 131q0 59 42 100t97 41q59 0 100.5 -41t41.5 -100q0 -55 -41 -97t-101 -42q-55 0 -97 42t-42 97zM94 346v1190h279v-1190h-279z"/>
<glyph unicode="&quot;" horiz-adv-x="843" d="M117 944v592h233v-592h-233zM494 944v592h233v-592h-233z"/>
<glyph unicode="#" horiz-adv-x="1441" d="M106 416v196h304l32 234h-274v196h303l59 426h197l-59 -426h196l60 426h196l-59 -426h276v-196h-305l-33 -234h277v-196h-305l-60 -416h-196q0 10 3 31.5t10 66.5t18.5 121t27.5 197h-196l-60 -416h-196q0 10 3 31.5t10 66.5t18.5 121t27.5 197h-275zM608 612h195l33 234 h-195z"/>
<glyph unicode="$" horiz-adv-x="1095" d="M109 307l270 45l10 -16q25 -41 70 -51.5t84 -10.5q66 0 108.5 47.5t42.5 108.5q0 55 -15 91t-43 59.5t-68 38t-87 30.5q-80 25 -147.5 66t-117.5 96t-77.5 126t-27.5 155q0 180 89 296.5t249 147.5v193h233v-199q86 -27 157.5 -85.5t100.5 -150.5l-264 -127l-12 27 q-16 33 -54.5 46t-68.5 13q-57 0 -97.5 -46t-40.5 -103q0 -45 23 -76t56.5 -53.5t70.5 -37.5t68 -28q96 -41 165.5 -86t113.5 -100t65.5 -127t21.5 -166q0 -76 -22.5 -144.5t-63.5 -125t-97 -97t-122 -61.5v-190h-233v182q-66 10 -127.5 34.5t-108.5 63.5t-75.5 93.5 t-28.5 121.5z"/>
<glyph unicode="%" horiz-adv-x="1873" d="M111 1167q0 76 28.5 143.5t78.5 118t117.5 79t143.5 28.5t143.5 -28.5t118 -79t79 -118t28.5 -143.5t-28.5 -143.5t-79 -117.5t-118 -78.5t-143.5 -28.5t-143.5 28.5t-117.5 78.5t-78.5 117.5t-28.5 143.5zM313 1167q0 -70 48.5 -118t117.5 -48q70 0 118 48.5t48 117.5 q0 70 -48 118t-118 48t-118 -48t-48 -118zM492 51l761 1493l125 -61q-178 -350 -304 -599t-211 -416t-135 -264.5t-75.5 -147.5t-34 -64.5t-8.5 -16.5zM1026 369q0 76 28.5 143.5t79 117.5t118 78.5t143.5 28.5t143.5 -28.5t117.5 -78.5t78.5 -118t28.5 -143 q0 -76 -28.5 -143.5t-78.5 -118t-118 -79t-143 -28.5q-76 0 -143.5 28.5t-118 79t-79 118t-28.5 143.5zM1229 369q0 -70 48 -118t118 -48t118 48t48 118t-48.5 118t-117.5 48q-70 0 -118 -48t-48 -118z"/>
<glyph unicode="&amp;" horiz-adv-x="1480" d="M72 444q0 135 67.5 245t192.5 188q-154 117 -154 311q0 74 31 140.5t83 116.5t120.5 78.5t144.5 28.5q74 0 140.5 -28.5t115.5 -78.5t78 -116.5t29 -140.5q0 -111 -56.5 -194t-144.5 -140l164 -160l170 330l239 -119l-194 -377q-6 -10 -6 -18q0 -10 6 -16l317 -293 l-178 -201q-84 76 -137 126t-86 79q-37 35 -58 51q-27 -61 -69.5 -112.5t-97 -86t-117 -54t-127.5 -19.5q-98 0 -184.5 35.5t-151 98t-101 146.5t-36.5 180zM338 453q0 -86 58.5 -144.5t144.5 -58.5q43 0 75.5 20.5t58 50t43 60.5t27.5 51l7 12l-103 103l-153 137 q-29 -16 -56.5 -39.5t-50 -52.5t-37 -64.5t-14.5 -74.5zM444 1178q0 -29 15.5 -56.5t35 -49t35.5 -34.5l17 -12q8 0 37 25q27 23 49 51t22 76q0 43 -30.5 73.5t-73.5 30.5q-45 0 -76 -30.5t-31 -73.5z"/>
<glyph unicode="'" horiz-adv-x="462" d="M115 944v592h233v-592h-233z"/>
<glyph unicode="(" horiz-adv-x="702" d="M113 346v752q0 170 65.5 301t181.5 223l189 -205q-47 -47 -76 -89t-44 -87t-19 -96t-4 -119v-608q0 -68 4 -119t19 -96t44 -87t76 -89l-189 -205q-117 92 -182 223t-65 301z"/>
<glyph unicode=")" horiz-adv-x="702" d="M154 27q47 47 75.5 89t44 87t19.5 96t4 119v608q0 68 -4 119t-19.5 96t-44 87t-75.5 89l188 205q117 -92 182.5 -223t65.5 -301v-752q0 -170 -65.5 -301t-182.5 -223z"/>
<glyph unicode="*" horiz-adv-x="903" d="M82 977v223l223 -51l-192 123l155 155l123 -194l-51 225h223l-51 -225l123 194l156 -155l-195 -123l225 51v-223l-225 51l195 -123l-156 -155l-123 192l51 -223h-223l51 225l-123 -194l-155 155l194 123z"/>
<glyph unicode="+" d="M102 406v233h396v387h233v-387h393v-233h-393v-390h-233v390h-396z"/>
<glyph unicode="," horiz-adv-x="460" d="M94 199l228 47l34 -383l-161 -21z"/>
<glyph unicode="-" horiz-adv-x="878" d="M115 471v234h649v-234h-649z"/>
<glyph unicode="." horiz-adv-x="464" d="M113 106q0 47 34.5 86t90.5 39q47 0 80.5 -38.5t33.5 -86.5q0 -47 -33.5 -80.5t-80.5 -33.5q-55 0 -90 33.5t-35 80.5z"/>
<glyph unicode="/" horiz-adv-x="735" d="M84 2l442 1548l123 -28l-440 -1536z"/>
<glyph unicode="0" d="M92 506v524q0 104 41 198.5t111.5 167t166 114.5t203.5 42q109 0 204 -42t166 -114.5t112 -166.5t41 -199v-524q0 -104 -41 -198.5t-112 -167t-166 -114.5t-204 -42t-204 42t-165.5 114.5t-111.5 166.5t-41 199zM383 510q0 -45 18.5 -87t50 -74t73.5 -51t89 -19t89 19 t73 51t49.5 74t18.5 87v516q0 45 -18.5 87t-49.5 74t-72.5 51t-89.5 19q-47 0 -89 -19t-73.5 -51t-50 -74t-18.5 -87v-516z"/>
<glyph unicode="1" d="M309 1262v276h537v-1538h-293v1249q0 12 -12 13h-232z"/>
<glyph unicode="2" d="M156 0l2 352q8 8 53 50t107.5 98.5t134 122t135 123t110.5 99.5t60 54q33 31 53 74t20 84q0 86 -58 144.5t-144 58.5q-68 0 -120 -40t-75 -102l-276 96q25 74 70.5 136.5t107 106.5t136.5 69.5t157 25.5q102 0 192 -38.5t158 -106.5t106.5 -158t38.5 -192 q0 -111 -41 -197t-118 -164q-12 -12 -38 -34.5t-61 -52t-74.5 -64.5t-80.5 -68q-96 -80 -209 -174q-4 -4 -4 -6q0 -4 6 -4h629v-293h-977z"/>
<glyph unicode="3" d="M125 412l272 37q16 -74 72.5 -123.5t134.5 -49.5q43 0 81 18.5t65.5 49.5t44 73t16.5 89q0 90 -56.5 153.5t-133.5 85.5l-136 37v215l125 35q39 10 59.5 37t20.5 86q0 47 -31.5 80t-78.5 33q-43 0 -82 -20.5t-70 -45.5q-37 -29 -68 -63l-112 225q51 86 137 137t193 51 q78 0 147.5 -29.5t121.5 -81.5t81.5 -122t29.5 -150q0 -70 -23.5 -131t-64.5 -110q-8 -8 -8 -10q0 -6 8 -9q104 -68 169 -178t65 -246q0 -104 -40 -195t-107.5 -159t-158.5 -107.5t-196 -39.5q-125 0 -227.5 58t-171.5 153q-31 43 -54.5 99t-23.5 118z"/>
<glyph unicode="4" d="M94 248v289q170 274 307 491q57 92 113.5 182t100.5 161t73 115t31 48h299v-999h143v-297h-143v-238h-293v236q0 12 -12 12h-619zM416 528q0 -8 6 -8h291q12 0 12 12v300.5v154.5t-1 57l-1 9q-2 0 -6 -4l-299 -514q-2 -2 -2 -7z"/>
<glyph unicode="5" d="M115 281l262 120q29 -59 88 -93t131 -34q51 0 96 18.5t79 52.5t52.5 79t18.5 98q0 51 -18.5 96.5t-52.5 79t-79 52t-96 18.5q-55 0 -104.5 -15.5t-85.5 -31.5q-43 -23 -78 -47l-178 176q0 10 1 19.5t3 19.5l135 647h725v-289h-522q-10 0 -15 -12l-37 -186q0 -4 2 -7h9 q68 18 145 19q111 0 209 -42t172 -116t116 -172t42 -209t-42 -209t-116 -171.5t-172 -115.5t-209 -42q-160 0 -288 80.5t-193 216.5z"/>
<glyph unicode="6" d="M70 528q0 76 17 145.5t56 129.5l478 760l247 -158l-223 -344q-2 -2 -2 -6t4 -4q106 -10 200.5 -52.5t163 -110t108.5 -158.5t40 -202q0 -113 -43 -212t-116.5 -172.5t-173 -116.5t-212.5 -43t-212 43t-172.5 116.5t-116.5 172.5t-43 212zM362 528q0 -111 71 -181.5 t181 -70.5q53 0 99.5 18.5t80 52.5t53 80t19.5 101q0 53 -19.5 99.5t-53 80t-79.5 53t-100 19.5q-55 0 -101 -19.5t-80 -53t-52.5 -80t-18.5 -99.5z"/>
<glyph unicode="7" d="M170 1249v287h868v-319l-540 -1242l-269 117q86 195 154 348.5t120 270t89 201.5t63 145q61 139 80 184q0 8 -8 8h-557z"/>
<glyph unicode="8" d="M109 487q0 117 58 212.5t134 156.5q-49 55 -84 117.5t-35 144.5q0 88 34 167t93.5 138.5t137 93t167.5 33.5q88 0 167 -33.5t138.5 -93t93.5 -138.5t34 -167q0 -82 -36 -144.5t-85 -117.5q37 -31 72.5 -71t62 -86t43 -100t16.5 -112q0 -104 -40 -196t-108.5 -161 t-160.5 -108.5t-197 -39.5q-104 0 -196 39.5t-161 108.5t-108.5 161t-39.5 196zM399 487q0 -45 16.5 -83.5t46.5 -68.5t68.5 -46.5t83.5 -16.5t84 16.5t68 46.5t45 68.5t16 83.5q0 90 -61 151.5t-152 61.5q-45 0 -83.5 -16t-68.5 -45t-46.5 -68t-16.5 -84zM471 1118 q0 -59 42 -101t101 -42t100.5 42t41.5 101t-41 100.5t-101 41.5q-59 0 -101 -41.5t-42 -100.5z"/>
<glyph unicode="9" d="M70 1001q0 113 43 212.5t116.5 173t173 116.5t211.5 43q113 0 212.5 -43t173 -116.5t116.5 -173t43 -212.5q0 -76 -17.5 -145.5t-56.5 -128.5l-477 -752l-248 158l224 336q2 2 2 6t-4 4q-109 10 -202 52t-161.5 110t-108.5 159t-40 201zM362 1001q0 -53 19.5 -99 t53.5 -80t80 -53t99 -19q55 0 101.5 19t80 53t52 80t18.5 99q0 111 -70.5 181.5t-181.5 70.5q-53 0 -99 -18t-80 -52t-53.5 -80t-19.5 -102z"/>
<glyph unicode=":" horiz-adv-x="468" d="M115 106q0 47 34.5 86t90.5 39q47 0 80.5 -38.5t33.5 -86.5q0 -47 -33.5 -80.5t-80.5 -33.5q-55 0 -90 33.5t-35 80.5zM115 825q0 55 34.5 90t90.5 35q47 0 80.5 -34.5t33.5 -90.5q0 -47 -33.5 -80.5t-80.5 -33.5q-55 0 -90 33.5t-35 80.5z"/>
<glyph unicode=";" horiz-adv-x="462" d="M94 199l228 47l34 -383l-161 -21zM111 829q0 53 33.5 88t80.5 35q53 0 88 -34.5t35 -88.5q0 -47 -34.5 -80.5t-88.5 -33.5q-47 0 -80.5 33.5t-33.5 80.5z"/>
<glyph unicode="&lt;" horiz-adv-x="1372" d="M117 430l2 174l1081 449v-183l-840 -358l4 -2q5 -2 28.5 -12.5t73.5 -32t143 -59t236.5 -97t352.5 -145.5v-182z"/>
<glyph unicode="=" horiz-adv-x="1169" d="M117 238v233h936v-233h-936zM117 582v233h936v-233h-936z"/>
<glyph unicode="&gt;" horiz-adv-x="1370" d="M117 870v183l1081 -449l2 -174l-1081 -448v182q209 86 352 145.5t236.5 97t143.5 59t73.5 32t27.5 12.5l4 2z"/>
<glyph unicode="?" horiz-adv-x="921" d="M55 1303q53 70 121 124q57 47 132 86t161 39q174 0 275.5 -92t101.5 -280q0 -88 -19.5 -150.5t-50.5 -107.5t-69.5 -78t-74.5 -63.5t-66.5 -65.5t-47.5 -82q-6 -16 -8 -35.5t-2 -40.5q0 -41 5 -77t13 -64q8 -33 19 -62l-287 -2q-10 33 -18 72q-6 35 -11.5 81t-5.5 103 q0 76 23.5 135.5t60.5 107.5t78 87t78 76t60.5 73.5t23.5 79.5q0 33 -10.5 52.5t-23.5 30t-28.5 12.5t-25.5 2q-39 0 -78 -22.5t-72 -51.5q-37 -33 -73 -72zM270 131q0 59 42 100t98 41q59 0 100 -41t41 -100q0 -55 -41 -97t-100 -42q-55 0 -97.5 42t-42.5 97z"/>
<glyph unicode="@" horiz-adv-x="1863" d="M113 719q0 180 71.5 332.5t194.5 264t287.5 174t349.5 62.5q135 0 267 -39.5t235.5 -117.5t168 -195t64.5 -272q0 -143 -57.5 -265t-161.5 -212q-59 -45 -131 -73t-146 -28q-72 0 -129 32t-61 118q-51 -74 -113.5 -112t-152.5 -38q-135 0 -207 79t-72 220q0 106 33 197.5 t90 158t132 103.5t161 37q84 0 137 -31t82 -98l49 100h139l-129 -516q-6 -23 -8 -33t-2 -18q0 -29 21.5 -49.5t58.5 -20.5q45 0 94 23.5t95 77.5q68 68 98.5 155.5t30.5 192.5q0 106 -41 195t-119 151.5t-188.5 97.5t-247.5 35q-150 0 -285 -53.5t-236.5 -147.5t-162 -223 t-60.5 -281q0 -125 52.5 -230t142.5 -182t214 -120t265 -43q150 0 289 30.5t258 114.5l59 -79q-268 -209 -596 -209q-160 0 -310.5 47t-266 140t-186 230.5t-70.5 317.5zM688 649q0 -90 37 -139t113 -49q74 0 138 59.5t89 157.5l37 145q6 31 6 60q0 78 -46 115.5t-106 37.5 q-55 0 -104 -30.5t-86 -84t-57.5 -124t-20.5 -148.5z"/>
<glyph unicode="A" horiz-adv-x="1536" d="M43 0l612 1536h224l616 -1536h-313l-121 276q-4 10 -17 11h-555q-12 0 -16 -11l-115 -276h-315zM588 565q0 -6 8 -6h342q8 0 8 8q0 4 -2 6l-170 433q-2 2 -2 4l-4 4q-4 0 -4 -4q-2 -2 -2 -4l-172 -433q-2 -2 -2 -8z"/>
<glyph unicode="B" horiz-adv-x="1169" d="M117 0v1536h440q12 0 18 -2q86 -6 158 -41t124 -90t82 -128t30 -155q0 -78 -23.5 -146.5t-64.5 -123.5q82 -66 130 -162t48 -211q0 -98 -37 -184t-99.5 -150.5t-147.5 -102.5t-183 -40h-475zM410 305q0 -12 12 -12h160q39 0 72.5 16.5t58 43t39 62.5t14.5 74 q0 39 -14.5 75t-39 62.5t-58 42t-72.5 15.5h-160q-12 0 -12 -12v-367zM410 948q0 -12 12 -12h127q61 4 100 51.5t39 106.5t-43 104t-108 45h-115q-12 0 -12 -12v-283z"/>
<glyph unicode="C" horiz-adv-x="1460" d="M111 768q0 162 61 305.5t167.5 250t249 167.5t306.5 61q113 0 199 -22.5t147.5 -52t97 -57t45.5 -36.5l-180 -233q-63 51 -142 80t-167 29q-104 -4 -194.5 -43t-156 -104.5t-103.5 -154t-38 -190.5t41 -189t110 -153t158 -104.5t183 -45.5q88 0 167 29t142 80l180 -233 q-10 -10 -45.5 -37t-97 -56.5t-147.5 -52t-199 -22.5q-164 0 -306.5 61t-249 167.5t-167.5 249t-61 306.5z"/>
<glyph unicode="D" horiz-adv-x="1503" d="M117 0v1536h504q160 0 301 -61.5t245.5 -166t165 -243.5t60.5 -297t-60.5 -297t-165 -243.5t-246 -166t-300.5 -61.5h-504zM410 305q0 -12 12 -12h199q104 0 192 34.5t151.5 97t99.5 151t36 192.5t-34 192.5t-95.5 151t-147.5 97t-190 34.5h-211q-12 0 -12 -12v-926z"/>
<glyph unicode="E" horiz-adv-x="1079" d="M117 0v1536h844v-293h-539q-12 0 -12 -12v-301q0 -12 12 -12h539v-293h-539q-12 0 -12 -13v-307q0 -12 12 -12h539v-293h-844z"/>
<glyph unicode="F" horiz-adv-x="1064" d="M117 0v1536h846v-293h-541q-12 0 -12 -12v-301q0 -12 12 -12h541v-293h-541q-12 0 -12 -13v-612h-293z"/>
<glyph unicode="G" horiz-adv-x="1638" d="M113 768q0 162 61.5 305.5t168 250t248.5 167.5t306 61q113 0 199 -22.5t147.5 -52t97 -57t45.5 -36.5l-180 -233q-63 51 -142 80t-167 29q-102 0 -191.5 -39t-156 -105.5t-105 -156t-38.5 -191.5t38.5 -191.5t105 -156t156 -105.5t191.5 -39q55 0 111.5 18.5t101.5 51.5 t72.5 75t27.5 91q0 2 1 3t1 3q0 6 -8 6h-340v293h670l2 -246q0 -111 -41 -216t-122 -188t-200.5 -133t-275.5 -50q-164 0 -306 61t-248.5 167.5t-168 249t-61.5 306.5z"/>
<glyph unicode="H" horiz-adv-x="1343" d="M117 0v1536h293v-606q0 -12 12 -12h500q12 0 12 12v606h293v-1536h-293v612q0 12 -12 13h-500q-12 0 -12 -13v-612h-293z"/>
<glyph unicode="I" horiz-adv-x="526" d="M117 0v1536h293v-1536h-293z"/>
<glyph unicode="J" horiz-adv-x="964" d="M74 195l256 151q10 -35 40.5 -53.5t67.5 -18.5q53 0 91 39t38 95v1128h293v-1128q0 -88 -32.5 -166t-90 -135.5t-134.5 -90t-165 -32.5q-117 0 -214 56t-150 155z"/>
<glyph unicode="K" horiz-adv-x="1193" d="M117 0v1536h293v-328v-203.5t1 -104.5l1 -30q2 0 6 4l411 662h334l-463 -756q-4 -6 -4 -12q0 -8 4 -12l471 -756h-344q-127 205 -208.5 336t-128 205.5t-63.5 101.5t-17 25v-668h-293z"/>
<glyph unicode="L" horiz-adv-x="1024" d="M117 0v1538h293v-1221q0 -25 24 -24h490v-293h-807z"/>
<glyph unicode="M" horiz-adv-x="1789" d="M117 0v1536h385l391 -1073l391 1073h391v-1536h-289v1010q0 2 -2 -2t-12 -31t-33.5 -88.5t-66.5 -174t-108.5 -286.5t-159.5 -428h-224l-362 1018v-1018h-301z"/>
<glyph unicode="N" horiz-adv-x="1456" d="M117 0v1534l274 2l656 -973v238v733h292v-1534h-272l-657 973v-238v-735h-293z"/>
<glyph unicode="O" horiz-adv-x="1794" d="M113 768q0 162 61.5 305.5t168 250t248.5 167.5t306 61q162 0 305.5 -61t250 -167.5t167.5 -250t61 -305.5q0 -164 -61 -306.5t-167.5 -249t-250 -167.5t-305.5 -61q-164 0 -306 61t-248.5 167.5t-168 249t-61.5 306.5zM406 768q0 -102 38.5 -191.5t105 -156t156 -105.5 t191.5 -39t191.5 39t156 105.5t105.5 156t39 191.5t-39 191.5t-105.5 156t-156 105.5t-191.5 39t-191.5 -39t-156 -105.5t-105 -156t-38.5 -191.5z"/>
<glyph unicode="P" horiz-adv-x="1138" d="M117 0l2 1536h471q98 0 180 -36t141.5 -97.5t92 -145t32.5 -182.5q0 -98 -32.5 -183t-92 -149.5t-141.5 -101.5t-180 -37h-168q-12 0 -12 -12v-592h-293zM410 909q0 -12 12 -12h168q45 0 74.5 18.5t47 46t24.5 58.5t7 55q0 25 -7 53.5t-24.5 54t-47 43t-74.5 17.5h-168 q-12 0 -12 -12v-322z"/>
<glyph unicode="Q" horiz-adv-x="1794" d="M113 768q0 162 61.5 305.5t168 250t248.5 167.5t306 61q162 0 305.5 -61t250 -167.5t167.5 -250t61 -305.5q0 -137 -44 -259t-121 -222l118 -113l-217 -194l-15 14q-16 14 -35 32.5t-38.5 37t-30.5 28.5q-90 -53 -190 -80.5t-211 -27.5q-164 0 -306 61t-248.5 167.5 t-168 249t-61.5 306.5zM406 768q0 -102 38.5 -191.5t105 -156t156 -105.5t191.5 -39q96 0 190 39q-6 6 -27.5 28t-43.5 46q-27 27 -60 62l205 194l144 -149q41 59 62.5 127.5t21.5 144.5q0 102 -39 191.5t-105.5 156t-156 105.5t-191.5 39t-191.5 -39t-156 -105.5t-105 -156 t-38.5 -191.5z"/>
<glyph unicode="R" horiz-adv-x="1146" d="M117 0v1536h473q98 0 180 -36t141.5 -97.5t92 -145t32.5 -182.5q0 -156 -62.5 -255t-182.5 -161q-4 0 -5 -10l306 -649h-328l-287 623q-6 12 -18 12h-37q-12 0 -12 -12v-623h-293zM410 909q0 -12 12 -12h168q45 0 74.5 18.5t47 46t24.5 58.5t7 55q0 25 -7 53.5t-24.5 54 t-47 43t-74.5 17.5h-168q-12 0 -12 -12v-322z"/>
<glyph unicode="S" horiz-adv-x="1103" d="M113 307l233 101q31 -51 75 -92.5t126 -41.5q66 0 108.5 47.5t42.5 108.5q0 55 -15 91t-43 59.5t-68 38t-87 30.5q-80 25 -147.5 66t-117.5 96t-77.5 126t-27.5 155q0 104 31.5 188t90 143.5t141.5 92t185 32.5q55 0 114.5 -16t112 -48t93.5 -79t61 -111l-264 -127 q-25 53 -65 69.5t-70 16.5q-57 0 -97 -46t-40 -103q0 -45 22.5 -76t56 -53.5t70.5 -37.5t68 -28q96 -41 165.5 -86t113.5 -100t65.5 -127t21.5 -166q0 -92 -33.5 -174t-92 -142.5t-137.5 -95t-169 -34.5h-18q-131 0 -214 50t-130 111q-55 70 -84 162z"/>
<glyph unicode="T" horiz-adv-x="1193" d="M109 1243v293h976v-293h-331l-13 -10v-12v-1221h-292v1221v12q0 2 -3 4q-6 6 -8 6h-329z"/>
<glyph unicode="U" horiz-adv-x="1243" d="M115 436v1098h293v-1057q0 -45 20.5 -81t52 -61.5t70.5 -38.5t76 -13q41 0 78.5 14t66.5 39.5t46.5 59.5t17.5 73v1065h292v-1098q0 -98 -42 -180t-111.5 -141.5t-159.5 -92t-188 -32.5t-190.5 32.5t-164 92t-114.5 141.5t-43 180z"/>
<glyph unicode="V" horiz-adv-x="1413" d="M55 1536h314l331 -1012q0 -2 2 -4q0 -4 5 -4l4 4q0 2 2 4l334 1012h317l-547 -1536h-223z"/>
<glyph unicode="W" horiz-adv-x="1912" d="M86 1536h305q74 -289 118 -461t66.5 -263t28.5 -118.5t8 -27.5t6 4l228 866h229q74 -289 118 -461t66.5 -263t28.5 -118.5t8 -27.5t7 4l221 866h305l-416 -1536h-233q-74 285 -118 458t-68.5 265t-33 119.5t-8.5 25.5l-223 -868h-229z"/>
<glyph unicode="X" horiz-adv-x="1347" d="M25 0l469 756q4 8 4 12t-1 6l-3 6l-467 758h344l295 -481q2 -6 8 -6q4 0 8 6l295 479h348l-471 -756q-4 -6 -4 -12q0 -8 4 -12l471 -756h-348l-293 477q-4 6 -10 6q-8 0 -10 -6l-297 -477h-342z"/>
<glyph unicode="Y" horiz-adv-x="1216" d="M33 1536h323l246 -614q2 -6 6 -7q2 0 6 7l248 612h320l-426 -981v-553h-293v553z"/>
<glyph unicode="Z" horiz-adv-x="1200" d="M115 0v225q172 274 305 492q57 92 111.5 180t96.5 157.5t54 90.5l39 63q6 12 6 19q0 16 -35 16h-577v293h966v-227l-25 -42q-26 -42 -69 -111t-97 -156t-111.5 -179t-113 -182t-98.5 -160.5t-69.5 -117t-26.5 -52.5q0 -16 35 -16h575v-293h-966z"/>
<glyph unicode="[" horiz-adv-x="727" d="M117 1671h499v-246h-196q-10 0 -10 -12v-1456q0 -12 10 -12h196v-246h-495z"/>
<glyph unicode="\" horiz-adv-x="737" d="M84 1522l121 37l446 -1543l-121 -34z"/>
<glyph unicode="]" horiz-adv-x="727" d="M117 -55h196q10 0 11 12v1456q0 12 -11 12h-196v246h499l-4 -1972h-495v246z"/>
<glyph unicode="^" horiz-adv-x="1146" d="M45 723l447 813h163l447 -813h-244l-285 518l-280 -518h-248z"/>
<glyph unicode="_" horiz-adv-x="1372" d="M0 -131h1372v-145h-1372v145z"/>
<glyph unicode="`" horiz-adv-x="694" d="M109 1352l98 217l381 -162l-127 -199z"/>
<glyph unicode="a" horiz-adv-x="1202" d="M53 512q0 109 42 205t114 167.5t168 113.5t205 42q76 0 145.5 -20.5t128.5 -56.5l2 61h254v-1026l-256 61q-121 -75 -270 -75h-4q-109 0 -205 42t-168 113.5t-114 167.5t-42 205zM330 512q0 -53 19.5 -100t53 -81t79.5 -53.5t100 -19.5q53 0 99 19.5t80 53.5t53.5 81 t19.5 100t-19.5 100t-53.5 81t-80 53.5t-99 19.5t-99.5 -19.5t-80 -53.5t-53 -81t-19.5 -100z"/>
<glyph unicode="b" horiz-adv-x="1232" d="M92 0v1436h279v-461q55 31 118.5 48t135.5 17q109 0 205 -42t167.5 -113.5t113.5 -167.5t42 -205t-42 -205t-113.5 -167.5t-168 -113.5t-204.5 -42q-80 0 -149.5 21.5t-125.5 51.5zM373 512q0 -53 19.5 -100t53 -81t79.5 -53.5t100 -19.5q53 0 99 19.5t80 53.5t53.5 81 t19.5 100t-19.5 100t-53.5 81t-80 53.5t-99 19.5t-99.5 -19.5t-80 -53.5t-53 -81t-19.5 -100z"/>
<glyph unicode="c" horiz-adv-x="1126" d="M72 514q0 109 41 205t113.5 167.5t168.5 112.5t207 41q68 0 132.5 -18t120.5 -50t103.5 -74t77.5 -89l-207 -154q-18 16 -38.5 36t-46 35t-59.5 25.5t-79 10.5q-53 0 -98 -19.5t-79 -53.5t-53.5 -79t-19.5 -96q0 -53 19.5 -98t53.5 -79t79 -53.5t98 -19.5q72 0 123 34 t98 99l244 -123q-68 -129 -191.5 -209.5t-277.5 -80.5q-111 0 -207 41t-168.5 113.5t-113.5 168.5t-41 207z"/>
<glyph unicode="d" horiz-adv-x="1241" d="M92 512q0 109 42 205t113.5 167.5t168 113.5t205.5 42q72 0 135 -17t118 -48v459h279v-1434l-258 57q-55 -31 -125 -52t-149 -21q-109 0 -205.5 42t-168 113.5t-113.5 167.5t-42 205zM369 512q0 -53 19.5 -100t53 -81t79.5 -53.5t100 -19.5q53 0 99 19.5t80 53.5t53 81 t19 100t-19 100t-53 81t-80 53.5t-99 19.5t-99.5 -19.5t-80 -53.5t-53 -81t-19.5 -100z"/>
<glyph unicode="e" horiz-adv-x="1091" d="M57 514q0 109 41 205t113 166.5t168 111.5t205 41q119 0 204.5 -46t141 -117.5t82 -158.5t26.5 -171q0 -66 -16 -127h-655q-6 0 -7 -10q29 -66 89.5 -115t138.5 -49q96 0 166.5 28.5t124.5 55.5l14 6l92 -205q-37 -37 -86 -64.5t-101.5 -45t-106.5 -26.5t-103 -9 q-111 0 -207 41t-169 113.5t-114 168.5t-41 207zM365 629q0 -6 8 -6h364q8 0 8 4q0 51 -45.5 93t-117.5 42t-128.5 -35t-86.5 -92q0 -2 -1 -3t-1 -3z"/>
<glyph unicode="f" horiz-adv-x="972" d="M61 774v250h228v119q0 137 69.5 216t206.5 79h279v-242h-164q-55 0 -84 -18.5t-29 -77.5v-76h338v-250h-338v-774h-278v774h-228z"/>
<glyph unicode="g" horiz-adv-x="1245" d="M92 512q0 109 42 205t113.5 167.5t168 113.5t205.5 42q80 0 149.5 -21.5t124.5 -51.5l258 57v-915q0 -117 -44 -220.5t-121 -181.5t-180 -123t-222 -45q-102 0 -198.5 39t-168.5 105l174 186q37 -29 89.5 -54.5t111.5 -25.5q55 0 103 19.5t86 54.5t62.5 81t31.5 99l-3 4 v2q-55 -31 -118.5 -48t-134.5 -17q-109 0 -205.5 42t-168 113.5t-113.5 167.5t-42 205zM369 512q0 -53 19.5 -100t53 -81t79.5 -53.5t100 -19.5q53 0 99 19.5t80 53.5t53 81t19 100t-19 100t-53 81t-80 53.5t-99 19.5t-99.5 -19.5t-80 -53.5t-53 -81t-19.5 -100z"/>
<glyph unicode="h" horiz-adv-x="1095" d="M92 0v1436h279v-432q41 16 85 26t91 10q217 0 337 -117.5t120 -334.5v-588h-279v584q0 74 -52 126t-126 52t-126 -52.5t-52 -125.5v-584h-277z"/>
<glyph unicode="i" horiz-adv-x="462" d="M92 0v1026h279v-1026h-279zM92 1249q0 55 41 97.5t100 42.5q55 0 97.5 -42t42.5 -98q0 -59 -42 -100t-98 -41q-59 0 -100 41t-41 100z"/>
<glyph unicode="j" horiz-adv-x="462" d="M0 -184h68q25 10 24 55v1157h279v-1239q0 -68 -21.5 -116t-55.5 -77.5t-76 -43t-85 -13.5h-133v277zM92 1249q0 55 41 97.5t100 42.5q55 0 97.5 -42t42.5 -98q0 -59 -42 -100t-98 -41q-59 0 -100 41t-41 100z"/>
<glyph unicode="k" horiz-adv-x="958" d="M92 0v1538h279v-926q0 -6 2 -6t6 4l260 414h305l-311 -498q-4 -8 -4 -10q0 -4 4 -12l317 -504h-313q-86 137 -137 220t-80 128q-33 53 -45 74q-4 0 -4 -10v-412h-279z"/>
<glyph unicode="l" horiz-adv-x="462" d="M92 0v1434h279v-1434h-279z"/>
<glyph unicode="m" horiz-adv-x="1728" d="M90 0v1024l250 -39q45 31 99.5 43t107.5 12q100 0 179 -26.5t138 -75.5q121 102 318 102q217 0 336.5 -117.5t119.5 -334.5v-588h-278v584q0 74 -52.5 126t-125.5 52q-72 0 -123 -47t-55 -119v-596h-279v584q0 74 -52 126t-126 52q-72 0 -123 -47t-55 -119v-596h-279z "/>
<glyph unicode="n" horiz-adv-x="1091" d="M90 0v1024l250 -39q45 31 99.5 43t107.5 12q217 0 337 -117.5t120 -334.5v-588h-279v584q0 74 -52 126t-126 52q-72 0 -123 -47t-55 -119v-596h-279z"/>
<glyph unicode="o" horiz-adv-x="1191" d="M72 514q0 109 41 205t113.5 167.5t169 112.5t206.5 41q109 0 205 -41t168 -112.5t112.5 -167.5t40.5 -205q0 -111 -40.5 -207t-112.5 -168.5t-168 -113.5t-205 -41q-111 0 -207 41t-168.5 113.5t-113.5 168.5t-41 207zM352 514q0 -53 19.5 -98t53.5 -79t79 -53.5 t98 -19.5q51 0 96 19.5t79 53.5t53.5 79t19.5 98q0 51 -19.5 96t-53.5 79t-79 53.5t-96 19.5q-53 0 -98 -19.5t-79 -53.5t-53.5 -79t-19.5 -96z"/>
<glyph unicode="p" horiz-adv-x="1230" d="M92 -420v1444l258 -57q55 31 125 52t150 21q109 0 205 -42t167.5 -113.5t113.5 -167.5t42 -205t-42 -205t-113.5 -167.5t-168 -113.5t-204.5 -42q-72 0 -135.5 17t-118.5 48v-469h-279zM373 512q0 -53 19.5 -100t53 -81t79.5 -53.5t100 -19.5q53 0 99 19.5t80 53.5 t53.5 81t19.5 100t-19.5 100t-53.5 81t-80 53.5t-99 19.5t-99.5 -19.5t-80 -53.5t-53 -81t-19.5 -100z"/>
<glyph unicode="q" horiz-adv-x="1241" d="M92 512q0 109 42 205t113.5 167.5t168 113.5t205.5 42q80 0 149.5 -21.5t124.5 -51.5l258 57v-1444h-279v469q-55 -31 -118.5 -48t-134.5 -17q-109 0 -205.5 42t-168 113.5t-113.5 167.5t-42 205zM369 512q0 -53 19.5 -100t53 -81t79.5 -53.5t100 -19.5q53 0 99 19.5 t80 53.5t53 81t19 100t-19 100t-53 81t-80 53.5t-99 19.5t-99.5 -19.5t-80 -53.5t-53 -81t-19.5 -100z"/>
<glyph unicode="r" horiz-adv-x="757" d="M90 0v1024l250 -39q45 31 99.5 43t107.5 12h145v-280h-145q-72 0 -123 -46t-55 -118v-596h-279z"/>
<glyph unicode="s" horiz-adv-x="735" d="M59 205l193 117q27 -23 45 -47.5t57 -24.5q18 0 38 17.5t20 41.5q0 35 -32 61.5t-61 41.5q-12 4 -18 8q-29 14 -67.5 35.5t-74.5 57.5t-61.5 89t-25.5 129q0 141 82 225t223 84q80 -2 133 -36.5t86 -77.5q37 -51 61 -113l-190 -100q-10 29 -28.5 46t-53.5 17 q-18 0 -36.5 -15.5t-18.5 -39.5q0 -33 24.5 -54.5t62.5 -43t82 -47t81.5 -62.5t62.5 -92t25 -135q0 -63 -23.5 -118.5t-63.5 -96.5t-93.5 -64.5t-114.5 -23.5q-88 0 -147.5 34.5t-96.5 75.5q-43 49 -70 111z"/>
<glyph unicode="t" horiz-adv-x="884" d="M68 774v250h241v295h279v-295h235v-250h-235v-774h-279v774h-241z"/>
<glyph unicode="u" horiz-adv-x="1095" d="M90 436v588h279v-584q0 -74 52 -126t126 -52q72 0 123 47t55 119v596h279v-1026l-250 41q-45 -31 -99.5 -43t-107.5 -12q-217 0 -337 117.5t-120 334.5z"/>
<glyph unicode="v" horiz-adv-x="978" d="M27 1024h297l161 -549v-4q0 -4 4 -4l5 4q0 2 2 4l159 549h299l-356 -1024h-215z"/>
<glyph unicode="w" horiz-adv-x="1476" d="M25 1024h290q47 -190 75 -308t43.5 -182.5t20.5 -86t7 -21.5t6 4l162 592h217q55 -184 88 -299t50 -178.5t23.5 -86t8.5 -22.5t6 4l133 584h291l-277 -1024h-235l-203 569q-51 -154 -92 -276q-18 -53 -35.5 -103.5t-31 -91.5t-22.5 -67.5t-11 -30.5h-238z"/>
<glyph unicode="x" horiz-adv-x="1054" d="M37 0l319 502q4 8 4 10q0 4 -4 12l-313 500h332l143 -276q2 -6 8 -7q4 0 9 7l143 276h332l-312 -500q-4 -4 -4 -12q0 -6 4 -10l320 -502h-338l-143 279q-4 4 -11 4q-8 0 -8 -4l-143 -279h-338z"/>
<glyph unicode="y" horiz-adv-x="976" d="M27 1024h299l159 -549q2 -2 2 -4q0 -4 2 -4l5 4q0 2 2 4l159 549h295l-493 -1448h-297l180 512q2 6 2 18q0 10 -2 17z"/>
<glyph unicode="z" horiz-adv-x="874" d="M80 0v219q98 137 176 248q33 47 63.5 92t55 80l31.5 45l20 33q8 10 8 16q0 16 -35 17h-319v274h715v-209l-26 -37t-65.5 -93t-87 -121.5t-87.5 -124t-66.5 -100.5t-26.5 -48q0 -14 31 -15h328v-276h-715z"/>
<glyph unicode="{" horiz-adv-x="792" d="M115 598v199q106 8 153 72.5t47 199.5v260q0 125 18.5 201t90.5 121q45 27 108.5 36t149.5 9l2 -176q-49 -4 -79 -18.5t-47 -41t-22.5 -67.5t-5.5 -99v-262q0 -72 -8 -125t-31.5 -93t-65.5 -67.5t-110 -46.5q-8 0 -8 -4t8 -4q68 -18 110 -46t65.5 -67.5t31.5 -94 t8 -124.5v-262q0 -57 5.5 -98t22.5 -67.5t47 -41t79 -18.5l-2 -176q-86 0 -149.5 9t-108.5 36q-37 23 -58.5 52.5t-32.5 68.5t-14.5 88t-3.5 112v261q0 135 -47 199.5t-153 74.5z"/>
<glyph unicode="|" horiz-adv-x="466" d="M117 0v1536h233v-1536h-233z"/>
<glyph unicode="}" horiz-adv-x="802" d="M115 -127q49 4 78.5 18.5t47 41t22.5 67.5t5 98v262q0 70 8.5 124.5t32 94t65.5 67.5t109 46q8 0 9 4q0 4 -9 4q-68 18 -109.5 46t-65 68t-32 93.5t-8.5 124.5v262q0 57 -5 98.5t-22.5 68t-47 41t-78.5 18.5l2 176q86 0 149.5 -9.5t108.5 -35.5q72 -45 90 -121t18 -201 v-260q0 -135 47.5 -199.5t153.5 -72.5v-199q-106 -10 -153.5 -74.5t-47.5 -199.5v-261q0 -63 -3 -112t-14 -88t-32.5 -69t-58.5 -52q-45 -27 -108.5 -36t-149.5 -9z"/>
<glyph unicode="~" horiz-adv-x="1290" d="M111 354l2 248q10 4 39.5 15.5t70.5 23.5t91.5 21.5t103.5 9.5q49 0 112.5 -12.5t125 -27t111.5 -26.5t73 -12q57 0 116.5 12t108.5 29q57 18 113 41v-223q-10 -10 -42 -25.5t-79 -30t-104.5 -26t-121.5 -11.5q-43 0 -86 12.5t-92 28t-105 27.5t-124 12q-59 0 -114.5 -13 t-100.5 -30q-53 -20 -98 -43z"/>
<glyph unicode="¡" horiz-adv-x="462" d="M92 1397q0 -59 42 -100t97 -41q59 0 100.5 41t41.5 100q0 55 -41 97t-101 42q-55 0 -97 -42t-42 -97zM94 -8h279v1190h-279v-1190z"/>
<glyph unicode="¢" horiz-adv-x="1153" d="M72 514q0 90 28.5 172t79.5 148.5t123 114.5t156 71v197h233v-187q111 -20 201 -81.5t143 -139.5l-200 -143q-29 29 -60 61.5t-84 48.5v-524q80 31 142 113q8 8 14 20l223 -111q-59 -111 -157.5 -185.5t-221.5 -96.5v-166h-233v176q-84 23 -156 71t-123 115.5 t-79.5 150.5t-28.5 175zM326 514q0 -78 36.5 -140.5t96.5 -97.5v476q-59 -37 -96 -99.5t-37 -138.5z"/>
<glyph unicode="£" horiz-adv-x="1327" d="M115 678v246h100q-8 35 -15 69.5t-7 69.5q0 104 36.5 194.5t102 156t156 102t194.5 36.5q121 0 214 -37.5t163 -107.5l-219 -197q-27 27 -69 37t-85 10t-80 -14t-62.5 -38.5t-41 -57.5t-15.5 -68t9.5 -68.5t35.5 -86.5h418v-246h-323q37 -61 62.5 -119.5t25.5 -128.5 q0 -27 -2 -44t-5 -31.5t-10.5 -28t-15.5 -29.5h86q92 0 134 39t46 117v12h269q0 -100 -38 -185t-105.5 -147.5t-160 -97.5t-198.5 -35h-512v295h123q37 0 65.5 26.5t28.5 84.5v10q0 18 -12.5 50t-31 68.5t-42 74.5t-49.5 69h-170z"/>
<glyph unicode="¤" horiz-adv-x="1443" d="M115 1178l125 125l202 -203q72 41 137.5 65.5t149.5 24.5q76 0 140.5 -26.5t127.5 -63.5l203 200l125 -122l-199 -199q41 -63 67 -134t26 -149q0 -76 -25 -142.5t-64 -131.5l199 -199l-123 -125l-198 199q-131 -94 -289 -94q-74 0 -145.5 27.5t-135.5 64.5l-198 -197 l-123 125l196 199q-41 59 -64.5 131t-23.5 145q0 78 27 145.5t65 133.5zM434 698q0 -59 22.5 -111t62.5 -91t92.5 -62.5t111.5 -23.5t111.5 22.5t91.5 62.5t61.5 92t22.5 111t-22.5 111.5t-61.5 92.5t-91.5 63.5t-111.5 23.5t-111.5 -23.5t-92.5 -63.5t-62.5 -92t-22.5 -112 z"/>
<glyph unicode="¥" horiz-adv-x="1359" d="M106 571v166h349l-86 193h-263v166h191l-191 440h322l246 -614q2 -6 6 -7q2 0 6 7l246 612h319l-188 -438h188v-166h-260l-84 -193h344v-166h-415l-9 -22v-549h-292v549l-11 22h-418z"/>
<glyph unicode="¦" horiz-adv-x="464" d="M117 -20v638h233v-638h-233zM117 932v645h233v-645h-233z"/>
<glyph unicode="§" horiz-adv-x="1316" d="M113 600q0 119 45 199t137 153q-47 51 -71.5 97.5t-24.5 117.5q0 92 35.5 164t97 121t142.5 74.5t171 25.5q92 0 190.5 -30.5t178.5 -106.5v-311q-45 49 -99 88q-47 35 -106 62.5t-127 27.5q-59 0 -105.5 -39t-46.5 -102q0 -43 30 -70t77 -48.5t108.5 -41.5t124.5 -53 q63 -27 124 -57.5t108 -71.5t75.5 -94.5t28.5 -124.5q0 -66 -14 -118t-42 -95t-69 -79t-92 -73q41 -53 64.5 -101t23.5 -114q0 -90 -35.5 -159.5t-96 -118t-138.5 -74t-162 -25.5q-86 0 -154.5 16.5t-122 43t-92 60.5t-67.5 69q-68 82 -94 188h334q18 -31 40 -53 q20 -20 50 -36.5t69 -16.5q25 0 51.5 7t48 22.5t36 37t14.5 49.5q0 43 -28 74t-73 55.5t-103 45t-118 44.5q-61 25 -118.5 54.5t-103.5 72.5t-73.5 102.5t-27.5 141.5zM420 635q0 -51 27.5 -83t76.5 -54l258 -109q45 27 75 60.5t30 89.5q0 55 -45 93t-107 60l-225 88 q-37 -29 -63.5 -63.5t-26.5 -81.5z"/>
<glyph unicode="¨" horiz-adv-x="927" d="M115 1399q0 59 40 98t99 39q57 0 97 -39t40 -98q0 -57 -40 -97t-97 -40q-59 0 -99 40t-40 97zM537 1399q0 59 39.5 98t97.5 39q59 0 99 -39t40 -98q0 -57 -40 -97t-99 -40q-57 0 -97 40t-40 97z"/>
<glyph unicode="©" horiz-adv-x="1710" d="M113 737q0 154 59 289t160.5 236.5t237 160t286.5 58.5q156 0 291 -58.5t235.5 -160t157.5 -236.5t57 -289q0 -152 -57 -287t-157.5 -236t-235.5 -159.5t-291 -58.5q-152 0 -287 58.5t-236.5 159.5t-160.5 236t-59 287zM225 737q0 -131 49.5 -245.5t135.5 -199.5 t200.5 -134t245.5 -49t247 49t203 134t138 199.5t51 245.5t-51 246t-138 201t-203 135t-247 49t-245.5 -49t-200.5 -135t-135.5 -201t-49.5 -246zM481 737q0 80 30 150.5t82 123t122.5 82t150.5 29.5q68 0 132.5 -18.5t115.5 -61.5l-100 -122q-29 25 -68 34t-80 9 q-47 0 -88 -17.5t-71.5 -48.5t-48 -71t-17.5 -85q0 -47 17.5 -88t48 -71.5t71.5 -48t88 -17.5q41 0 80 9.5t68 33.5l100 -123q-51 -43 -115.5 -61.5t-132.5 -18.5q-80 0 -150.5 30t-122.5 82t-82 120.5t-30 148.5z"/>
<glyph unicode="ª" horiz-adv-x="860" d="M70 1130q0 74 27.5 138.5t75.5 113t112.5 76t138.5 27.5q51 0 97 -14.5t87 -38.5l2 53h172v-699l-174 41q-84 -51 -184 -51q-74 0 -138.5 27.5t-112.5 76t-75.5 112.5t-27.5 138zM256 1130q0 -72 48 -120.5t120 -48.5t121 49t49 120q0 72 -49 121t-121 49t-120 -49 t-48 -121z"/>
<glyph unicode="«" horiz-adv-x="1067" d="M96 561l271 432l196 -141l-194 -291l188 -287l-180 -149zM502 561l270 432l197 -141l-195 -291l189 -287l-181 -149z"/>
<glyph unicode="¬" horiz-adv-x="1290" d="M100 625v233h1074v-698h-234v465h-840z"/>
<glyph unicode="­" horiz-adv-x="878" d="M115 471v234h649v-234h-649z"/>
<glyph unicode="®" horiz-adv-x="1792" d="M113 768q0 160 62.5 303t169 249.5t248.5 169t302 62.5q166 0 308.5 -62.5t249 -169t166.5 -249.5t60 -303t-60 -303t-166.5 -249.5t-249 -169t-308.5 -62.5q-160 0 -302 62.5t-248.5 169t-169 249.5t-62.5 303zM231 768q0 -139 52.5 -260t142.5 -211t211 -142.5 t258 -52.5t261 52.5t216 142.5t146.5 211t54.5 260q0 137 -54.5 259t-146.5 212t-216 142.5t-261 52.5t-258 -52.5t-211 -142.5t-142.5 -212t-52.5 -259zM653 309v914h275q63 0 113.5 -20.5t84 -57.5t52 -87t18.5 -108q0 -115 -55.5 -184.5t-147.5 -79.5q-2 0 -2 -6 l223 -371h-182q-68 115 -109.5 185.5t-65 108.5t-31.5 51l-9 12q-6 0 -6 -4v-353h-158zM811 819q0 -8 8 -8h103q57 0 85.5 43t28.5 96q0 51 -28.5 91t-85.5 40h-103q-8 0 -8 -6v-256z"/>
<glyph unicode="¯" horiz-adv-x="876" d="M115 1262v233h645v-233h-645z"/>
<glyph unicode="°" horiz-adv-x="884" d="M113 1153q0 68 25.5 128t70.5 105.5t105.5 71t127.5 25.5q68 0 128.5 -25.5t105.5 -71t70.5 -105.5t25.5 -128t-25.5 -128t-70.5 -105.5t-105.5 -71t-128.5 -25.5t-128 25.5t-105 71t-70.5 105.5t-25.5 128zM252 1153q0 -39 15.5 -74t41 -60.5t60 -40.5t73.5 -15t74 15 t60.5 40.5t41 60.5t15.5 74t-15.5 74t-41 60.5t-60.5 40.5t-74 15t-73.5 -15t-60 -40.5t-41 -60.5t-15.5 -74z"/>
<glyph unicode="±" horiz-adv-x="1306" d="M111 12v234h1085v-234h-1085zM111 567v234h426v252h233v-252h426v-234h-426v-252h-233v252h-426z"/>
<glyph unicode="²" horiz-adv-x="735" d="M111 1348q29 90 106.5 147t175.5 57q61 0 116.5 -23.5t96.5 -63.5t64.5 -95t23.5 -117q0 -66 -25.5 -119t-72.5 -100q-16 -16 -61.5 -55t-94.5 -80q-57 -49 -125 -104q0 -4 4 -4h377v-177h-581l-2 213q4 6 30.5 31t64.5 59.5t81 73.5t81 74t65.5 60.5t35.5 31.5 q20 18 32.5 45t12.5 51q0 51 -35 87t-88 36q-41 0 -72.5 -24.5t-44.5 -61.5z"/>
<glyph unicode="³" horiz-adv-x="733" d="M74 862l164 23q10 -47 44.5 -76t82.5 -29q53 0 88.5 41t35.5 99q0 53 -33.5 93t-80.5 52l-84 22v132l78 20q23 6 35 21.5t12 52.5q0 29 -19.5 49t-48.5 20q-27 0 -50.5 -12t-41.5 -27q-23 -18 -41 -38l-68 135q31 53 83.5 83.5t117.5 30.5q47 0 89 -18t74 -50t50.5 -74 t18.5 -91q0 -84 -56 -145q-4 -4 -4 -7q0 -4 4 -4q63 -43 102.5 -109.5t39.5 -150.5q0 -61 -24 -116.5t-64.5 -97.5t-96 -65.5t-119.5 -23.5q-76 0 -138 35t-105 94q-18 25 -31.5 59.5t-13.5 71.5z"/>
<glyph unicode="´" horiz-adv-x="694" d="M109 1407l380 162l99 -217l-352 -144z"/>
<glyph unicode="¶" horiz-adv-x="1339" d="M106 1094q0 111 39 181.5t106.5 111t160 56t198.5 15.5h613v-1892h-234v1657h-192v-1657h-234v1177q-223 0 -340 92.5t-117 258.5z"/>
<glyph unicode="·" horiz-adv-x="464" d="M113 770q0 47 34.5 86t90.5 39q47 0 80.5 -39t33.5 -86t-33.5 -81t-80.5 -34q-55 0 -90 34t-35 81z"/>
<glyph unicode="¸" horiz-adv-x="630" d="M117 -283q23 -8 45 -14q20 -6 41.5 -10t42.5 -4h18q25 0 42.5 11t17.5 46q0 41 -21.5 49t-48.5 8h-117l142 197h122l-79 -104q10 0 22 3t23 3q66 0 109.5 -41t43.5 -115q0 -49 -21.5 -86t-54 -60.5t-73.5 -34.5t-78 -11q-12 0 -37 2t-50.5 7t-50 11t-38.5 14v129z"/>
<glyph unicode="¹" horiz-adv-x="493" d="M-47 1370v166h323v-922h-176v750q0 6 -8 6h-139z"/>
<glyph unicode="º" horiz-adv-x="847" d="M72 1128q0 74 27.5 137.5t75.5 111.5t113.5 76t139.5 28t137.5 -28t111.5 -76t75.5 -111.5t27.5 -137.5t-27.5 -139t-75.5 -113.5t-111.5 -76t-137.5 -27.5t-139.5 27.5t-113.5 76t-75.5 113.5t-27.5 139zM260 1128q0 -72 48 -119.5t120 -47.5q70 0 118 48t48 119 q0 70 -48 118t-118 48q-72 0 -120 -48t-48 -118z"/>
<glyph unicode="»" horiz-adv-x="1067" d="M96 266l195 291l-189 287l181 149l280 -436l-270 -432zM502 266l194 291l-188 287l180 149l281 -436l-271 -432z"/>
<glyph unicode="¼" horiz-adv-x="1683" d="M88 1356v180h348v-1001h-190v813q0 8 -8 8h-150zM496 2l442 1548l123 -28l-440 -1536zM895 162v186q113 178 201 322q37 61 73.5 118.5t65.5 103.5t46 74.5t19 30.5h195v-649h94v-194h-94v-154h-190v154q0 8 -9 8h-401zM1104 344q0 -6 4 -6h188q8 0 9 8q0 35 -1 95.5 t-1 119.5q-2 68 -3 144v-23q-74 -127 -113.5 -194.5t-58.5 -100.5z"/>
<glyph unicode="½" horiz-adv-x="1712" d="M88 1356v180h348v-1001h-190v813q0 8 -8 8h-150zM496 2l442 1548l123 -28l-440 -1536zM1004 780q31 94 113.5 155.5t187.5 61.5q66 0 124 -24.5t101 -67.5t68.5 -101.5t25.5 -123.5q0 -72 -26.5 -127t-77.5 -107q-16 -16 -64.5 -58t-101.5 -85q-61 -53 -133 -110 q0 -4 4 -5h401v-188h-618l-2 227q6 6 33.5 32t67.5 62.5t86 78.5t86 79t69.5 63.5t37.5 35.5q23 20 36.5 47.5t13.5 54.5q0 53 -38 92t-93 39q-43 0 -77 -26.5t-48 -65.5z"/>
<glyph unicode="¾" horiz-adv-x="1884" d="M74 797l176 24q10 -49 47 -80.5t88 -31.5q55 0 94 44t39 105q0 57 -36 99t-87 57l-88 24v140l82 22q25 6 38 22.5t13 57.5q0 29 -21.5 51.5t-49.5 22.5q-29 0 -54.5 -13.5t-46.5 -29.5q-23 -18 -43 -41l-71 145q33 55 88 89t125 34q51 0 96 -19.5t78.5 -53t53 -80 t19.5 -97.5q0 -92 -57 -155q-4 -8 -4 -9v-2q0 -2 4 -2q68 -45 110 -116.5t42 -159.5q0 -68 -26 -126.5t-70 -103.5t-103 -70.5t-127 -25.5q-82 0 -147.5 38t-112.5 99q-20 29 -34.5 65t-14.5 77zM666 2l442 1548l123 -28l-440 -1536zM1065 162v186q113 178 201 322 q37 61 73.5 118.5t65.5 103.5t46 74.5t19 30.5h195v-649h94v-194h-94v-154h-190v154q0 8 -9 8h-401zM1274 344q0 -6 4 -6h188q8 0 9 8q0 35 -1 95.5t-1 119.5q-2 68 -3 144v-23q-74 -127 -113.5 -194.5t-58.5 -100.5z"/>
<glyph unicode="¿" horiz-adv-x="921" d="M55 364q0 88 19.5 150.5t50.5 107.5t69.5 78t74.5 63.5t66.5 65.5t47.5 82q6 16 8 35.5t2 40.5q0 41 -5 77t-13 64q-8 33 -19 62l287 2q10 -33 18 -72q6 -35 11.5 -81t5.5 -103q0 -76 -23.5 -135.5t-60.5 -107.5t-78 -87t-78 -76t-60.5 -73.5t-23.5 -79.5 q0 -33 10.5 -52.5t23.5 -30t28.5 -12.5t25.5 -2q39 0 78 22.5t72 51.5q37 33 73 72l181 -185q-53 -70 -121 -124q-57 -47 -132 -86t-161 -39q-174 0 -275.5 92t-101.5 280zM350 1413q0 55 41 97t100 42q55 0 97.5 -42t42.5 -97q0 -59 -42 -100t-98 -41q-59 0 -100 41 t-41 100z"/>
<glyph unicode="À" horiz-adv-x="1536" d="M43 0l612 1536h224l616 -1536h-313l-121 276q-4 10 -17 11h-555q-12 0 -16 -11l-115 -276h-315zM529 1762l98 217l381 -162l-127 -199zM588 565q0 -6 8 -6h342q8 0 8 8q0 4 -2 6l-170 433q-2 2 -2 4l-4 4q-4 0 -4 -4q-2 -2 -2 -4l-172 -433q-2 -2 -2 -8z"/>
<glyph unicode="Á" horiz-adv-x="1536" d="M43 0l612 1536h224l616 -1536h-313l-121 276q-4 10 -17 11h-555q-12 0 -16 -11l-115 -276h-315zM529 1817l380 162l99 -217l-352 -144zM588 565q0 -6 8 -6h342q8 0 8 8q0 4 -2 6l-170 433q-2 2 -2 4l-4 4q-4 0 -4 -4q-2 -2 -2 -4l-172 -433q-2 -2 -2 -8z"/>
<glyph unicode="Â" horiz-adv-x="1536" d="M43 0l612 1536h224l616 -1536h-313l-121 276q-4 10 -17 11h-555q-12 0 -16 -11l-115 -276h-315zM456 1856l308 119l313 -131l-131 -199l-182 80l-179 -68zM588 565q0 -6 8 -6h342q8 0 8 8q0 4 -2 6l-170 433q-2 2 -2 4l-4 4q-4 0 -4 -4q-2 -2 -2 -4l-172 -433 q-2 -2 -2 -8z"/>
<glyph unicode="Ã" horiz-adv-x="1536" d="M43 0l612 1536h224l616 -1536h-313l-121 276q-4 10 -17 11h-555q-12 0 -16 -11l-115 -276h-315zM426 1647l2 248q10 4 28.5 14t44 20.5t56 17.5t65.5 7t71 -8t68.5 -17.5t62.5 -17.5t52 -8q37 0 78 12.5t76 28.5q39 18 78 43v-223q-12 -8 -31 -23.5t-43.5 -31t-56 -27.5 t-70.5 -12q-31 0 -66.5 8t-72.5 18t-73 18.5t-67 8.5q-59 0 -98 -12.5t-61 -26.5q-27 -16 -43 -37zM588 565q0 -6 8 -6h342q8 0 8 8q0 4 -2 6l-170 433q-2 2 -2 4l-4 4q-4 0 -4 -4q-2 -2 -2 -4l-172 -433q-2 -2 -2 -8z"/>
<glyph unicode="Ä" horiz-adv-x="1536" d="M43 0l612 1536h224l616 -1536h-313l-121 276q-4 10 -17 11h-555q-12 0 -16 -11l-115 -276h-315zM418 1809q0 59 40 98t99 39q57 0 97 -39t40 -98q0 -57 -40 -97t-97 -40q-59 0 -99 40t-40 97zM588 565q0 -6 8 -6h342q8 0 8 8q0 4 -2 6l-170 433q-2 2 -2 4l-4 4 q-4 0 -4 -4q-2 -2 -2 -4l-172 -433q-2 -2 -2 -8zM840 1809q0 59 39.5 98t97.5 39q59 0 99 -39t40 -98q0 -57 -40 -97t-99 -40q-57 0 -97 40t-40 97z"/>
<glyph unicode="Å" horiz-adv-x="1536" d="M43 0l612 1536h224l616 -1536h-313l-121 276q-4 10 -17 11h-555q-12 0 -16 -11l-115 -276h-315zM566 1799q0 86 58 144t144 58t144.5 -58t58.5 -144t-58.5 -144.5t-144.5 -58.5t-144 58.5t-58 144.5zM588 565q0 -6 8 -6h342q8 0 8 8q0 4 -2 6l-170 433q-2 2 -2 4l-4 4 q-4 0 -4 -4q-2 -2 -2 -4l-172 -433q-2 -2 -2 -8zM637 1799q0 -53 39 -92.5t92 -39.5t92 39t39 93q0 53 -38.5 92t-92.5 39q-53 0 -92 -39t-39 -92z"/>
<glyph unicode="Æ" horiz-adv-x="1908" d="M43 0l752 1536h1013v-293h-538q-12 0 -13 -12v-301q0 -12 13 -12h538v-293h-538q-12 0 -13 -13v-307q0 -12 13 -12h538v-293h-843v287h-445q-12 0 -16 -11l-146 -276h-315zM631 565q0 -6 8 -6h326v682q-4 0 -4 -4q-2 -2 -3 -4l-325 -660q-2 -2 -2 -8z"/>
<glyph unicode="Ç" horiz-adv-x="1460" d="M111 768q0 162 61 305.5t167.5 250t249 167.5t306.5 61q113 0 199 -22.5t147.5 -52t97 -57t45.5 -36.5l-180 -233q-63 51 -142 80t-167 29q-104 -4 -194.5 -43t-156 -104.5t-103.5 -154t-38 -190.5t41 -189t110 -153t158 -104.5t183 -45.5q88 0 167 29t142 80l180 -233 q-10 -10 -45.5 -37t-97 -56.5t-147.5 -52t-199 -22.5q-164 0 -306.5 61t-249 167.5t-167.5 249t-61 306.5zM529 -283q23 -8 45 -14q20 -6 41.5 -10t42.5 -4h18q25 0 42.5 11t17.5 46q0 41 -21.5 49t-48.5 8h-117l142 197h122l-79 -104q10 0 22 3t23 3q66 0 109.5 -41 t43.5 -115q0 -49 -21.5 -86t-54 -60.5t-73.5 -34.5t-78 -11q-12 0 -37 2t-50.5 7t-50 11t-38.5 14v129z"/>
<glyph unicode="È" horiz-adv-x="1079" d="M117 0v1536h844v-293h-539q-12 0 -12 -12v-301q0 -12 12 -12h539v-293h-539q-12 0 -12 -13v-307q0 -12 12 -12h539v-293h-844zM299 1762l98 217l381 -162l-127 -199z"/>
<glyph unicode="É" horiz-adv-x="1079" d="M117 0v1536h844v-293h-539q-12 0 -12 -12v-301q0 -12 12 -12h539v-293h-539q-12 0 -12 -13v-307q0 -12 12 -12h539v-293h-844zM299 1817l380 162l99 -217l-352 -144z"/>
<glyph unicode="Ê" horiz-adv-x="1079" d="M117 0v1536h844v-293h-539q-12 0 -12 -12v-301q0 -12 12 -12h539v-293h-539q-12 0 -12 -13v-307q0 -12 12 -12h539v-293h-844zM229 1856l308 119l313 -131l-131 -199l-182 80l-179 -68z"/>
<glyph unicode="Ë" horiz-adv-x="1079" d="M117 0v1536h844v-293h-539q-12 0 -12 -12v-301q0 -12 12 -12h539v-293h-539q-12 0 -12 -13v-307q0 -12 12 -12h539v-293h-844zM191 1809q0 59 40 98t99 39q57 0 97 -39t40 -98q0 -57 -40 -97t-97 -40q-59 0 -99 40t-40 97zM613 1809q0 59 39.5 98t97.5 39q59 0 99 -39 t40 -98q0 -57 -40 -97t-99 -40q-57 0 -97 40t-40 97z"/>
<glyph unicode="Ì" horiz-adv-x="526" d="M27 1762l98 217l381 -162l-127 -199zM117 0v1536h293v-1536h-293z"/>
<glyph unicode="Í" horiz-adv-x="526" d="M27 1817l380 162l99 -217l-352 -144zM117 0v1536h293v-1536h-293z"/>
<glyph unicode="Î" horiz-adv-x="526" d="M-45 1856l308 119l313 -131l-131 -199l-182 80l-179 -68zM117 0v1536h293v-1536h-293z"/>
<glyph unicode="Ï" horiz-adv-x="526" d="M-84 1809q0 59 40 98t99 39q57 0 97 -39t40 -98q0 -57 -40 -97t-97 -40q-59 0 -99 40t-40 97zM117 0v1536h293v-1536h-293zM338 1809q0 59 39.5 98t97.5 39q59 0 99 -39t40 -98q0 -57 -40 -97t-99 -40q-57 0 -97 40t-40 97z"/>
<glyph unicode="Ð" horiz-adv-x="1708" d="M111 612v234h208v690h504q160 0 301.5 -61.5t246 -166t164.5 -243.5t60 -297t-60 -297t-164.5 -243.5t-246 -166t-301.5 -61.5h-506l2 612h-208zM612 305q0 -12 13 -12h198q104 0 192.5 34.5t152 97t99.5 151t36 192.5t-34 192.5t-95.5 151t-147.5 97t-190 34.5h-211 q-12 0 -13 -12v-385h211v-234h-211v-307z"/>
<glyph unicode="Ñ" horiz-adv-x="1456" d="M117 0v1534l274 2l656 -973v238v733h292v-1534h-272l-657 973v-238v-735h-293zM387 1647l2 248q10 4 28.5 14t44 20.5t56 17.5t65.5 7t71 -8t68.5 -17.5t62.5 -17.5t52 -8q37 0 78 12.5t76 28.5q39 18 78 43v-223q-12 -8 -31 -23.5t-43.5 -31t-56 -27.5t-70.5 -12 q-31 0 -66.5 8t-72.5 18t-73 18.5t-67 8.5q-59 0 -98 -12.5t-61 -26.5q-27 -16 -43 -37z"/>
<glyph unicode="Ò" horiz-adv-x="1794" d="M113 768q0 162 61.5 305.5t168 250t248.5 167.5t306 61q162 0 305.5 -61t250 -167.5t167.5 -250t61 -305.5q0 -164 -61 -306.5t-167.5 -249t-250 -167.5t-305.5 -61q-164 0 -306 61t-248.5 167.5t-168 249t-61.5 306.5zM406 768q0 -102 38.5 -191.5t105 -156t156 -105.5 t191.5 -39t191.5 39t156 105.5t105.5 156t39 191.5t-39 191.5t-105.5 156t-156 105.5t-191.5 39t-191.5 -39t-156 -105.5t-105 -156t-38.5 -191.5zM658 1762l98 217l381 -162l-127 -199z"/>
<glyph unicode="Ó" horiz-adv-x="1794" d="M113 768q0 162 61.5 305.5t168 250t248.5 167.5t306 61q162 0 305.5 -61t250 -167.5t167.5 -250t61 -305.5q0 -164 -61 -306.5t-167.5 -249t-250 -167.5t-305.5 -61q-164 0 -306 61t-248.5 167.5t-168 249t-61.5 306.5zM406 768q0 -102 38.5 -191.5t105 -156t156 -105.5 t191.5 -39t191.5 39t156 105.5t105.5 156t39 191.5t-39 191.5t-105.5 156t-156 105.5t-191.5 39t-191.5 -39t-156 -105.5t-105 -156t-38.5 -191.5zM658 1817l380 162l99 -217l-352 -144z"/>
<glyph unicode="Ô" horiz-adv-x="1794" d="M113 768q0 162 61.5 305.5t168 250t248.5 167.5t306 61q162 0 305.5 -61t250 -167.5t167.5 -250t61 -305.5q0 -164 -61 -306.5t-167.5 -249t-250 -167.5t-305.5 -61q-164 0 -306 61t-248.5 167.5t-168 249t-61.5 306.5zM406 768q0 -102 38.5 -191.5t105 -156t156 -105.5 t191.5 -39t191.5 39t156 105.5t105.5 156t39 191.5t-39 191.5t-105.5 156t-156 105.5t-191.5 39t-191.5 -39t-156 -105.5t-105 -156t-38.5 -191.5zM585 1856l308 119l313 -131l-131 -199l-182 80l-179 -68z"/>
<glyph unicode="Õ" horiz-adv-x="1794" d="M113 768q0 162 61.5 305.5t168 250t248.5 167.5t306 61q162 0 305.5 -61t250 -167.5t167.5 -250t61 -305.5q0 -164 -61 -306.5t-167.5 -249t-250 -167.5t-305.5 -61q-164 0 -306 61t-248.5 167.5t-168 249t-61.5 306.5zM406 768q0 -102 38.5 -191.5t105 -156t156 -105.5 t191.5 -39t191.5 39t156 105.5t105.5 156t39 191.5t-39 191.5t-105.5 156t-156 105.5t-191.5 39t-191.5 -39t-156 -105.5t-105 -156t-38.5 -191.5zM555 1647l2 248q10 4 28.5 14t44 20.5t56 17.5t65.5 7t71 -8t68.5 -17.5t62.5 -17.5t52 -8q37 0 78 12.5t76 28.5 q39 18 78 43v-223q-12 -8 -31 -23.5t-43.5 -31t-56 -27.5t-70.5 -12q-31 0 -66.5 8t-72.5 18t-73 18.5t-67 8.5q-59 0 -98 -12.5t-61 -26.5q-27 -16 -43 -37z"/>
<glyph unicode="Ö" horiz-adv-x="1794" d="M113 768q0 162 61.5 305.5t168 250t248.5 167.5t306 61q162 0 305.5 -61t250 -167.5t167.5 -250t61 -305.5q0 -164 -61 -306.5t-167.5 -249t-250 -167.5t-305.5 -61q-164 0 -306 61t-248.5 167.5t-168 249t-61.5 306.5zM406 768q0 -102 38.5 -191.5t105 -156t156 -105.5 t191.5 -39t191.5 39t156 105.5t105.5 156t39 191.5t-39 191.5t-105.5 156t-156 105.5t-191.5 39t-191.5 -39t-156 -105.5t-105 -156t-38.5 -191.5zM547 1809q0 59 40 98t99 39q57 0 97 -39t40 -98q0 -57 -40 -97t-97 -40q-59 0 -99 40t-40 97zM969 1809q0 59 39.5 98 t97.5 39q59 0 99 -39t40 -98q0 -57 -40 -97t-99 -40q-57 0 -97 40t-40 97z"/>
<glyph unicode="×" horiz-adv-x="1175" d="M168 244l281 278l-275 275l166 164l272 -273l279 279l166 -166l-279 -279l275 -274l-164 -166l-277 276l-278 -280z"/>
<glyph unicode="Ø" horiz-adv-x="1794" d="M113 768q0 162 61.5 305.5t168 250t248.5 167.5t306 61q70 0 137 -12l31 98h141l-37 -135q113 -41 207 -113.5t162 -169t105.5 -211t37.5 -241.5q0 -164 -61 -306.5t-167.5 -249t-250 -167.5t-305.5 -61q-80 0 -162 16l-30 -96h-146l43 137q-109 43 -199 115.5 t-154.5 167t-100 208t-35.5 236.5zM406 768q0 -74 20 -140.5t57 -124t88.5 -102.5t112.5 -75l268 929q-14 2 -27.5 3.5t-27.5 1.5q-102 0 -191.5 -39t-156 -105.5t-105 -156t-38.5 -191.5zM817 283q37 -7 80 -7q102 0 191.5 39t156 105.5t105.5 156t39 191.5 q0 154 -84 274.5t-218 178.5z"/>
<glyph unicode="Ù" horiz-adv-x="1243" d="M115 436v1098h293v-1057q0 -45 20.5 -81t52 -61.5t70.5 -38.5t76 -13q41 0 78.5 14t66.5 39.5t46.5 59.5t17.5 73v1065h292v-1098q0 -98 -42 -180t-111.5 -141.5t-159.5 -92t-188 -32.5t-190.5 32.5t-164 92t-114.5 141.5t-43 180zM381 1762l98 217l381 -162l-127 -199z "/>
<glyph unicode="Ú" horiz-adv-x="1243" d="M115 436v1098h293v-1057q0 -45 20.5 -81t52 -61.5t70.5 -38.5t76 -13q41 0 78.5 14t66.5 39.5t46.5 59.5t17.5 73v1065h292v-1098q0 -98 -42 -180t-111.5 -141.5t-159.5 -92t-188 -32.5t-190.5 32.5t-164 92t-114.5 141.5t-43 180zM381 1817l380 162l99 -217l-352 -144z "/>
<glyph unicode="Û" horiz-adv-x="1243" d="M115 436v1098h293v-1057q0 -45 20.5 -81t52 -61.5t70.5 -38.5t76 -13q41 0 78.5 14t66.5 39.5t46.5 59.5t17.5 73v1065h292v-1098q0 -98 -42 -180t-111.5 -141.5t-159.5 -92t-188 -32.5t-190.5 32.5t-164 92t-114.5 141.5t-43 180zM311 1856l308 119l313 -131l-131 -199 l-182 80l-179 -68z"/>
<glyph unicode="Ü" horiz-adv-x="1243" d="M115 436v1098h293v-1057q0 -45 20.5 -81t52 -61.5t70.5 -38.5t76 -13q41 0 78.5 14t66.5 39.5t46.5 59.5t17.5 73v1065h292v-1098q0 -98 -42 -180t-111.5 -141.5t-159.5 -92t-188 -32.5t-190.5 32.5t-164 92t-114.5 141.5t-43 180zM273 1809q0 59 40 98t99 39 q57 0 97 -39t40 -98q0 -57 -40 -97t-97 -40q-59 0 -99 40t-40 97zM695 1809q0 59 39.5 98t97.5 39q59 0 99 -39t40 -98q0 -57 -40 -97t-99 -40q-57 0 -97 40t-40 97z"/>
<glyph unicode="Ý" horiz-adv-x="1216" d="M33 1536h323l246 -614q2 -6 6 -7q2 0 6 7l248 612h320l-426 -981v-553h-293v553zM369 1817l380 162l99 -217l-352 -144z"/>
<glyph unicode="Þ" horiz-adv-x="1787" d="M117 0v1536h293v-285h58.5h57t44 1t20.5 1q98 0 180 -35.5t141.5 -97t92 -145.5t32.5 -182t-32.5 -183.5t-92 -150t-141.5 -101t-180 -36.5h-168q-12 0 -12 -11v-311h-293zM410 627q0 -12 12 -13h168q45 0 74.5 18.5t47 46.5t24.5 58.5t7 55.5t-7 53t-24.5 54t-47 43.5 t-74.5 17.5h-168q-12 0 -12 -13v-321z"/>
<glyph unicode="ß" horiz-adv-x="1146" d="M117 0v1130q0 80 29.5 152t82 125t124 87t157.5 40q6 2 18 2h29q12 0 18 -2q86 -6 158 -41t124 -90t82 -128t30 -155q0 -78 -23.5 -146.5t-64.5 -123.5q82 -66 130 -162t48 -211q0 -98 -34 -184t-93.5 -151.5t-141 -103.5t-180.5 -38h-145v293h133q39 0 70.5 16.5t53 43 t33 62.5t11.5 74q0 39 -16.5 75t-44 62.5t-62.5 42t-70 15.5v252q61 4 88 51t27 107q0 59 -43 104t-108 45q-47 0 -73 -16.5t-38 -37t-14 -38.5t-2 -21v-1130h-293z"/>
<glyph unicode="à" horiz-adv-x="1202" d="M53 512q0 109 42 205t114 167.5t168 113.5t205 42q76 0 145.5 -20.5t128.5 -56.5l2 61h254v-1026l-256 61q-123 -76 -274 -75q-109 0 -205 42t-168 113.5t-114 167.5t-42 205zM330 512q0 -53 19.5 -100t53 -81t79.5 -53.5t100 -19.5q53 0 99 19.5t80 53.5t53.5 81 t19.5 100t-19.5 100t-53.5 81t-80 53.5t-99 19.5t-99.5 -19.5t-80 -53.5t-53 -81t-19.5 -100zM361 1352l98 217l381 -162l-127 -199z"/>
<glyph unicode="á" horiz-adv-x="1202" d="M53 512q0 109 42 205t114 167.5t168 113.5t205 42q76 0 145.5 -20.5t128.5 -56.5l2 61h254v-1026l-256 61q-123 -76 -274 -75q-109 0 -205 42t-168 113.5t-114 167.5t-42 205zM330 512q0 -53 19.5 -100t53 -81t79.5 -53.5t100 -19.5q53 0 99 19.5t80 53.5t53.5 81 t19.5 100t-19.5 100t-53.5 81t-80 53.5t-99 19.5t-99.5 -19.5t-80 -53.5t-53 -81t-19.5 -100zM361 1407l380 162l99 -217l-352 -144z"/>
<glyph unicode="â" horiz-adv-x="1202" d="M53 512q0 109 42 205t114 167.5t168 113.5t205 42q76 0 145.5 -20.5t128.5 -56.5l2 61h254v-1026l-256 61q-123 -76 -274 -75q-109 0 -205 42t-168 113.5t-114 167.5t-42 205zM291 1446l308 119l313 -131l-131 -199l-182 80l-179 -68zM330 512q0 -53 19.5 -100t53 -81 t79.5 -53.5t100 -19.5q53 0 99 19.5t80 53.5t53.5 81t19.5 100t-19.5 100t-53.5 81t-80 53.5t-99 19.5t-99.5 -19.5t-80 -53.5t-53 -81t-19.5 -100z"/>
<glyph unicode="ã" horiz-adv-x="1202" d="M53 512q0 109 42 205t114 167.5t168 113.5t205 42q76 0 145.5 -20.5t128.5 -56.5l2 61h254v-1026l-256 61q-123 -76 -274 -75q-109 0 -205 42t-168 113.5t-114 167.5t-42 205zM260 1237l2 248q10 4 28.5 14t44 20.5t56 17.5t65.5 7t71 -8t68.5 -17.5t62.5 -17.5t52 -8 q37 0 78 12.5t76 28.5q39 18 78 43v-223q-12 -8 -31 -23.5t-43.5 -31t-56 -27.5t-70.5 -12q-31 0 -66.5 8t-72.5 18t-73 18.5t-67 8.5q-59 0 -98 -12.5t-61 -26.5q-27 -16 -43 -37zM330 512q0 -53 19.5 -100t53 -81t79.5 -53.5t100 -19.5q53 0 99 19.5t80 53.5t53.5 81 t19.5 100t-19.5 100t-53.5 81t-80 53.5t-99 19.5t-99.5 -19.5t-80 -53.5t-53 -81t-19.5 -100z"/>
<glyph unicode="ä" horiz-adv-x="1202" d="M53 512q0 109 42 205t114 167.5t168 113.5t205 42q76 0 145.5 -20.5t128.5 -56.5l2 61h254v-1026l-256 61q-123 -76 -274 -75q-109 0 -205 42t-168 113.5t-114 167.5t-42 205zM252 1399q0 59 40 98t99 39q57 0 97 -39t40 -98q0 -57 -40 -97t-97 -40q-59 0 -99 40t-40 97z M330 512q0 -53 19.5 -100t53 -81t79.5 -53.5t100 -19.5q53 0 99 19.5t80 53.5t53.5 81t19.5 100t-19.5 100t-53.5 81t-80 53.5t-99 19.5t-99.5 -19.5t-80 -53.5t-53 -81t-19.5 -100zM674 1399q0 59 39.5 98t97.5 39q59 0 99 -39t40 -98q0 -57 -40 -97t-99 -40q-57 0 -97 40 t-40 97z"/>
<glyph unicode="å" horiz-adv-x="1202" d="M53 512q0 109 42 205t114 167.5t168 113.5t205 42q76 0 145.5 -20.5t128.5 -56.5l2 61h254v-1026l-256 61q-123 -76 -274 -75q-109 0 -205 42t-168 113.5t-114 167.5t-42 205zM330 512q0 -53 19.5 -100t53 -81t79.5 -53.5t100 -19.5q53 0 99 19.5t80 53.5t53.5 81 t19.5 100t-19.5 100t-53.5 81t-80 53.5t-99 19.5t-99.5 -19.5t-80 -53.5t-53 -81t-19.5 -100zM398 1389q0 86 58 144t144 58t144.5 -58t58.5 -144t-58.5 -144.5t-144.5 -58.5t-144 58.5t-58 144.5zM469 1389q0 -53 39 -92.5t92 -39.5t92 39t39 93q0 53 -38.5 92t-92.5 39 q-53 0 -92 -39t-39 -92z"/>
<glyph unicode="æ" horiz-adv-x="1896" d="M53 512q0 109 42 205t114 167.5t168 113.5t205 42q76 0 145.5 -20.5t128.5 -56.5l2 61h254v-1024h-258l2 59q-123 -76 -274 -75q-109 0 -205 42t-168 113.5t-114 167.5t-42 205zM330 512q0 -53 19.5 -100t53 -81t79.5 -53.5t100 -19.5q53 0 99 19.5t80 53.5t53.5 81 t19.5 100t-19.5 100t-53.5 81t-80 53.5t-99 19.5t-99.5 -19.5t-80 -53.5t-53 -81t-19.5 -100zM834 514q0 109 40.5 205t112.5 166.5t168 111.5t205 41q119 0 205 -46t141 -117.5t82 -158.5t27 -171q0 -66 -17 -127h-655q-6 0 -6 -10q29 -66 89 -115t138 -49q96 0 167 28.5 t124 55.5l14 6l92 -205q-37 -37 -86 -64.5t-101 -45t-106.5 -26.5t-103.5 -9q-111 0 -207 41t-169 113.5t-113.5 168.5t-40.5 207zM1141 629q0 -6 8 -6h364q8 0 9 4q0 51 -46 93t-118 42t-128 -35t-87 -92q0 -2 -1 -3t-1 -3z"/>
<glyph unicode="ç" horiz-adv-x="1126" d="M72 514q0 109 41 205t113.5 167.5t168.5 112.5t207 41q68 0 132.5 -18t120.5 -50t103.5 -74t77.5 -89l-207 -154q-18 16 -38.5 36t-46 35t-59.5 25.5t-79 10.5q-53 0 -98 -19.5t-79 -53.5t-53.5 -79t-19.5 -96q0 -53 19.5 -98t53.5 -79t79 -53.5t98 -19.5q72 0 123 34 t98 99l244 -123q-68 -129 -191.5 -209.5t-277.5 -80.5q-111 0 -207 41t-168.5 113.5t-113.5 168.5t-41 207zM361 -283q23 -8 45 -14q20 -6 41.5 -10t42.5 -4h18q25 0 42.5 11t17.5 46q0 41 -21.5 49t-48.5 8h-117l142 197h122l-79 -104q10 0 22 3t23 3q66 0 109.5 -41 t43.5 -115q0 -49 -21.5 -86t-54 -60.5t-73.5 -34.5t-78 -11q-12 0 -37 2t-50.5 7t-50 11t-38.5 14v129z"/>
<glyph unicode="è" horiz-adv-x="1091" d="M57 514q0 109 41 205t113 166.5t168 111.5t205 41q119 0 204.5 -46t141 -117.5t82 -158.5t26.5 -171q0 -66 -16 -127h-655q-6 0 -7 -10q29 -66 89.5 -115t138.5 -49q96 0 166.5 28.5t124.5 55.5l14 6l92 -205q-37 -37 -86 -64.5t-101.5 -45t-106.5 -26.5t-103 -9 q-111 0 -207 41t-169 113.5t-114 168.5t-41 207zM306 1352l98 217l381 -162l-127 -199zM365 629q0 -6 8 -6h364q8 0 8 4q0 51 -45.5 93t-117.5 42t-128.5 -35t-86.5 -92q0 -2 -1 -3t-1 -3z"/>
<glyph unicode="é" horiz-adv-x="1091" d="M57 514q0 109 41 205t113 166.5t168 111.5t205 41q119 0 204.5 -46t141 -117.5t82 -158.5t26.5 -171q0 -66 -16 -127h-655q-6 0 -7 -10q29 -66 89.5 -115t138.5 -49q96 0 166.5 28.5t124.5 55.5l14 6l92 -205q-37 -37 -86 -64.5t-101.5 -45t-106.5 -26.5t-103 -9 q-111 0 -207 41t-169 113.5t-114 168.5t-41 207zM306 1407l380 162l99 -217l-352 -144zM365 629q0 -6 8 -6h364q8 0 8 4q0 51 -45.5 93t-117.5 42t-128.5 -35t-86.5 -92q0 -2 -1 -3t-1 -3z"/>
<glyph unicode="ê" horiz-adv-x="1091" d="M57 514q0 109 41 205t113 166.5t168 111.5t205 41q119 0 204.5 -46t141 -117.5t82 -158.5t26.5 -171q0 -66 -16 -127h-655q-6 0 -7 -10q29 -66 89.5 -115t138.5 -49q96 0 166.5 28.5t124.5 55.5l14 6l92 -205q-37 -37 -86 -64.5t-101.5 -45t-106.5 -26.5t-103 -9 q-111 0 -207 41t-169 113.5t-114 168.5t-41 207zM235 1446l308 119l313 -131l-131 -199l-182 80l-179 -68zM365 629q0 -6 8 -6h364q8 0 8 4q0 51 -45.5 93t-117.5 42t-128.5 -35t-86.5 -92q0 -2 -1 -3t-1 -3z"/>
<glyph unicode="ë" horiz-adv-x="1091" d="M57 514q0 109 41 205t113 166.5t168 111.5t205 41q119 0 204.5 -46t141 -117.5t82 -158.5t26.5 -171q0 -66 -16 -127h-655q-6 0 -7 -10q29 -66 89.5 -115t138.5 -49q96 0 166.5 28.5t124.5 55.5l14 6l92 -205q-37 -37 -86 -64.5t-101.5 -45t-106.5 -26.5t-103 -9 q-111 0 -207 41t-169 113.5t-114 168.5t-41 207zM197 1399q0 59 40 98t99 39q57 0 97 -39t40 -98q0 -57 -40 -97t-97 -40q-59 0 -99 40t-40 97zM365 629q0 -6 8 -6h364q8 0 8 4q0 51 -45.5 93t-117.5 42t-128.5 -35t-86.5 -92q0 -2 -1 -3t-1 -3zM619 1399q0 59 39.5 98 t97.5 39q59 0 99 -39t40 -98q0 -57 -40 -97t-99 -40q-57 0 -97 40t-40 97z"/>
<glyph unicode="ì" horiz-adv-x="430" d="M-22 1352l98 217l381 -162l-127 -199zM92 0v1024h248v-1024h-248z"/>
<glyph unicode="í" horiz-adv-x="430" d="M-22 1407l380 162l99 -217l-352 -144zM92 0v1024h248v-1024h-248z"/>
<glyph unicode="î" horiz-adv-x="430" d="M-92 1446l308 119l313 -131l-131 -199l-182 80l-179 -68zM92 0v1024h248v-1024h-248z"/>
<glyph unicode="ï" horiz-adv-x="430" d="M-131 1399q0 59 40 98t99 39q57 0 97 -39t40 -98q0 -57 -40 -97t-97 -40q-59 0 -99 40t-40 97zM92 0v1024h248v-1024h-248zM291 1399q0 59 39.5 98t97.5 39q59 0 99 -39t40 -98q0 -57 -40 -97t-99 -40q-57 0 -97 40t-40 97z"/>
<glyph unicode="ð" horiz-adv-x="1310" d="M111 528q0 111 39.5 202t108.5 158.5t162 109.5t202 53q4 0 4 4t-2 6l-43 63l-103 -73l-135 192l105 76l-56 80l230 170l65 -80l107 74l133 -193l-113 -78l311 -489q39 -59 56.5 -129t17.5 -146q0 -113 -43 -212t-116.5 -172.5t-173 -116.5t-212.5 -43t-212 43 t-172.5 116.5t-116.5 173t-43 211.5zM403 528q0 -55 19.5 -101t53.5 -80t80 -52.5t99 -18.5q111 0 181.5 70.5t70.5 181.5q0 53 -18.5 99.5t-52 80t-79.5 53t-102 19.5q-53 0 -99 -19.5t-80 -53t-53.5 -79.5t-19.5 -100z"/>
<glyph unicode="ñ" horiz-adv-x="1091" d="M90 0v1024l250 -39q45 31 99.5 43t107.5 12q217 0 337 -117.5t120 -334.5v-588h-279v584q0 74 -52 126t-126 52q-72 0 -123 -47t-55 -119v-596h-279zM205 1237l2 248q10 4 28.5 14t44 20.5t56 17.5t65.5 7t71 -8t68.5 -17.5t62.5 -17.5t52 -8q37 0 78 12.5t76 28.5 q39 18 78 43v-223q-12 -8 -31 -23.5t-43.5 -31t-56 -27.5t-70.5 -12q-31 0 -66.5 8t-72.5 18t-73 18.5t-67 8.5q-59 0 -98 -12.5t-61 -26.5q-27 -16 -43 -37z"/>
<glyph unicode="ò" horiz-adv-x="1191" d="M72 514q0 109 41 205t113.5 167.5t169 112.5t206.5 41q109 0 205 -41t168 -112.5t112.5 -167.5t40.5 -205q0 -111 -40.5 -207t-112.5 -168.5t-168 -113.5t-205 -41q-111 0 -207 41t-168.5 113.5t-113.5 168.5t-41 207zM352 514q0 -53 19.5 -98t53.5 -79t79 -53.5 t98 -19.5q51 0 96 19.5t79 53.5t53.5 79t19.5 98q0 51 -19.5 96t-53.5 79t-79 53.5t-96 19.5q-53 0 -98 -19.5t-79 -53.5t-53.5 -79t-19.5 -96zM357 1352l98 217l381 -162l-127 -199z"/>
<glyph unicode="ó" horiz-adv-x="1191" d="M72 514q0 109 41 205t113.5 167.5t169 112.5t206.5 41q109 0 205 -41t168 -112.5t112.5 -167.5t40.5 -205q0 -111 -40.5 -207t-112.5 -168.5t-168 -113.5t-205 -41q-111 0 -207 41t-168.5 113.5t-113.5 168.5t-41 207zM352 514q0 -53 19.5 -98t53.5 -79t79 -53.5 t98 -19.5q51 0 96 19.5t79 53.5t53.5 79t19.5 98q0 51 -19.5 96t-53.5 79t-79 53.5t-96 19.5q-53 0 -98 -19.5t-79 -53.5t-53.5 -79t-19.5 -96zM357 1407l380 162l99 -217l-352 -144z"/>
<glyph unicode="ô" horiz-adv-x="1191" d="M72 514q0 109 41 205t113.5 167.5t169 112.5t206.5 41q109 0 205 -41t168 -112.5t112.5 -167.5t40.5 -205q0 -111 -40.5 -207t-112.5 -168.5t-168 -113.5t-205 -41q-111 0 -207 41t-168.5 113.5t-113.5 168.5t-41 207zM284 1446l308 119l313 -131l-131 -199l-182 80 l-179 -68zM352 514q0 -53 19.5 -98t53.5 -79t79 -53.5t98 -19.5q51 0 96 19.5t79 53.5t53.5 79t19.5 98q0 51 -19.5 96t-53.5 79t-79 53.5t-96 19.5q-53 0 -98 -19.5t-79 -53.5t-53.5 -79t-19.5 -96z"/>
<glyph unicode="õ" horiz-adv-x="1191" d="M72 514q0 109 41 205t113.5 167.5t169 112.5t206.5 41q109 0 205 -41t168 -112.5t112.5 -167.5t40.5 -205q0 -111 -40.5 -207t-112.5 -168.5t-168 -113.5t-205 -41q-111 0 -207 41t-168.5 113.5t-113.5 168.5t-41 207zM254 1237l2 248q10 4 28.5 14t44 20.5t56 17.5 t65.5 7t71 -8t68.5 -17.5t62.5 -17.5t52 -8q37 0 78 12.5t76 28.5q39 18 78 43v-223q-12 -8 -31 -23.5t-43.5 -31t-56 -27.5t-70.5 -12q-31 0 -66.5 8t-72.5 18t-73 18.5t-67 8.5q-59 0 -98 -12.5t-61 -26.5q-27 -16 -43 -37zM352 514q0 -53 19.5 -98t53.5 -79t79 -53.5 t98 -19.5q51 0 96 19.5t79 53.5t53.5 79t19.5 98q0 51 -19.5 96t-53.5 79t-79 53.5t-96 19.5q-53 0 -98 -19.5t-79 -53.5t-53.5 -79t-19.5 -96z"/>
<glyph unicode="ö" horiz-adv-x="1191" d="M72 514q0 109 41 205t113.5 167.5t169 112.5t206.5 41q109 0 205 -41t168 -112.5t112.5 -167.5t40.5 -205q0 -111 -40.5 -207t-112.5 -168.5t-168 -113.5t-205 -41q-111 0 -207 41t-168.5 113.5t-113.5 168.5t-41 207zM246 1399q0 59 40 98t99 39q57 0 97 -39t40 -98 q0 -57 -40 -97t-97 -40q-59 0 -99 40t-40 97zM352 514q0 -53 19.5 -98t53.5 -79t79 -53.5t98 -19.5q51 0 96 19.5t79 53.5t53.5 79t19.5 98q0 51 -19.5 96t-53.5 79t-79 53.5t-96 19.5q-53 0 -98 -19.5t-79 -53.5t-53.5 -79t-19.5 -96zM668 1399q0 59 39.5 98t97.5 39 q59 0 99 -39t40 -98q0 -57 -40 -97t-99 -40q-57 0 -97 40t-40 97z"/>
<glyph unicode="÷" d="M102 408v233h1024v-233h-1024zM453 184q0 66 47 113t112 47q66 0 113 -47t47 -113t-47 -112.5t-113 -46.5t-112.5 46.5t-46.5 112.5zM453 864q0 66 47 113t112 47q66 0 113 -47t47 -113t-47 -112.5t-113 -46.5t-112.5 46.5t-46.5 112.5z"/>
<glyph unicode="ø" horiz-adv-x="1191" d="M72 514q0 109 41 205t113.5 167.5t169 112.5t206.5 41q39 0 80 -6l35 115h131l-43 -150q72 -31 131 -79t102 -111.5t66.5 -138t23.5 -156.5q0 -111 -40.5 -207t-112.5 -168.5t-168 -113.5t-205 -41q-25 0 -47.5 2t-44.5 6l-35 -119h-125l39 154q-72 31 -130 80t-99 111.5 t-64.5 138t-23.5 157.5zM326 514q0 -78 36.5 -141.5t100.5 -98.5l149 517h-10q-57 0 -107.5 -21.5t-88 -59.5t-59 -88.5t-21.5 -107.5zM582 238h20q57 0 107.5 21.5t88.5 59t59.5 88t21.5 107.5q0 78 -40 143.5t-106 100.5z"/>
<glyph unicode="ù" horiz-adv-x="1095" d="M90 436v588h279v-584q0 -74 52 -126t126 -52q72 0 123 47t55 119v596h279v-1026l-250 41q-45 -31 -99.5 -43t-107.5 -12q-217 0 -337 117.5t-120 334.5zM308 1352l98 217l381 -162l-127 -199z"/>
<glyph unicode="ú" horiz-adv-x="1095" d="M90 436v588h279v-584q0 -74 52 -126t126 -52q72 0 123 47t55 119v596h279v-1026l-250 41q-45 -31 -99.5 -43t-107.5 -12q-217 0 -337 117.5t-120 334.5zM308 1407l380 162l99 -217l-352 -144z"/>
<glyph unicode="û" horiz-adv-x="1095" d="M90 436v588h279v-584q0 -74 52 -126t126 -52q72 0 123 47t55 119v596h279v-1026l-250 41q-45 -31 -99.5 -43t-107.5 -12q-217 0 -337 117.5t-120 334.5zM237 1446l308 119l313 -131l-131 -199l-182 80l-179 -68z"/>
<glyph unicode="ü" horiz-adv-x="1095" d="M90 436v588h279v-584q0 -74 52 -126t126 -52q72 0 123 47t55 119v596h279v-1026l-250 41q-45 -31 -99.5 -43t-107.5 -12q-217 0 -337 117.5t-120 334.5zM199 1399q0 59 40 98t99 39q57 0 97 -39t40 -98q0 -57 -40 -97t-97 -40q-59 0 -99 40t-40 97zM621 1399 q0 59 39.5 98t97.5 39q59 0 99 -39t40 -98q0 -57 -40 -97t-99 -40q-57 0 -97 40t-40 97z"/>
<glyph unicode="ý" horiz-adv-x="976" d="M27 1024h299l159 -549q2 -2 2 -4q0 -4 2 -4l5 4q0 2 2 4l159 549h295l-493 -1448h-297l180 512q2 6 2 18q0 10 -2 17zM248 1407l380 162l99 -217l-352 -144z"/>
<glyph unicode="þ" horiz-adv-x="1230" d="M92 -424v1858h279v-457q53 29 116.5 46t137.5 17q109 0 205 -42t167.5 -113.5t113.5 -167.5t42 -205t-42 -205t-113.5 -167.5t-168 -113.5t-204.5 -42q-72 0 -135.5 17t-118.5 48v-473h-279zM373 512q0 -53 19.5 -100t53 -81t79.5 -53.5t100 -19.5q53 0 99 19.5t80 53.5 t53.5 81t19.5 100t-19.5 100t-53.5 81t-80 53.5t-99 19.5t-99.5 -19.5t-80 -53.5t-53 -81t-19.5 -100z"/>
<glyph unicode="ÿ" horiz-adv-x="976" d="M27 1024h299l159 -549q2 -2 2 -4q0 -4 2 -4l5 4q0 2 2 4l159 549h295l-493 -1448h-297l180 512q2 6 2 18q0 10 -2 17zM140 1399q0 59 40 98t99 39q57 0 97 -39t40 -98q0 -57 -40 -97t-97 -40q-59 0 -99 40t-40 97zM562 1399q0 59 39.5 98t97.5 39q59 0 99 -39t40 -98 q0 -57 -40 -97t-99 -40q-57 0 -97 40t-40 97z"/>
<glyph unicode="Œ" horiz-adv-x="2314" d="M113 768q0 162 61.5 305.5t168 250t248.5 167.5t306 61q162 0 305.5 -61t250 -167.5t167.5 -250t61 -305.5q0 -164 -61 -306.5t-167.5 -249t-250 -167.5t-305.5 -61q-164 0 -306 61t-248.5 167.5t-168 249t-61.5 306.5zM406 768q0 -102 38.5 -191.5t105 -156t156 -105.5 t191.5 -39t191.5 39t156 105.5t105.5 156t39 191.5t-39 191.5t-105.5 156t-156 105.5t-191.5 39t-191.5 -39t-156 -105.5t-105 -156t-38.5 -191.5zM1391 0v1536h844v-293h-539q-12 0 -12 -12v-301q0 -12 12 -12h539v-293h-539q-12 0 -12 -13v-307q0 -12 12 -12h539v-293 h-844z"/>
<glyph unicode="œ" horiz-adv-x="1892" d="M72 514q0 109 41 205t113.5 167.5t169 112.5t206.5 41q109 0 205 -41t168 -112.5t112.5 -167.5t40.5 -205q0 -111 -40.5 -207t-112.5 -168.5t-168 -113.5t-205 -41q-111 0 -207 41t-168.5 113.5t-113.5 168.5t-41 207zM352 514q0 -53 19.5 -98t53.5 -79t79 -53.5 t98 -19.5q51 0 96 19.5t79 53.5t53.5 79t19.5 98q0 51 -19.5 96t-53.5 79t-79 53.5t-96 19.5q-53 0 -98 -19.5t-79 -53.5t-53.5 -79t-19.5 -96zM852 514q0 109 41 205t113 166.5t168 111.5t205 41q119 0 204.5 -46t141 -117.5t82 -158.5t26.5 -171q0 -66 -16 -127h-655 q-6 0 -7 -10q29 -66 89.5 -115t138.5 -49q96 0 166.5 28.5t124.5 55.5l14 6l92 -205q-37 -37 -86 -64.5t-101.5 -45t-106.5 -26.5t-103 -9q-111 0 -207 41t-169 113.5t-114 168.5t-41 207zM1160 629q0 -6 8 -6h364q8 0 8 4q0 51 -45.5 93t-117.5 42t-128.5 -35t-86.5 -92 q0 -2 -1 -3t-1 -3z"/>
<glyph unicode="Ÿ" horiz-adv-x="1216" d="M33 1536h323l246 -614q2 -6 6 -7q2 0 6 7l248 612h320l-426 -981v-553h-293v553zM258 1809q0 59 40 98t99 39q57 0 97 -39t40 -98q0 -57 -40 -97t-97 -40q-59 0 -99 40t-40 97zM680 1809q0 59 39.5 98t97.5 39q59 0 99 -39t40 -98q0 -57 -40 -97t-99 -40q-57 0 -97 40 t-40 97z"/>
<glyph unicode="ˆ" horiz-adv-x="815" d="M98 1446l308 119l313 -131l-131 -199l-182 80l-179 -68z"/>
<glyph unicode="˜" horiz-adv-x="909" d="M113 1237l2 248q10 4 28.5 14t44 20.5t56 17.5t65.5 7t71 -8t68.5 -17.5t62.5 -17.5t52 -8q37 0 78 12.5t76 28.5q39 18 78 43v-223q-12 -8 -31 -23.5t-43.5 -31t-56 -27.5t-70.5 -12q-31 0 -66.5 8t-72.5 18t-73 18.5t-67 8.5q-59 0 -98 -12.5t-61 -26.5 q-27 -16 -43 -37z"/>
<glyph unicode=" " horiz-adv-x="1000"/>
<glyph unicode=" " horiz-adv-x="2001"/>
<glyph unicode=" " horiz-adv-x="1000"/>
<glyph unicode=" " horiz-adv-x="2001"/>
<glyph unicode=" " horiz-adv-x="667"/>
<glyph unicode=" " horiz-adv-x="500"/>
<glyph unicode=" " horiz-adv-x="333"/>
<glyph unicode=" " horiz-adv-x="333"/>
<glyph unicode=" " horiz-adv-x="250"/>
<glyph unicode=" " horiz-adv-x="400"/>
<glyph unicode=" " horiz-adv-x="111"/>
<glyph unicode="‐" horiz-adv-x="878" d="M115 471v234h649v-234h-649z"/>
<glyph unicode="‑" horiz-adv-x="878" d="M115 471v234h649v-234h-649z"/>
<glyph unicode="‒" horiz-adv-x="878" d="M115 471v234h649v-234h-649z"/>
<glyph unicode="–" horiz-adv-x="1257" d="M115 471v234h1026v-234h-1026z"/>
<glyph unicode="—" horiz-adv-x="1617" d="M117 471v234h1384v-234h-1384z"/>
<glyph unicode="‘" horiz-adv-x="460" d="M82 1536h237l37 -375l-161 -20z"/>
<glyph unicode="’" horiz-adv-x="460" d="M82 1161l37 375h237l-112 -395z"/>
<glyph unicode="‚" horiz-adv-x="460" d="M82 -135l37 375h237l-112 -396z"/>
<glyph unicode="“" horiz-adv-x="790" d="M82 1536h237l37 -375l-161 -20zM403 1536h238l37 -375l-162 -20z"/>
<glyph unicode="”" horiz-adv-x="790" d="M82 1161l37 375h237l-112 -395zM403 1161l37 375h238l-113 -395z"/>
<glyph unicode="„" horiz-adv-x="790" d="M82 -135l37 375h237l-112 -396zM403 -135l37 375h238l-113 -396z"/>
<glyph unicode="•" horiz-adv-x="716" d="M113 614q0 51 19.5 95.5t53 78t77.5 53t95 19.5t95.5 -19.5t78 -53t53 -77.5t19.5 -96q0 -51 -19.5 -95t-53 -77.5t-77.5 -53t-96 -19.5q-51 0 -95 19.5t-77.5 53t-53 77.5t-19.5 95z"/>
<glyph unicode="…" horiz-adv-x="1501" d="M117 106q0 47 34.5 86t90.5 39q47 0 80.5 -38.5t33.5 -86.5q0 -47 -33.5 -80.5t-80.5 -33.5q-55 0 -90 33.5t-35 80.5zM631 106q0 47 34.5 86t90.5 39q47 0 80.5 -38.5t33.5 -86.5q0 -47 -33.5 -80.5t-80.5 -33.5q-55 0 -90 33.5t-35 80.5zM1145 106q0 47 34.5 86 t90.5 39q47 0 80.5 -38.5t33.5 -86.5q0 -47 -33.5 -80.5t-80.5 -33.5q-55 0 -90 33.5t-35 80.5z"/>
<glyph unicode=" " horiz-adv-x="400"/>
<glyph unicode="‹" horiz-adv-x="655" d="M96 557l281 436l180 -149l-188 -287l194 -291l-196 -141z"/>
<glyph unicode="›" horiz-adv-x="655" d="M96 266l195 291l-189 287l181 149l280 -436l-270 -432z"/>
<glyph unicode=" " horiz-adv-x="500"/>
<glyph unicode="€" horiz-adv-x="1232" d="M78 588q0 53 30.5 82.5t84.5 34.5v110q-53 2 -84 33t-31 84t30.5 82.5t84.5 34.5v11t2 11q6 88 41.5 167t93 142.5t134.5 106.5t165 57q16 4 21 4h9q14 2 27.5 3t28.5 1q127 0 233.5 -55t177.5 -147q27 -35 27 -88q0 -66 -41 -106t-102 -40q-76 0 -115 49 q-31 41 -78 66.5t-102 25.5q-53 0 -99 -22q-16 -8 -24 -14q-8 -4 -14.5 -10.5t-14.5 -12.5l-18 -18q-39 -41 -53 -93l-7 -26q0 -4 -1 -6t-1 -6h408q57 0 90 -31t33 -86t-33 -86t-90 -31h-408v-110h408q57 0 90 -31t33 -86t-33 -87t-90 -36h-404q4 -16 9.5 -30.5t11.5 -28.5 l10 -15q20 -33 45 -55l8 -6q33 -27 78 -43q27 -8 66 -8q55 0 102 25.5t78 66.5q39 49 115 49q61 0 102 -40t41 -106q0 -53 -27 -88q-72 -92 -178 -147t-233 -55q-35 0 -66 4t-61 12q-25 4 -49.5 14.5t-46.5 20.5q-92 43 -162 119l-13 16q-41 47 -67 100q-25 43 -37 92 q-8 27 -13 53.5t-7 55.5q-53 2 -84 33t-31 84z"/>
<glyph unicode="™" horiz-adv-x="1773" d="M111 1364v176h589v-176h-200l-6 -6v-8v-738h-177v738v8v2q0 4 -6 4h-200zM719 616v922h235l226 -637q2 -6 6 -6q6 0 6 6l225 637h240v-924h-174v609q0 8 -8 8t-11 -8q-2 -4 -11 -32t-24.5 -71t-34 -97t-38.5 -110q-47 -131 -105 -299h-131l-102 299q-18 55 -36.5 109.5 t-34 97.5t-25 71t-9.5 32q-2 0 -3 1t-3 1t-2 -1t-2 -1h-2v-607h-182z"/>
<glyph unicode="" horiz-adv-x="1024" d="M0 0v1024h1024v-1024h-1024z"/>
<glyph unicode="ﬁ" horiz-adv-x="1435" d="M61 774v250h228v119q0 137 69.5 216t206.5 79h279v-242h-164q-55 0 -84 -18.5t-29 -77.5v-76h338v-250h-338v-774h-278v774h-228zM1065 0v1026h279v-1026h-279zM1065 1249q0 55 41 97.5t100 42.5q55 0 97.5 -42t42.5 -98q0 -59 -42 -100t-98 -41q-59 0 -100 41t-41 100z "/>
<glyph unicode="ﬂ" horiz-adv-x="1435" d="M61 774v250h228v119q0 137 69.5 216t206.5 79h279v-242h-164q-55 0 -84 -18.5t-29 -77.5v-76h338v-250h-338v-774h-278v774h-228zM1065 0v1434h279v-1434h-279z"/>
</font>
</defs>
</svg>
