<?xml version="1.0" encoding="UTF-8" standalone="no"?>
<!DOCTYPE svg PUBLIC "-//W3C//DTD SVG 1.1//EN" "http://www.w3.org/Graphics/SVG/1.1/DTD/svg11.dtd">
<svg xmlns="http://www.w3.org/2000/svg">
<metadata/>
<defs>
<font id="ebisuextralight" horiz-adv-x="1228">
<font-face units-per-em="2048" ascent="1536" descent="-512"/>
<missing-glyph horiz-adv-x="593"/>
<glyph horiz-adv-x="2048"/>
<glyph horiz-adv-x="2048"/>
<glyph unicode="" horiz-adv-x="593"/>
<glyph unicode=" " horiz-adv-x="593"/>
<glyph unicode="	" horiz-adv-x="593"/>
<glyph unicode=" " horiz-adv-x="593"/>
<glyph unicode="!" horiz-adv-x="251" d="M80 39q0 18 13 31.5t34 13.5q18 0 31.5 -13.5t13.5 -31.5q0 -20 -13.5 -33.5t-31.5 -13.5q-20 0 -33.5 13.5t-13.5 33.5zM94 152v1386h66v-1386h-66z"/>
<glyph unicode="&quot;" horiz-adv-x="485" d="M109 942v596h65v-596h-65zM315 942v596h66v-596h-66z"/>
<glyph unicode="#" horiz-adv-x="1312" d="M59 471v66h322l53 405h-309v66h324l61 473h63q0 -4 -1 -18.5t-6 -61.5t-17 -140.5t-35 -252.5h367l61 473l62 2q-2 -18 -9 -74q-6 -47 -16 -142.5t-33 -258.5h309v-66h-321l-55 -405h309v-66h-322l-63 -471h-64v8l62 463h-371l-63 -471l-60 -2l60 473h-308zM446 537h367 l55 405h-368z"/>
<glyph unicode="$" horiz-adv-x="888" d="M61 1165q0 72 27 136.5t72 116.5t106.5 86t132.5 44v166h66v-162q96 -4 183 -55t136 -137l-59 -27q-37 70 -111.5 112t-160.5 42q-63 0 -122 -25.5t-105 -68.5t-73.5 -99.5t-27.5 -117.5q0 -74 32.5 -149t133.5 -138q33 -20 76 -40t89 -38t90 -36.5t81 -39.5 q100 -57 152 -145t52 -205q0 -78 -28.5 -147.5t-78.5 -124t-116.5 -88t-142.5 -39.5v-176h-66v176q-80 4 -140 29.5t-101 60.5t-62.5 73.5t-27.5 71.5l63 8q31 -82 115 -131t186 -49q68 0 128.5 27.5t106.5 74t72.5 107.5t26.5 129q0 139 -87 222t-259 149 q-70 27 -134.5 60.5t-114.5 81.5t-80 112.5t-30 152.5z"/>
<glyph unicode="%" horiz-adv-x="1804" d="M76 1167q0 76 28.5 143.5t78.5 118t118 79t143 28.5q76 0 143.5 -28.5t118 -79t79 -118t28.5 -143.5t-28.5 -143.5t-79 -117.5t-118 -78.5t-143.5 -28.5t-143.5 28.5t-117.5 78.5t-78.5 117.5t-28.5 143.5zM139 1167q0 -63 23.5 -118.5t65.5 -97.5t97.5 -65.5 t118.5 -23.5t118.5 23.5t96.5 65.5t65 97.5t24 118.5t-24 118.5t-65 96.5t-96 64.5t-119 23.5q-63 0 -118.5 -23.5t-97.5 -64.5t-65.5 -96.5t-23.5 -118.5zM446 20l834 1526l59 -33l-833 -1525zM991 367q0 76 29 143.5t79 117.5t117.5 78.5t143.5 28.5t143.5 -28.5 t117.5 -78.5t79 -118t29 -143q0 -76 -29 -143.5t-79 -118t-117.5 -79t-143.5 -28.5t-143.5 28.5t-117.5 79t-79 118t-29 143.5zM1055 367q0 -63 23.5 -118.5t65.5 -97.5t97 -66t119 -24q63 0 118.5 24t96.5 66t64.5 97t23.5 119q0 63 -23.5 118.5t-64.5 96.5t-96.5 64.5 t-118.5 23.5t-118.5 -23.5t-97.5 -64.5t-65.5 -96.5t-23.5 -118.5z"/>
<glyph unicode="&amp;" horiz-adv-x="1411" d="M86 424q0 84 27.5 151.5t72.5 122t102.5 97.5t117.5 75q-31 25 -68 55.5t-67.5 72.5t-51 94.5t-20.5 119.5q0 70 26.5 131.5t71.5 107.5t106.5 72.5t131.5 26.5t128 -23.5t100 -64.5t65.5 -96t23.5 -117q0 -86 -25.5 -148.5t-70.5 -108.5t-104.5 -78.5t-127.5 -59.5 l434 -426l263 483l57 -32l-272 -498l337 -330l-22 -57q-4 0 -16.5 10t-47 45t-101 101.5t-177.5 179.5l-80 -148q-4 -4 -4 -6q-59 -88 -155.5 -141t-211.5 -53q-92 0 -172 34.5t-140 95t-95 140.5t-35 172zM152 424q0 -78 29.5 -146.5t80.5 -120t120 -81t146 -29.5 q96 0 176 44t132 116l94 170q-117 117 -239.5 235.5t-231.5 212.5q-59 -31 -114.5 -67.5t-98.5 -85.5t-68.5 -110.5t-25.5 -137.5zM264 1212q0 -55 20.5 -102t51.5 -85t66.5 -68.5t64.5 -53.5q164 55 241.5 133t77.5 213q0 100 -69.5 168t-181.5 68q-55 0 -104.5 -21.5 t-86.5 -58.5t-58.5 -87t-21.5 -106z"/>
<glyph unicode="'" horiz-adv-x="266" d="M109 942v596h65v-596h-65z"/>
<glyph unicode="(" horiz-adv-x="444" d="M82 317v809q0 160 60.5 288t176.5 220l54 -39q-115 -102 -170.5 -202.5t-55.5 -239.5v-862q0 -139 55.5 -239.5t170.5 -203.5l-54 -38q-117 92 -177 220t-60 287z"/>
<glyph unicode=")" horiz-adv-x="442" d="M82 -152q113 102 169 203t56 240v862q0 139 -56 239.5t-169 202.5l53 39q117 -92 177.5 -220t60.5 -288v-809q0 -319 -238 -507z"/>
<glyph unicode="*" horiz-adv-x="880" d="M53 1059v63l338 -12l-241 225l47 45l223 -239l-12 338h65l-12 -340l225 241l43 -45l-240 -225l338 12v-63l-338 10l242 -223l-47 -45l-223 239l12 -338h-65l12 338l-225 -239l-43 45l239 223z"/>
<glyph unicode="+" horiz-adv-x="950" d="M35 494v65h407v408h66v-408h407v-65h-407v-408h-66v408h-407z"/>
<glyph unicode="," horiz-adv-x="212" d="M37 231l76 13l6 -398l-17 -2l-10 62q-4 29 -10 62.5t-12 70.5z"/>
<glyph unicode="-" horiz-adv-x="806" d="M106 580v65h596v-65h-596z"/>
<glyph unicode="." horiz-adv-x="237" d="M80 33q0 16 12 28.5t29 12.5q16 0 28.5 -12.5t12.5 -28.5t-12.5 -28.5t-28.5 -12.5t-28.5 12.5t-12.5 28.5z"/>
<glyph unicode="/" horiz-adv-x="571" d="M31 10l450 1532l64 -14l-449 -1536z"/>
<glyph unicode="0" d="M164 432v672q0 86 34.5 167t96 142.5t143.5 98t178 36.5q90 0 171 -35.5t142.5 -96t97.5 -141.5t36 -171v-672q0 -90 -36 -171t-97.5 -141.5t-142 -96t-171.5 -35.5q-96 0 -178 36.5t-143.5 98t-96 142.5t-34.5 167zM231 428q0 -74 31 -142.5t83 -120.5t123 -84t148 -32 q76 0 145.5 30t121 81t82 120.5t30.5 147.5v676q0 78 -30.5 146.5t-82 120.5t-121 82t-145.5 30q-82 0 -151.5 -32t-121.5 -84t-82 -120.5t-30 -142.5v-676z"/>
<glyph unicode="1" d="M446 1470v66h330v-1536h-65v1470h-265z"/>
<glyph unicode="2" d="M176 1143q12 86 53 159.5t104.5 128t142.5 85t169 30.5q98 0 183 -36.5t149.5 -101.5t101.5 -149.5t37 -183.5q0 -53 -15.5 -106.5t-42 -103.5t-59 -94t-69.5 -77l-641 -628h827v-66h-932v63l707 687q29 27 57.5 65.5t51 81.5t37 89t14.5 89q0 84 -32 158t-87 129 t-129 87t-158 32q-78 0 -146.5 -27t-122.5 -74t-89 -111.5t-45 -138.5z"/>
<glyph unicode="3" d="M139 440h66q2 -82 35.5 -153.5t89 -124.5t128 -84t156.5 -31q86 0 161 32t130.5 87t87 130t31.5 161q0 80 -29.5 150.5t-80 124.5t-119 89t-146.5 43v66q92 23 151.5 98.5t59.5 173.5q0 57 -22.5 109.5t-60.5 90.5t-90 60.5t-109 22.5q-102 0 -177 -61.5t-98 -157.5 l-61 24q14 57 45.5 104.5t76 82t98.5 54t116 19.5q72 0 135 -27.5t110 -74.5t75 -110.5t28 -135.5q0 -92 -46 -169t-118 -124q72 -23 132 -66.5t103 -103t68 -131t25 -151.5q0 -98 -38 -185.5t-102.5 -152t-150.5 -101t-185 -36.5q-96 0 -181 35.5t-148.5 97t-102.5 145.5 t-43 180z"/>
<glyph unicode="4" d="M123 401l719 1135h49v-1120h219v-66h-219v-350h-66v350h-700zM211 416h614v977z"/>
<glyph unicode="5" d="M106 362l66 3q20 -68 62 -126.5t97.5 -100.5t124 -65.5t146.5 -23.5q94 0 177 35t144.5 96.5t96.5 143.5t35 176t-35 177t-96.5 144.5t-144.5 96t-177 34.5q-98 0 -181 -35.5t-145 -101.5l-55 25l121 696h649v-66h-565q-14 0 -22.5 -11t-12.5 -25l-88 -512 q63 47 138 71.5t161 24.5q106 0 201.5 -41t165 -110.5t110.5 -165t41 -201.5q0 -109 -41 -202t-110.5 -164t-164.5 -110.5t-202 -39.5q-88 0 -167 26.5t-143.5 75.5t-111.5 115.5t-71 146.5q-2 4 -3 14z"/>
<glyph unicode="6" d="M88 508q0 96 29.5 181t83.5 153l487 706l55 -37l-366 -530q53 25 112 39t125 14q109 0 205 -41t167 -111.5t112 -167t41 -206.5q0 -113 -40 -208t-110.5 -166t-167 -110.5t-207.5 -39.5q-113 0 -209 39.5t-166.5 110.5t-110.5 166t-40 208zM154 508q0 -98 35.5 -182 t97 -145.5t145.5 -96.5t182 -35q96 0 180.5 35t145.5 96.5t97 145.5t36 182q0 96 -36 180t-98 146.5t-146.5 98.5t-178.5 36q-98 0 -182 -36t-145.5 -97.5t-97 -145.5t-35.5 -182z"/>
<glyph unicode="7" d="M205 1470v66h811l2 -49l-678 -1501l-61 26l657 1458h-731z"/>
<glyph unicode="8" d="M172 426q0 70 20.5 134.5t57.5 117.5t88 95t113 67q-92 45 -149.5 134t-57.5 208q0 76 28.5 142.5t77.5 117.5t115.5 80.5t144.5 29.5q76 0 143.5 -29.5t117 -80.5t78 -118t28.5 -142q0 -119 -57.5 -207t-151.5 -133q63 -25 115.5 -66t90.5 -95t59.5 -119.5t21.5 -135.5 q0 -92 -35 -172t-94.5 -140.5t-141.5 -95t-174 -34.5t-172 34.5t-139 95t-93 140.5t-34 172zM238 426q0 -78 28.5 -146.5t79.5 -119.5t118.5 -81t145.5 -30q80 0 148.5 30t120 81t81 119.5t29.5 146.5t-29.5 146.5t-81 120.5t-120 82t-148.5 30q-78 0 -145.5 -30t-118.5 -82 t-79.5 -120.5t-28.5 -146.5zM309 1182q0 -66 23.5 -123.5t64.5 -98t95.5 -64.5t117.5 -24t117.5 24t95.5 64.5t64.5 98t23.5 123.5q0 61 -23.5 116.5t-64.5 97.5t-95 66.5t-118 24.5q-63 0 -117.5 -24.5t-95.5 -66.5t-64.5 -97.5t-23.5 -116.5z"/>
<glyph unicode="9" d="M88 1024q0 113 40 208t110.5 165.5t167 110.5t206.5 40q113 0 209.5 -40t167 -110.5t110.5 -165.5t40 -208q0 -96 -30 -181t-83 -153l-483 -708l-56 36l363 533q-53 -25 -112.5 -39t-125.5 -14q-109 0 -205 41t-166.5 111.5t-111.5 166.5t-41 207zM154 1024 q0 -96 35.5 -180t98 -146.5t146.5 -98.5t178 -36q98 0 182.5 36t145.5 97.5t97 145.5t36 182t-36 182t-97 145.5t-145 96.5t-183 35q-96 0 -180 -35t-145.5 -96.5t-97 -145.5t-35.5 -182z"/>
<glyph unicode=":" horiz-adv-x="141" d="M29 33q0 16 12 28.5t29 12.5q16 0 28.5 -12.5t12.5 -28.5t-12.5 -28.5t-28.5 -12.5t-28.5 12.5t-12.5 28.5zM29 834q0 16 12 28t29 12q16 0 28.5 -12t12.5 -28t-12.5 -28.5t-28.5 -12.5t-28.5 12.5t-12.5 28.5z"/>
<glyph unicode=";" horiz-adv-x="161" d="M35 834q0 16 12 28t29 12q16 0 28.5 -12t12.5 -28t-12.5 -28.5t-28.5 -12.5t-28.5 12.5t-12.5 28.5zM37 231l76 13l6 -398l-17 -2l-10 62q-4 29 -10 62.5t-12 70.5z"/>
<glyph unicode="&lt;" horiz-adv-x="1263" d="M45 483v66l1077 446l27 -59l-999 -420l999 -418l-27 -59z"/>
<glyph unicode="=" horiz-adv-x="1095" d="M104 371v65h889v-65h-889zM104 582v65h889v-65h-889z"/>
<glyph unicode="&gt;" horiz-adv-x="1263" d="M45 98l999 418l-999 420l27 59l1077 -446v-66l-1077 -444z"/>
<glyph unicode="?" horiz-adv-x="864" d="M51 1235q14 66 48 122t84 98t112.5 65.5t134.5 23.5q80 0 151.5 -30.5t124 -83t83 -124t30.5 -151.5q0 -86 -29.5 -152.5t-95.5 -132.5q-23 -29 -88 -77t-135 -110t-124 -137t-54 -155q0 -66 41 -110.5t104 -53.5l-16 -65q-86 12 -140.5 76.5t-54.5 152.5q0 78 38 145.5 t98.5 130t133 122t144.5 122.5q53 49 83 108.5t30 135.5q0 68 -26 126t-70 102t-102 70t-126 26q-59 0 -111.5 -19.5t-93.5 -54.5t-69.5 -82t-40.5 -102zM334 33q0 -16 12 -28.5t29 -12.5q16 0 28.5 12t12.5 29q0 16 -12.5 28.5t-28.5 12.5t-28.5 -12.5t-12.5 -28.5z"/>
<glyph unicode="@" horiz-adv-x="1746" d="M82 719q0 143 65.5 291.5t180 269.5t270.5 197.5t334 76.5q135 0 268 -41q133 -39 236 -116q231 -176 231 -463q0 -141 -56.5 -262t-160.5 -213q-61 -47 -129 -73t-135 -26q-88 0 -135 49.5t-47 127.5q-27 -35 -48.5 -58.5t-38 -39t-32 -24.5t-29.5 -18 q-33 -18 -64.5 -27.5t-72.5 -9.5t-83 18.5t-76 55.5t-55.5 90.5t-21.5 122.5q0 102 31 192.5t90 157.5q57 66 117.5 102t128.5 36q80 0 132 -28t93 -116l64 127l41 -12l-127 -504q-6 -25 -6 -49q0 -55 35.5 -91t107.5 -36q94 0 171 49t130 125t82 166t29 170 q0 117 -51.5 218t-140.5 175t-213 117t-267 43q-154 0 -294 -66.5t-247.5 -176t-173 -250t-68.5 -287.5v-11q0 -129 52.5 -246.5t144.5 -206.5t220 -142.5t280 -53.5q174 0 314 55.5t249 126.5l37 -49q-129 -98 -273.5 -148t-308.5 -50h-8q-164 0 -304 53t-244.5 150.5 t-164 232.5t-59.5 299zM551 662q0 -106 46 -174t153 -68q41 0 81.5 23.5t75.5 56.5t59.5 77t37.5 95l38 149q8 33 9 66q0 41 -12.5 69.5t-26.5 44.5q-25 31 -62 53.5t-78 22.5q-61 0 -119.5 -32.5t-102.5 -89t-71.5 -132t-27.5 -161.5z"/>
<glyph unicode="A" horiz-adv-x="1210" d="M49 0l529 1536h53l528 -1536h-67l-140 403h-694l-137 -403h-72zM281 469h649l-326 944z"/>
<glyph unicode="B" horiz-adv-x="958" d="M109 0v1536h256q84 0 158.5 -31.5t130 -87t87 -130.5t31.5 -159q0 -113 -54 -205t-147 -145q68 -14 125.5 -49t99.5 -86t66.5 -114.5t24.5 -135.5q0 -82 -31 -153.5t-84 -125t-125 -84t-153 -30.5h-385zM174 66h320q68 0 128 25.5t104 69.5t69.5 104.5t25.5 127.5 q0 68 -25.5 128.5t-69.5 105.5t-104.5 70.5t-127.5 25.5h-320v-657zM174 788h191q72 0 134 27t108 73t73 107.5t27 132.5q0 72 -27 134.5t-73 108.5t-108.5 72.5t-133.5 26.5h-191v-682z"/>
<glyph unicode="C" horiz-adv-x="1509" d="M80 768q0 162 61.5 305.5t168 250t248.5 167.5t306 61t306.5 -60t248.5 -167l-47 -47q-98 98 -228 153.5t-280 55.5q-147 0 -278 -56.5t-229.5 -153.5t-155 -228t-56.5 -281q0 -147 56.5 -278.5t155 -229.5t229.5 -154.5t278 -56.5t277.5 56.5t228.5 152.5l47 -47 q-106 -106 -247.5 -166.5t-305.5 -60.5t-306 61t-248.5 167.5t-168 249t-61.5 306.5z"/>
<glyph unicode="D" horiz-adv-x="1286" d="M109 0v1536h333q160 0 300.5 -60.5t244 -164t163.5 -243.5t60 -300t-60 -300t-163.5 -243.5t-244 -164t-300.5 -60.5h-333zM174 66h268q145 0 273.5 55t223.5 151.5t150.5 223.5t55.5 272t-55.5 273t-150.5 223.5t-223 150.5t-274 55h-268v-1404z"/>
<glyph unicode="E" horiz-adv-x="901" d="M109 0v1536h706v-66h-641v-614h641v-65h-641v-725h641v-66h-706z"/>
<glyph unicode="F" horiz-adv-x="905" d="M109 0v1536h710v-66h-645v-614h645v-65h-645v-791h-65z"/>
<glyph unicode="G" horiz-adv-x="1716" d="M82 768q0 162 61.5 305.5t168 250t248.5 167.5t306 61q166 0 309.5 -61t249.5 -172l-47 -49q-98 100 -228 158.5t-284 58.5q-147 0 -278 -56.5t-229.5 -153.5t-155 -228t-56.5 -281q0 -147 56.5 -278.5t155 -229.5t229.5 -154.5t278 -56.5q137 0 260 49t218.5 134 t157 201t77.5 249h-745v66h815l-2 -41q-12 -152 -78 -284t-170.5 -229.5t-241.5 -153.5t-291 -56q-164 0 -306 61t-248.5 167.5t-168 249t-61.5 306.5z"/>
<glyph unicode="H" horiz-adv-x="1105" d="M106 0v1536h66v-735h764v735h65v-1536h-65v735h-764v-735h-66z"/>
<glyph unicode="I" horiz-adv-x="262" d="M106 0v1536h66v-1536h-66z"/>
<glyph unicode="J" horiz-adv-x="811" d="M33 285h65q6 -49 30 -92t60.5 -75t83 -50.5t97.5 -18.5q55 0 105 21.5t88 58.5t60.5 86t22.5 104v1217h66v-1212q0 -70 -28 -132.5t-74 -108.5t-108.5 -72.5t-131.5 -26.5q-66 0 -124.5 23.5t-103.5 63.5t-73.5 95t-34.5 119z"/>
<glyph unicode="K" horiz-adv-x="774" d="M106 0v1536h66v-709l465 711l82 -2l-514 -776l500 -760h-80l-453 692v-692h-66z"/>
<glyph unicode="L" horiz-adv-x="843" d="M106 0v1536h66v-1470h641v-66h-707z"/>
<glyph unicode="M" horiz-adv-x="1468" d="M104 0v1536h58l571 -1421l574 1421h57v-1536h-66v1358l-540 -1358h-47l-541 1358v-1358h-66z"/>
<glyph unicode="N" horiz-adv-x="1230" d="M104 0v1536h58l901 -1401v1401h65v-1536h-57l-901 1401v-1401h-66z"/>
<glyph unicode="O" horiz-adv-x="1732" d="M82 768q0 162 61.5 305.5t168 250t248.5 167.5t306 61q162 0 305.5 -61t250 -167.5t168 -250t61.5 -305.5q0 -164 -61.5 -306.5t-168 -249t-250 -167.5t-305.5 -61q-164 0 -306 61t-248.5 167.5t-168 249t-61.5 306.5zM147 768q0 -147 56.5 -278.5t155 -229.5 t229.5 -154.5t278 -56.5q150 0 281 56.5t228.5 154.5t153.5 229.5t56 278.5q0 150 -56 281t-153.5 228t-228.5 153.5t-281 56.5q-147 0 -278 -56.5t-229.5 -153.5t-155 -228t-56.5 -281z"/>
<glyph unicode="P" horiz-adv-x="802" d="M104 0v1536h256q84 0 159 -31.5t130.5 -87t87 -130.5t31.5 -159t-31.5 -157.5t-87 -129t-130.5 -87t-159 -31.5h-190v-723h-66zM170 788h190q72 0 134.5 27t108.5 73t72.5 107.5t26.5 132.5q0 72 -26.5 134.5t-72.5 108.5t-108.5 72.5t-134.5 26.5h-190v-682z"/>
<glyph unicode="Q" horiz-adv-x="1734" d="M82 768q0 162 61.5 305.5t168 250t248.5 167.5t306 61q162 0 305.5 -61t250 -167.5t168 -250t61.5 -305.5q0 -188 -81 -347t-216 -267l108 -117l-49 -45l-113 123q-94 -63 -203.5 -97t-230.5 -34q-164 0 -306 61t-248.5 167.5t-168 249t-61.5 306.5zM147 768 q0 -147 56.5 -278.5t155 -229.5t229.5 -154.5t278 -56.5q109 0 206 30t181 83l-266 278l49 45l273 -284q127 100 201.5 246.5t74.5 320.5q0 150 -56 281t-153.5 228t-228.5 153.5t-281 56.5q-147 0 -278 -56.5t-229.5 -153.5t-155 -228t-56.5 -281z"/>
<glyph unicode="R" horiz-adv-x="858" d="M104 0v1536h256q84 0 159 -31.5t130.5 -87t87 -130.5t31.5 -159q0 -76 -25.5 -143t-70.5 -119.5t-107.5 -88.5t-134.5 -48l361 -729h-74l-359 723h-188v-723h-66zM170 788h190q72 0 134.5 27t108.5 73t72.5 107.5t26.5 132.5q0 72 -26.5 134.5t-72.5 108.5t-108.5 72.5 t-134.5 26.5h-190v-682z"/>
<glyph unicode="S" horiz-adv-x="927" d="M82 1165q0 78 30.5 148.5t84 124t124 84t150.5 30.5q100 0 191.5 -52t142.5 -140l-60 -27q-37 70 -111.5 112t-160.5 42q-63 0 -121.5 -25.5t-104.5 -68.5t-74 -99.5t-28 -117.5q0 -74 33 -149t133 -138q33 -20 76 -40t89 -38t90 -36.5t81 -39.5q100 -57 152.5 -145 t52.5 -205q0 -82 -32 -154.5t-87 -128t-128 -87t-154 -31.5q-88 0 -154 24.5t-110 60t-68.5 76.5t-30.5 76l64 8q31 -82 114.5 -131t186.5 -49q68 0 128 27.5t106 74t72.5 107.5t26.5 129q0 139 -87 222t-259 149q-70 27 -134 60.5t-114.5 81.5t-80 112.5t-29.5 152.5z"/>
<glyph unicode="T" horiz-adv-x="1052" d="M37 1470v66h979v-66h-459v-1470h-65v1470h-455z"/>
<glyph unicode="U" horiz-adv-x="993" d="M98 381v1155h66v-1155q0 -70 26.5 -130.5t71.5 -105.5t105.5 -71.5t130.5 -26.5q68 0 129 26.5t106 71.5t71.5 105.5t26.5 130.5v1155h66v-1153q0 -84 -31.5 -156.5t-85 -126t-127 -85t-155.5 -31.5q-84 0 -157 30.5t-126 85t-85 126t-32 155.5z"/>
<glyph unicode="V" horiz-adv-x="1181" d="M43 1536h74l475 -1419l475 1417l72 2l-521 -1536h-51z"/>
<glyph unicode="W" horiz-adv-x="1783" d="M66 1536h69l365 -1395l368 1395h50l366 -1395l363 1393l69 -2l-403 -1532h-58l-364 1389l-361 -1389h-57z"/>
<glyph unicode="X" horiz-adv-x="1167" d="M70 0l475 768l-471 770h67l443 -709l446 707h70l-479 -768l477 -768h-76l-438 707l-439 -707h-75z"/>
<glyph unicode="Y" horiz-adv-x="954" d="M41 1536h68l368 -897l367 897h71l-405 -975v-561h-66v561z"/>
<glyph unicode="Z" horiz-adv-x="1089" d="M41 1470v66h993l2 -59l-907 -1411h915v-66h-989l-2 57l899 1413h-911z"/>
<glyph unicode="[" horiz-adv-x="415" d="M100 -301v1960h254v-66h-188v-1829h188v-65h-254z"/>
<glyph unicode="\" horiz-adv-x="569" d="M31 1528l63 14l451 -1532l-66 -18z"/>
<glyph unicode="]" horiz-adv-x="411" d="M100 -236h189v1829h-189v66h254v-1960h-254v65z"/>
<glyph unicode="^" horiz-adv-x="966" d="M59 768l390 760h65l391 -754l-61 -26l-363 679l-358 -679z"/>
<glyph unicode="_" horiz-adv-x="1339" d="M0 -135h1339v-66h-1339v66z"/>
<glyph unicode="`" horiz-adv-x="524" d="M41 1305l27 59l413 -168l-26 -59z"/>
<glyph unicode="a" horiz-adv-x="1232" d="M78 514q0 109 41 205t113.5 167.5t169 112.5t206.5 41q150 0 271.5 -74.5t189.5 -197.5v256h66v-1024l-66 51v205q-68 -123 -189.5 -197.5t-271.5 -74.5q-111 0 -207 41t-168.5 113.5t-113.5 168.5t-41 207zM145 514q0 -96 36 -181t98.5 -147.5t147.5 -98.5t181 -36 t180 36t146.5 98.5t98.5 147.5t36 181t-36 180t-98.5 146.5t-146 98.5t-180.5 36q-96 0 -181 -36t-147.5 -98.5t-98.5 -146.5t-36 -180z"/>
<glyph unicode="b" horiz-adv-x="1202" d="M100 0v1434h66v-666q68 123 189.5 197.5t271.5 74.5q111 0 207 -41t168.5 -112.5t113.5 -167.5t41 -205q0 -111 -41 -207t-113.5 -168.5t-169 -113.5t-206.5 -41q-150 0 -272 74.5t-189 197.5v-207zM166 514q0 -96 36 -181t98 -147.5t146 -98.5t181 -36q96 0 181 36 t147.5 98.5t98.5 147.5t36 181t-36 180t-98.5 146.5t-147.5 98.5t-181 36t-180.5 -36t-146.5 -98.5t-98 -146.5t-36 -180z"/>
<glyph unicode="c" horiz-adv-x="1144" d="M78 514q0 109 41 205t113.5 167.5t169 112.5t206.5 41q147 0 268 -72.5t189 -193.5l-55 -35q-59 106 -165 171t-237 65q-96 0 -181 -36t-147.5 -98.5t-98.5 -146.5t-36 -180t36 -181t98.5 -147.5t147.5 -98.5t181 -36q129 0 235.5 64.5t166.5 169.5l57 -33 q-68 -121 -189.5 -194.5t-269.5 -73.5q-111 0 -207 41t-168.5 113.5t-113.5 168.5t-41 207z"/>
<glyph unicode="d" horiz-adv-x="1202" d="M45 514q0 109 41 205t113.5 167.5t169 112.5t206.5 41q150 0 272 -74.5t189 -197.5v666h66v-1434l-66 49v207q-68 -123 -189.5 -197.5t-271.5 -74.5q-111 0 -207 41t-168.5 113.5t-113.5 168.5t-41 207zM113 514q0 -96 35.5 -181t98 -147.5t147.5 -98.5t181 -36t180.5 36 t147 98.5t98 147.5t35.5 181t-35.5 180t-98 146.5t-146.5 98.5t-181 36q-96 0 -181 -36t-147.5 -98.5t-98 -146.5t-35.5 -180z"/>
<glyph unicode="e" horiz-adv-x="1134" d="M78 514q0 109 41 205t113.5 167.5t169 112.5t206.5 41q109 0 196 -41t148.5 -112.5t94 -167.5t32.5 -205l-2 -37h-932q6 -90 45 -168t101.5 -135t143.5 -90t173 -33q111 0 208 49.5t161 132.5l53 -36q-72 -98 -182.5 -155.5t-239.5 -57.5q-111 0 -207 41t-168.5 113.5 t-113.5 168.5t-41 207zM145 543h869q-6 90 -35 169t-81 137t-125 92t-165 34q-94 0 -176 -34t-143.5 -92t-99 -137t-44.5 -169z"/>
<glyph unicode="f" horiz-adv-x="727" d="M39 958v66h242v307q0 41 27.5 70t72.5 33h248v-66h-248q-14 0 -24.5 -11t-10.5 -26v-307h338v-66h-338v-958h-65v958h-242z"/>
<glyph unicode="g" horiz-adv-x="1222" d="M74 510q0 111 41 207t113.5 168.5t169 113.5t206.5 41q150 0 271.5 -74.5t189.5 -197.5v207l65 49v-421v-287.5v-180v-97.5t-1 -40l-1 -8q-6 -102 -49 -190.5t-111.5 -154t-159.5 -103.5t-194 -38q-133 0 -244.5 61.5t-181.5 164.5l52 41q59 -92 158.5 -145.5 t215.5 -53.5q92 0 174 35t143.5 96t97.5 143t36 174v236q-68 -123 -189.5 -197.5t-271.5 -74.5q-111 0 -207 41t-168.5 112.5t-113.5 167.5t-41 205zM141 510q0 -96 36 -180t98.5 -146.5t147.5 -98.5t181 -36t180 36t146.5 98.5t98.5 146.5t36 180t-36 181t-98.5 147.5 t-146.5 98.5t-180 36t-181 -36t-147.5 -98.5t-98.5 -147.5t-36 -181z"/>
<glyph unicode="h" horiz-adv-x="942" d="M100 0v1434h66v-572q53 80 139 129t191 49q82 0 153.5 -30.5t124.5 -84t85 -124t32 -152.5v-649h-66v653q0 68 -26.5 126.5t-70.5 102.5t-104.5 68.5t-127.5 24.5q-68 0 -128.5 -24.5t-104.5 -67.5t-70.5 -100.5t-26.5 -125.5v-657h-66z"/>
<glyph unicode="i" horiz-adv-x="225" d="M66 1194q0 18 13 31.5t34 13.5q18 0 31.5 -13.5t13.5 -31.5q0 -20 -13.5 -33.5t-31.5 -13.5q-20 0 -33.5 13.5t-13.5 33.5zM80 0v1026h65v-1026h-65z"/>
<glyph unicode="j" horiz-adv-x="380" d="M39 -463l47 47q18 -16 49 -16q35 0 61.5 26.5t26.5 61.5v1370h66v-1374q0 -31 -13.5 -57.5t-35 -47t-49 -33t-56.5 -12.5q-55 0 -96 35zM209 1194q0 18 13.5 31.5t33.5 13.5q18 0 31.5 -13.5t13.5 -31.5q0 -20 -13.5 -33.5t-31.5 -13.5q-20 0 -33.5 13.5t-13.5 33.5z"/>
<glyph unicode="k" horiz-adv-x="593" d="M100 0v1434h66v-836l2 -6l309 432h76l-344 -489l375 -535h-82l-336 477v-477h-66z"/>
<glyph unicode="l" horiz-adv-x="251" d="M100 0v1434h66v-1434h-66z"/>
<glyph unicode="m" horiz-adv-x="1714" d="M100 0v1024l66 -49v-113q53 80 139 129t191 49q123 0 219 -65.5t143 -169.5q47 104 143.5 169.5t219.5 65.5q82 0 153.5 -30.5t125.5 -85t86 -127t32 -154.5v-643h-66v643q0 68 -26.5 128t-71.5 105.5t-105.5 71t-127.5 25.5q-68 0 -126.5 -24.5t-103.5 -67.5 t-71.5 -101.5t-28.5 -124.5v-12v-643h-66v653q0 68 -26.5 126.5t-70.5 102.5t-104.5 68.5t-127.5 24.5q-68 0 -128.5 -24.5t-104.5 -67.5t-70.5 -100.5t-26.5 -125.5v-657h-66z"/>
<glyph unicode="n" horiz-adv-x="983" d="M100 0v1024l66 -49v-113q53 80 139 129t191 49q82 0 153.5 -30.5t124.5 -84t85 -124t32 -152.5v-649h-66v653q0 68 -26.5 126.5t-70.5 102.5t-104.5 68.5t-127.5 24.5q-68 0 -128.5 -24.5t-104.5 -67.5t-70.5 -100.5t-26.5 -125.5v-657h-66z"/>
<glyph unicode="o" horiz-adv-x="1212" d="M78 514q0 109 41 205t113.5 167.5t169 112.5t206.5 41q109 0 205 -41t168 -112.5t113 -167.5t41 -205q0 -111 -41 -207t-113 -168.5t-168 -113.5t-205 -41q-111 0 -207 41t-168.5 113.5t-113.5 168.5t-41 207zM145 514q0 -96 36 -181t98.5 -147.5t147.5 -98.5t181 -36 t180 36t146.5 98.5t98.5 147.5t36 181t-36 180t-98.5 146.5t-146 98.5t-180.5 36q-96 0 -181 -36t-147.5 -98.5t-98.5 -146.5t-36 -180z"/>
<glyph unicode="p" horiz-adv-x="1202" d="M100 -418v1442l66 -49v-207q68 123 189.5 197.5t271.5 74.5q111 0 207 -41t168.5 -113.5t113.5 -168.5t41 -207q0 -109 -41 -205t-113.5 -167.5t-169 -112.5t-206.5 -41q-150 0 -272 74.5t-189 197.5v-674h-66zM166 510q0 -96 36 -180t98 -146.5t146 -98.5t181 -36 q96 0 181 36t147.5 98.5t98.5 146.5t36 180t-36 181t-98.5 147.5t-147.5 98.5t-181 36t-180.5 -36t-146.5 -98.5t-98 -147.5t-36 -181z"/>
<glyph unicode="q" horiz-adv-x="1202" d="M100 510q0 111 41 207t114 168.5t169 113.5t207 41q150 0 271.5 -74.5t189.5 -197.5v207l65 49v-1442h-65v674q-68 -123 -190 -197.5t-271 -74.5q-111 0 -207 41t-169 112.5t-114 167.5t-41 205zM168 510q0 -96 36 -180t98.5 -146.5t147.5 -98.5t181 -36t180 36 t146.5 98.5t98.5 146.5t36 180t-36 181t-98.5 147.5t-146.5 98.5t-180 36t-181 -36t-147.5 -98.5t-98.5 -147.5t-36 -181z"/>
<glyph unicode="r" horiz-adv-x="618" d="M100 0v1024l66 -49v-113q53 80 139 127t191 47h43.5t44.5 -4l-9 -65q-14 2 -39.5 3t-39.5 1q-68 0 -128.5 -23.5t-104.5 -65.5t-70.5 -99.5t-26.5 -125.5v-657h-66z"/>
<glyph unicode="s" horiz-adv-x="667" d="M80 117l65 26q12 -14 26.5 -30.5t36 -30.5t49.5 -23.5t67 -9.5q45 0 80.5 15.5t62.5 42t41 62.5t14 75q0 53 -15 91t-49 69.5t-86.5 63.5t-123.5 73q-45 25 -74 50t-47 48q-23 27 -32 63.5t-9 75.5q0 49 20.5 97.5t59.5 87.5q37 37 85 57t97 20q84 0 162 -55 q45 -33 65 -65l-65 -31q-23 31 -63.5 58.5t-106.5 27.5q-31 0 -64.5 -15.5t-61.5 -42t-45 -61.5t-17 -74q0 -33 8 -65.5t49 -69.5q23 -20 58.5 -39.5t68.5 -42.5q45 -27 91 -53.5t83 -67.5q41 -47 59.5 -94t18.5 -108q0 -113 -76 -185.5t-195 -72.5q-47 0 -88 15t-72.5 36.5 t-52 44t-24.5 37.5z"/>
<glyph unicode="t" horiz-adv-x="710" d="M35 958v66h289v287h65v-287h287v-66h-287v-958h-65v958h-289z"/>
<glyph unicode="u" horiz-adv-x="980" d="M92 375v649h66v-653q0 -68 26.5 -126.5t70.5 -102.5t104.5 -68.5t127.5 -24.5q68 0 128.5 24.5t104.5 67.5t70.5 100.5t26.5 125.5v657h66v-1024l-66 49v113q-53 -80 -139 -129t-191 -49q-82 0 -153.5 30.5t-125.5 84t-85 124t-31 152.5z"/>
<glyph unicode="v" horiz-adv-x="837" d="M45 1024h72l303 -907l303 909l70 -2l-347 -1024h-53z"/>
<glyph unicode="w" horiz-adv-x="1517" d="M68 1024h69l297 -897l301 897h49l301 -897l299 897h70l-340 -1024h-53l-301 899l-303 -899h-49z"/>
<glyph unicode="x" horiz-adv-x="858" d="M68 0l321 512l-321 512h77l283 -449l283 447h73l-315 -510l322 -512h-78l-285 449l-283 -449h-77z"/>
<glyph unicode="y" horiz-adv-x="892" d="M49 1024h78l328 -920l327 920h78l-520 -1446h-76l154 424z"/>
<glyph unicode="z" horiz-adv-x="829" d="M59 0v53l619 905h-612v66h704v-53l-618 -905h614v-66h-707z"/>
<glyph unicode="{" horiz-adv-x="614" d="M55 647v98q55 2 91 28t57.5 69t30 101t8.5 126v260q0 63 10 123.5t31.5 108t57.5 77t87 29.5h141v-65h-137q-37 0 -60.5 -23t-39 -57.5t-21.5 -75.5t-6 -78v-385q0 -141 -54 -214t-138 -73q84 0 139 -72.5t55 -213.5v-385q0 -37 6 -78t20.5 -76t38 -57.5t60.5 -22.5h137 v-65h-141q-51 0 -87 28.5t-57.5 76.5t-31.5 108.5t-10 123.5v261q0 68 -8.5 126t-30 101t-57 68.5t-91.5 27.5z"/>
<glyph unicode="|" horiz-adv-x="251" d="M100 -25v1602h66v-1602h-66z"/>
<glyph unicode="}" horiz-adv-x="614" d="M55 -209h138q37 0 60 22.5t37.5 57.5t20.5 76t6 78v385q0 141 55.5 213.5t139.5 72.5q-84 0 -138.5 73t-54.5 214v385q0 37 -6 78t-21.5 75.5t-39 57.5t-59.5 23h-138v65h142q51 0 86.5 -29.5t57 -77t32 -107.5t10.5 -124v-260q0 -68 8 -126t29.5 -101t57.5 -68.5 t91 -28.5v-98q-55 -2 -91 -27.5t-57.5 -68.5t-29.5 -101.5t-8 -125.5v-261q0 -63 -10.5 -123.5t-32 -108.5t-57 -76.5t-86.5 -28.5h-142v65z"/>
<glyph unicode="~" horiz-adv-x="1191" d="M86 444q0 14 13.5 45t44 61t78.5 52.5t118 22.5h27q57 -2 118.5 -27t123 -52.5t119.5 -52t108 -26.5h8q66 2 106.5 23.5t63.5 46.5q27 29 39 63l51 -20q0 -10 -10.5 -39t-38 -59.5t-77.5 -55.5t-130 -25q-57 0 -120.5 24t-126 52.5t-122 53t-110.5 28.5h-29 q-59 0 -95 -15.5t-57.5 -37t-33 -43t-19.5 -35.5z"/>
<glyph unicode="¡" horiz-adv-x="251" d="M80 1491q0 20 13 33.5t34 13.5q18 0 31.5 -13.5t13.5 -33.5q0 -18 -13.5 -31.5t-31.5 -13.5q-20 0 -33.5 13.5t-13.5 31.5zM94 -8v1386h66v-1386h-66z"/>
<glyph unicode="¢" horiz-adv-x="1103" d="M59 514q0 104 38 195.5t103.5 162t154.5 114.5t194 52v181h65v-181q141 -6 254 -77.5t179 -186.5l-56 -35q-55 102 -154.5 165t-222.5 69v-922q123 6 221.5 69.5t155.5 164.5l58 -33q-66 -117 -179.5 -188.5t-255.5 -77.5v-164h-65v164q-104 8 -193.5 51t-155 113.5 t-103.5 164t-38 199.5zM127 514q0 -92 31.5 -173t89 -142.5t134.5 -100.5t167 -47v922q-90 -8 -167 -47t-134.5 -100.5t-89 -141.5t-31.5 -170z"/>
<glyph unicode="£" horiz-adv-x="1185" d="M98 770v66h113q-31 57 -45 108t-14 123q0 100 37.5 188t103 155t154 104.5t188.5 37.5q127 0 233.5 -62.5t171.5 -160.5l-57 -31q-59 86 -149.5 137.5t-198.5 51.5q-86 0 -162 -34t-133 -90t-90 -133t-33 -163q0 -72 18.5 -123t53.5 -108h518v-66h-479q2 -4 10 -12 q20 -27 49 -68t55.5 -91t45 -105.5t18.5 -112.5q0 -100 -46 -182t-124 -133h385q68 0 126 25.5t103 69.5t71 102.5t26 125.5h65q0 -80 -30.5 -150.5t-83 -124t-123 -84t-152.5 -30.5h-586h-37v66h33q63 2 119.5 27.5t97.5 68.5t65.5 99t24.5 120q0 57 -24.5 118.5t-57 116 t-63.5 95.5t-43 59h-154z"/>
<glyph unicode="¤" horiz-adv-x="1245" d="M90 1194q0 12 10 23q8 8 23 8q14 0 24 -8l170 -170q61 53 139.5 84.5t166.5 31.5t166.5 -31.5t142.5 -89.5l168 168q8 8 24 9q14 0 23 -9q8 -8 8 -22q0 -16 -8 -25l-170 -170q53 -61 81.5 -137t28.5 -162q0 -88 -30.5 -165.5t-83.5 -139.5l168 -168q8 -10 8 -24t-8 -23 q-10 -10 -23 -10q-14 0 -24 10l-168 168q-61 -53 -139 -84t-164 -31q-88 0 -166 30t-140 83l-165 -166q-14 -10 -25 -10q-12 0 -23 10q-10 10 -10 23q0 10 10 24l166 166q-53 61 -83.5 139t-30.5 168q0 86 30.5 164t83.5 141l-170 170q-10 10 -10 25zM221 694 q0 -82 32 -154.5t87 -128t128 -87t155 -31.5t154.5 31.5t126.5 87t86 128t32 154.5t-33 156t-87 129t-126.5 87t-152.5 32q-82 0 -155 -33t-128 -88t-87 -128t-32 -155z"/>
<glyph unicode="¥" horiz-adv-x="1247" d="M55 569v66h508l-94 227h-414v66h385l-250 608h68l369 -897l366 897h72l-254 -608h381v-66h-408l-94 -227h502v-66h-530l-3 -8v-561h-65v561l-4 8h-535z"/>
<glyph unicode="¦" horiz-adv-x="251" d="M100 -25v650h66v-650h-66zM100 928v649h66v-649h-66z"/>
<glyph unicode="§" horiz-adv-x="1101" d="M70 500q0 33 8 65.5t35.5 74.5t80 96.5t142.5 127.5q-59 39 -92 75t-50.5 67.5t-21.5 60.5t-4 53q0 76 32.5 133.5t86 95t123 56t141.5 18.5q61 0 126.5 -12t122 -32.5t100.5 -46t67 -50.5l-52 -53q-10 10 -21 19t-24 20q-47 35 -116.5 62.5t-173.5 27.5 q-70 0 -132.5 -13.5t-110.5 -43t-76 -75.5t-28 -112q0 -25 12.5 -52.5t32 -54t44 -50t49.5 -39.5q51 -35 120.5 -67t143.5 -64.5t147.5 -69.5t131 -79t93 -93t35.5 -115q0 -68 -22.5 -118t-64.5 -92t-102 -76.5t-134 -71.5q37 -27 68.5 -52.5t56 -58.5t38 -74t13.5 -98 t-23.5 -110.5t-71.5 -93.5t-124 -64.5t-180 -24.5q-84 0 -150.5 19.5t-116 47t-80 59.5t-43.5 56l52 43q4 -8 8 -12q14 -18 35.5 -43.5t58.5 -49.5t94.5 -39t143.5 -15q57 0 116.5 11t107.5 39t78.5 73t30.5 110q0 70 -47 131.5t-112 102.5q-53 31 -118 56.5t-132.5 50 t-131 55t-112.5 71.5t-78.5 98.5t-29.5 139.5zM135 502q0 -66 31 -115t79 -88t108.5 -66.5t118.5 -48t109.5 -37t84.5 -30.5q55 23 111.5 52.5t100.5 64t71.5 77.5t27.5 95q0 43 -11.5 75.5t-28.5 55t-37.5 38t-39.5 25.5q-23 12 -87 44t-138 66.5t-142.5 65.5t-99.5 45 q-2 0 -42 -30.5t-88 -76.5t-88 -103.5t-40 -108.5z"/>
<glyph unicode="¨" horiz-adv-x="514" d="M92 1206q0 18 12.5 31.5t30.5 13.5q20 0 33.5 -13t13.5 -32q0 -20 -13 -33.5t-34 -13.5q-18 0 -30.5 13.5t-12.5 33.5zM334 1206q0 18 13 31.5t32 13.5q18 0 31.5 -13t13.5 -32q0 -20 -13.5 -33.5t-31.5 -13.5t-31.5 13.5t-13.5 33.5z"/>
<glyph unicode="©" horiz-adv-x="1640" d="M78 737q0 154 59.5 289t160.5 236.5t236.5 160t286.5 58.5q156 0 291 -58.5t235.5 -160t158 -236.5t57.5 -289q0 -152 -57.5 -287t-158 -236t-235.5 -159.5t-291 -58.5q-152 0 -287 58.5t-236 159.5t-160.5 236t-59.5 287zM154 737q0 -139 52 -260t142 -211t212 -142 t261 -52t262 52t215.5 142t145.5 211t53 260t-53 261t-145.5 212t-215 142.5t-262.5 52.5q-139 0 -261 -52.5t-212 -142.5t-142 -212t-52 -261zM381 735q0 94 36 179t100.5 148.5t150.5 101.5t188 38q51 0 92 -9t74 -22.5t56.5 -29t39.5 -25.5q10 -6 19.5 -13t17.5 -16 l-35 -36q-61 49 -134 72.5t-134 23.5q-90 0 -164 -32t-128 -88t-84 -131t-30 -161q0 -80 33 -154.5t88.5 -131t129 -90t157.5 -33.5q63 0 135 22.5t127 69.5l8 6l39 -25q-6 -8 -13 -14t-13 -12t-29 -23.5t-57.5 -35t-84 -31t-110.5 -13.5q-102 0 -188 38t-150.5 101.5 t-100.5 147.5t-36 178z"/>
<glyph unicode="ª" horiz-adv-x="888" d="M78 1135q0 74 27.5 138t76.5 112.5t114.5 76t139.5 27.5q100 0 182 -50t127 -134v182h46v-709l-46 49v134q-45 -84 -126.5 -134.5t-182.5 -50.5q-74 0 -139.5 27.5t-114.5 77t-76.5 115t-27.5 139.5zM123 1135q0 -66 24.5 -123.5t66.5 -99.5t99.5 -66.5t122.5 -24.5 q63 0 120.5 24.5t98.5 66.5t65.5 99.5t24.5 123.5q0 63 -24.5 120.5t-65.5 98.5t-98 65.5t-121 24.5q-66 0 -123 -24.5t-99 -65.5t-66.5 -98.5t-24.5 -120.5z"/>
<glyph unicode="«" horiz-adv-x="669" d="M45 559l262 408l53 -39l-237 -369l237 -369l-53 -38zM256 559l262 408l53 -39l-237 -369l237 -369l-53 -38z"/>
<glyph unicode="¬" horiz-adv-x="1558" d="M35 713v65h1042v-620h-63v555h-979z"/>
<glyph unicode="­" horiz-adv-x="806" d="M106 580v65h596v-65h-596z"/>
<glyph unicode="®" horiz-adv-x="1640" d="M78 737q0 154 59.5 289t160.5 236.5t236.5 160t286.5 58.5q156 0 291 -58.5t235.5 -160t158 -236.5t57.5 -289q0 -152 -57.5 -287t-158 -236t-235.5 -159.5t-291 -58.5q-152 0 -287 58.5t-236 159.5t-160.5 236t-59.5 287zM154 737q0 -139 52 -260t142 -211t212 -142 t261 -52t262 52t215.5 142t145.5 211t53 260t-53 261t-145.5 212t-215 142.5t-262.5 52.5q-139 0 -261 -52.5t-212 -142.5t-142 -212t-52 -261zM621 307h69v334q0 8 8 8h123q8 0 15 -8l149 -330h70l-160 355q86 35 127 106.5t41 155.5q0 57 -16.5 106t-50 86t-83 57.5 t-114.5 20.5h-178v-891zM686 723v397q0 12 10 13h127q55 0 89 -21.5t52.5 -53.5t25.5 -68t7 -62q0 -18 -7 -54t-25.5 -71t-52 -60.5t-89.5 -25.5h-127q-10 0 -10 6z"/>
<glyph unicode="¯" horiz-adv-x="843" d="M98 1368v66h647v-66h-647z"/>
<glyph unicode="°" horiz-adv-x="815" d="M78 1153q0 68 25.5 128t70.5 105.5t105.5 71t128.5 25.5t128 -25.5t105 -71t70.5 -105.5t25.5 -128t-25.5 -128t-70.5 -105.5t-105.5 -71t-127.5 -25.5q-68 0 -128.5 25.5t-105.5 71t-70.5 105.5t-25.5 128zM143 1153q0 -55 20.5 -103.5t56.5 -84t84 -56t104 -20.5 q55 0 103 20.5t84 56t56.5 84t20.5 103.5t-20.5 103.5t-56.5 84t-84 56t-103 20.5t-103.5 -20.5t-84.5 -56t-56.5 -84t-20.5 -103.5z"/>
<glyph unicode="±" horiz-adv-x="956" d="M37 625v65h407v367h66v-367h408v-65h-408v-367h-66v367h-407zM39 129v66h881v-66h-881z"/>
<glyph unicode="²" horiz-adv-x="831" d="M133 1062q8 52 32.5 96t63 77t86 51.5t102.5 18.5q59 0 110 -22t90 -61t61.5 -90.5t22.5 -110.5q0 -32 -9.5 -64.5t-25.5 -63t-35.5 -57t-41.5 -46.5l-387 -379h499v-40h-563v38l427 415q18 17 35 40t30.5 49t22.5 54t9 54q0 50 -19.5 95t-52.5 78t-78 52.5t-95 19.5 q-48 0 -89 -16.5t-74 -45t-54 -67t-27 -83.5z"/>
<glyph unicode="³" horiz-adv-x="806" d="M104 638h40q1 -50 21 -93t54 -75t77.5 -51t94.5 -19q52 0 97 19.5t78.5 52.5t52.5 78.5t19 97.5q0 48 -17.5 91t-48 75.5t-72 53.5t-88.5 26v40q56 14 91.5 59.5t35.5 104.5q0 34 -13.5 66t-36.5 55t-54 36.5t-66 13.5q-61 0 -106.5 -37t-59.5 -95l-37 14q9 35 28 63.5 t45.5 49.5t59.5 32.5t70 11.5q44 0 82 -16.5t66 -45t45 -66.5t17 -82q0 -56 -27.5 -102.5t-71.5 -74.5q44 -14 80 -40t62 -62t41 -79.5t15 -91.5q0 -59 -23 -112t-61.5 -92t-90.5 -61t-112 -22q-58 0 -109.5 21.5t-90 58.5t-62 88t-25.5 109z"/>
<glyph unicode="´" horiz-adv-x="526" d="M41 1196l414 168l26 -59l-413 -168z"/>
<glyph unicode="¶" horiz-adv-x="894" d="M43 1094q0 111 35 181.5t98.5 111t152.5 56t195 15.5h273v-1896h-66v1831h-143v-1833h-66v1183q-109 2 -196.5 27t-150 70t-97.5 109.5t-35 144.5z"/>
<glyph unicode="·" horiz-adv-x="229" d="M70 780q0 18 13 31.5t34 13.5q18 0 31.5 -13t13.5 -32q0 -20 -13.5 -33.5t-31.5 -13.5q-20 0 -33.5 13.5t-13.5 33.5z"/>
<glyph unicode="¸" horiz-adv-x="534" d="M66 -385l43 49q25 -10 56.5 -27.5t86.5 -17.5q23 0 49.5 8t48 23.5t35.5 39t14 54.5q0 59 -32.5 78.5t-59.5 19.5q-29 0 -48 -2t-32 -6q-14 -4 -24 -8l-43 24l106 150h58l-80 -104q10 0 22.5 3t44.5 3q66 0 110 -41t44 -115q0 -49 -19.5 -86t-51.5 -60.5t-70.5 -34.5 t-75.5 -11q-49 0 -104.5 17t-77.5 44z"/>
<glyph unicode="¹" horiz-adv-x="374" d="M161 1249v40h198v-921h-39v881h-159z"/>
<glyph unicode="º" horiz-adv-x="864" d="M78 1128q0 74 27.5 137.5t75.5 111.5t113.5 76t139.5 28t137.5 -28t111.5 -76t75.5 -111.5t27.5 -137.5t-27.5 -139t-75.5 -113.5t-111.5 -76t-137.5 -27.5t-139.5 27.5t-113.5 76t-75.5 113.5t-27.5 139zM123 1128q0 -66 24.5 -123t67.5 -100t100.5 -67.5t122.5 -24.5 q63 0 120.5 24.5t99.5 67.5t67 100.5t25 122.5q0 63 -25 120t-67 99t-99 66.5t-121 24.5q-66 0 -123 -24.5t-100 -66.5t-67.5 -99t-24.5 -120z"/>
<glyph unicode="»" horiz-adv-x="671" d="M45 190l238 369l-238 369l53 39l262 -408l-262 -407zM256 190l238 369l-238 369l53 39l262 -408l-262 -407z"/>
<glyph unicode="¼" horiz-adv-x="1388" d="M53 1481v55h228v-999h-56v944h-172zM348 10l451 1532l63 -14l-448 -1536zM682 262l467 737h45v-729h131v-55h-131v-215h-55v215h-455zM754 270h385v623z"/>
<glyph unicode="½" horiz-adv-x="1505" d="M53 1481v55h228v-999h-56v944h-172zM348 10l451 1532l63 -14l-448 -1536zM823 743q8 55 36 103.5t68 83.5t92 55.5t109 20.5q63 0 120 -25t97.5 -66t65.5 -97t25 -120q0 -68 -37 -136t-84 -111l-406 -396h527v-55h-607v53l447 434q37 37 70.5 95.5t33.5 115.5 q0 111 -70.5 181.5t-181.5 70.5q-100 0 -167.5 -58t-81.5 -157z"/>
<glyph unicode="¾" horiz-adv-x="1611" d="M47 813h55q4 -109 75 -176.5t179 -67.5q55 0 101.5 18.5t80 52.5t53 81t19.5 102q0 51 -19.5 97.5t-52 82t-76.5 58t-95 26.5v43q59 16 98 64.5t39 112.5q0 78 -47 125t-125 47q-66 0 -109 -34t-57 -95l-51 14q18 74 77.5 122t139.5 48q47 0 88 -17.5t71.5 -48t49 -72.5 t18.5 -89q0 -59 -29.5 -109.5t-76.5 -81.5q92 -29 152.5 -109.5t60.5 -183.5q0 -63 -25 -119.5t-67 -98.5t-98 -66.5t-120 -24.5q-61 0 -116.5 23.5t-97.5 63.5t-67.5 94.5t-27.5 117.5zM582 10l450 1532l64 -14l-449 -1536zM915 262l467 737h45v-729h132v-55h-132v-215h-55 v215h-454zM987 270h385v623z"/>
<glyph unicode="¿" horiz-adv-x="864" d="M51 381q0 86 30 152.5t95 132.5q23 29 88.5 77t135 110t124 137t54.5 155q0 66 -41 110.5t-105 53.5l17 65q86 -12 140 -76.5t54 -152.5q0 -78 -38 -145.5t-98.5 -130t-134 -122t-143.5 -122.5q-53 -49 -82.5 -108.5t-29.5 -135.5q0 -68 25.5 -126t69.5 -102t102.5 -70 t125.5 -26q57 0 110.5 19.5t94.5 54.5t69.5 82t41.5 102l63 -14q-14 -66 -48 -123t-84 -98t-113.5 -64.5t-133.5 -23.5q-80 0 -151.5 30.5t-123.5 83t-83 124t-31 151.5zM455 1503q0 16 12 28.5t29 12.5q16 0 28.5 -12.5t12.5 -28.5t-12.5 -28.5t-28.5 -12.5t-28.5 12.5 t-12.5 28.5z"/>
<glyph unicode="À" horiz-adv-x="1210" d="M49 0l529 1536h53l528 -1536h-67l-140 403h-694l-137 -403h-72zM281 469h649l-326 944zM385 1715l27 59l413 -168l-26 -59z"/>
<glyph unicode="Á" horiz-adv-x="1210" d="M49 0l529 1536h53l528 -1536h-67l-140 403h-694l-137 -403h-72zM281 469h649l-326 944zM385 1606l414 168l26 -59l-413 -168z"/>
<glyph unicode="Â" horiz-adv-x="1210" d="M49 0l529 1536h53l528 -1536h-67l-140 403h-694l-137 -403h-72zM281 469h649l-326 944zM424 1561l6 66l175 73l174 -73l6 -66q-16 0 -53 16.5t-127 57.5q-90 -41 -127 -57.5t-54 -16.5z"/>
<glyph unicode="Ã" horiz-adv-x="1210" d="M49 0l529 1536h53l528 -1536h-67l-140 403h-694l-137 -403h-72zM266 1610q14 25 37 45q20 16 51 30.5t76 14.5h10q41 0 80 -9t74 -19q18 -6 35.5 -12.5t36 -12.5t43 -9t59.5 -3t62.5 9t45.5 19q23 12 39 31l27 -24q-20 -25 -43 -46q-23 -16 -51.5 -30.5t-65.5 -14.5h-14 q-41 0 -81 9.5t-83 23.5q-45 12 -87 22.5t-77 10.5q-37 0 -64.5 -10.5t-45.5 -20.5q-23 -12 -37 -28zM281 469h649l-326 944z"/>
<glyph unicode="Ä" horiz-adv-x="1210" d="M49 0l529 1536h53l528 -1536h-67l-140 403h-694l-137 -403h-72zM281 469h649l-326 944zM438 1616q0 18 12.5 31.5t30.5 13.5q20 0 33.5 -13t13.5 -32q0 -20 -13 -33.5t-34 -13.5q-18 0 -30.5 13.5t-12.5 33.5zM680 1616q0 18 13 31.5t32 13.5q18 0 31.5 -13t13.5 -32 q0 -20 -13.5 -33.5t-31.5 -13.5t-31.5 13.5t-13.5 33.5z"/>
<glyph unicode="Å" horiz-adv-x="1210" d="M49 0l529 1536h53l528 -1536h-67l-140 403h-694l-137 -403h-72zM281 469h649l-326 944zM514 1641q0 39 25.5 64.5t66.5 25.5q39 0 64.5 -25.5t25.5 -64.5q0 -41 -25.5 -66.5t-64.5 -25.5q-41 0 -66.5 25.5t-25.5 66.5zM549 1641q0 -57 57 -57q23 0 39.5 15t16.5 42 q0 23 -16.5 39t-39.5 16q-27 0 -42 -16.5t-15 -38.5z"/>
<glyph unicode="Æ" horiz-adv-x="1521" d="M49 0l682 1536h737v-66h-641v-614h641v-65h-641v-725h641v-66h-706v403h-455l-186 -403h-72zM330 469h428v944z"/>
<glyph unicode="Ç" horiz-adv-x="1509" d="M80 768q0 162 61.5 305.5t168 250t248.5 167.5t306 61t306.5 -60t248.5 -167l-47 -47q-98 98 -228 153.5t-280 55.5q-147 0 -278 -56.5t-229.5 -153.5t-155 -228t-56.5 -281q0 -147 56.5 -278.5t155 -229.5t229.5 -154.5t278 -56.5t277.5 56.5t228.5 152.5l47 -47 q-106 -106 -247.5 -166.5t-305.5 -60.5t-306 61t-248.5 167.5t-168 249t-61.5 306.5zM555 -385l43 49q25 -10 56.5 -27.5t86.5 -17.5q23 0 49.5 8t48 23.5t36 39t14.5 54.5q0 59 -33 78.5t-59 19.5q-29 0 -48.5 -2t-31.5 -6q-14 -4 -25 -8l-43 24l107 150h57l-80 -104 q10 0 22.5 3t45.5 3q66 0 109.5 -41t43.5 -115q0 -49 -19.5 -86t-51 -60.5t-70.5 -34.5t-76 -11q-49 0 -104 17t-78 44z"/>
<glyph unicode="È" horiz-adv-x="901" d="M109 0v1536h706v-66h-641v-614h641v-65h-641v-725h641v-66h-706zM229 1715l27 59l413 -168l-26 -59z"/>
<glyph unicode="É" horiz-adv-x="901" d="M109 0v1536h706v-66h-641v-614h641v-65h-641v-725h641v-66h-706zM229 1606l414 168l26 -59l-413 -168z"/>
<glyph unicode="Ê" horiz-adv-x="901" d="M109 0v1536h706v-66h-641v-614h641v-65h-641v-725h641v-66h-706zM270 1561l6 66l175 73l174 -73l6 -66q-16 0 -53 16.5t-127 57.5q-90 -41 -127 -57.5t-54 -16.5z"/>
<glyph unicode="Ë" horiz-adv-x="901" d="M109 0v1536h706v-66h-641v-614h641v-65h-641v-725h641v-66h-706zM285 1616q0 18 12.5 31.5t30.5 13.5q20 0 33.5 -13t13.5 -32q0 -20 -13 -33.5t-34 -13.5q-18 0 -30.5 13.5t-12.5 33.5zM527 1616q0 18 13 31.5t32 13.5q18 0 31.5 -13t13.5 -32q0 -20 -13.5 -33.5 t-31.5 -13.5t-31.5 13.5t-13.5 33.5z"/>
<glyph unicode="Ì" horiz-adv-x="262" d="M-86 1715l27 59l413 -168l-26 -59zM106 0v1536h66v-1536h-66z"/>
<glyph unicode="Í" horiz-adv-x="262" d="M-86 1606l414 168l26 -59l-413 -168zM106 0v1536h66v-1536h-66z"/>
<glyph unicode="Î" horiz-adv-x="262" d="M-47 1561l6 66l175 73l174 -73l6 -66q-16 0 -53 16.5t-127 57.5q-90 -41 -127 -57.5t-54 -16.5zM106 0v1536h66v-1536h-66z"/>
<glyph unicode="Ï" horiz-adv-x="262" d="M-33 1616q0 18 12.5 31.5t30.5 13.5q20 0 33.5 -13t13.5 -32q0 -20 -13 -33.5t-34 -13.5q-18 0 -30.5 13.5t-12.5 33.5zM106 0v1536h66v-1536h-66zM209 1616q0 18 13 31.5t32 13.5q18 0 31.5 -13t13.5 -32q0 -20 -13.5 -33.5t-31.5 -13.5t-31.5 13.5t-13.5 33.5z"/>
<glyph unicode="Ð" horiz-adv-x="1497" d="M61 702v64h258v770h334q160 0 300.5 -60.5t243.5 -164t163.5 -243.5t60.5 -300t-60.5 -300t-163.5 -243.5t-243.5 -164t-300.5 -60.5h-334v702h-258zM385 66h268q145 0 273.5 55t223.5 151.5t150.5 223.5t55.5 272t-55.5 273t-150.5 223.5t-223 150.5t-274 55h-268v-704 h254v-66h-254v-634z"/>
<glyph unicode="Ñ" horiz-adv-x="1230" d="M104 0v1536h58l901 -1401v1401h65v-1536h-57l-901 1401v-1401h-66zM276 1610q14 25 37 45q20 16 51 30.5t76 14.5h10q41 0 80 -9t74 -19q18 -6 35.5 -12.5t36 -12.5t43 -9t59.5 -3t62.5 9t45.5 19q23 12 39 31l27 -24q-20 -25 -43 -46q-23 -16 -51.5 -30.5t-65.5 -14.5 h-14q-41 0 -81 9.5t-83 23.5q-45 12 -87 22.5t-77 10.5q-37 0 -64.5 -10.5t-45.5 -20.5q-23 -12 -37 -28z"/>
<glyph unicode="Ò" horiz-adv-x="1732" d="M82 768q0 162 61.5 305.5t168 250t248.5 167.5t306 61q162 0 305.5 -61t250 -167.5t168 -250t61.5 -305.5q0 -164 -61.5 -306.5t-168 -249t-250 -167.5t-305.5 -61q-164 0 -306 61t-248.5 167.5t-168 249t-61.5 306.5zM147 768q0 -147 56.5 -278.5t155 -229.5 t229.5 -154.5t278 -56.5q150 0 281 56.5t228.5 154.5t153.5 229.5t56 278.5q0 150 -56 281t-153.5 228t-228.5 153.5t-281 56.5q-147 0 -278 -56.5t-229.5 -153.5t-155 -228t-56.5 -281zM645 1715l27 59l413 -168l-26 -59z"/>
<glyph unicode="Ó" horiz-adv-x="1732" d="M82 768q0 162 61.5 305.5t168 250t248.5 167.5t306 61q162 0 305.5 -61t250 -167.5t168 -250t61.5 -305.5q0 -164 -61.5 -306.5t-168 -249t-250 -167.5t-305.5 -61q-164 0 -306 61t-248.5 167.5t-168 249t-61.5 306.5zM147 768q0 -147 56.5 -278.5t155 -229.5 t229.5 -154.5t278 -56.5q150 0 281 56.5t228.5 154.5t153.5 229.5t56 278.5q0 150 -56 281t-153.5 228t-228.5 153.5t-281 56.5q-147 0 -278 -56.5t-229.5 -153.5t-155 -228t-56.5 -281zM645 1606l414 168l26 -59l-413 -168z"/>
<glyph unicode="Ô" horiz-adv-x="1732" d="M82 768q0 162 61.5 305.5t168 250t248.5 167.5t306 61q162 0 305.5 -61t250 -167.5t168 -250t61.5 -305.5q0 -164 -61.5 -306.5t-168 -249t-250 -167.5t-305.5 -61q-164 0 -306 61t-248.5 167.5t-168 249t-61.5 306.5zM147 768q0 -147 56.5 -278.5t155 -229.5 t229.5 -154.5t278 -56.5q150 0 281 56.5t228.5 154.5t153.5 229.5t56 278.5q0 150 -56 281t-153.5 228t-228.5 153.5t-281 56.5q-147 0 -278 -56.5t-229.5 -153.5t-155 -228t-56.5 -281zM686 1561l6 66l175 73l174 -73l6 -66q-16 0 -53 16.5t-127 57.5q-90 -41 -127 -57.5 t-54 -16.5z"/>
<glyph unicode="Õ" horiz-adv-x="1732" d="M82 768q0 162 61.5 305.5t168 250t248.5 167.5t306 61q162 0 305.5 -61t250 -167.5t168 -250t61.5 -305.5q0 -164 -61.5 -306.5t-168 -249t-250 -167.5t-305.5 -61q-164 0 -306 61t-248.5 167.5t-168 249t-61.5 306.5zM147 768q0 -147 56.5 -278.5t155 -229.5 t229.5 -154.5t278 -56.5q150 0 281 56.5t228.5 154.5t153.5 229.5t56 278.5q0 150 -56 281t-153.5 228t-228.5 153.5t-281 56.5q-147 0 -278 -56.5t-229.5 -153.5t-155 -228t-56.5 -281zM528 1610q14 25 37 45q20 16 51 30.5t76 14.5h10q41 0 80 -9t74 -19q18 -6 35.5 -12.5 t36 -12.5t43 -9t59.5 -3t62.5 9t45.5 19q23 12 39 31l27 -24q-20 -25 -43 -46q-23 -16 -51.5 -30.5t-65.5 -14.5h-14q-41 0 -81 9.5t-83 23.5q-45 12 -87 22.5t-77 10.5q-37 0 -64.5 -10.5t-45.5 -20.5q-23 -12 -37 -28z"/>
<glyph unicode="Ö" horiz-adv-x="1732" d="M82 768q0 162 61.5 305.5t168 250t248.5 167.5t306 61q162 0 305.5 -61t250 -167.5t168 -250t61.5 -305.5q0 -164 -61.5 -306.5t-168 -249t-250 -167.5t-305.5 -61q-164 0 -306 61t-248.5 167.5t-168 249t-61.5 306.5zM147 768q0 -147 56.5 -278.5t155 -229.5 t229.5 -154.5t278 -56.5q150 0 281 56.5t228.5 154.5t153.5 229.5t56 278.5q0 150 -56 281t-153.5 228t-228.5 153.5t-281 56.5q-147 0 -278 -56.5t-229.5 -153.5t-155 -228t-56.5 -281zM700 1616q0 18 12.5 31.5t30.5 13.5q20 0 33.5 -13t13.5 -32q0 -20 -13 -33.5 t-34 -13.5q-18 0 -30.5 13.5t-12.5 33.5zM942 1616q0 18 13 31.5t32 13.5q18 0 31.5 -13t13.5 -32q0 -20 -13.5 -33.5t-31.5 -13.5t-31.5 13.5t-13.5 33.5z"/>
<glyph unicode="×" horiz-adv-x="1044" d="M141 238l287 288l-287 289l45 45l289 -287l289 287l45 -45l-287 -289l287 -288l-45 -45l-289 286l-289 -286z"/>
<glyph unicode="Ø" horiz-adv-x="1712" d="M72 768q0 162 61.5 305.5t168 250t248.5 167.5t306 61q45 0 88 -5t84 -15l25 84h63l-26 -100q119 -37 220 -109t175 -170t114.5 -218t40.5 -251q0 -164 -61 -306.5t-167.5 -249t-250 -167.5t-305.5 -61q-53 0 -104.5 7t-100.5 19l-26 -98h-74l37 119q-113 41 -208 113.5 t-164 169t-106.5 212t-37.5 242.5zM137 768q0 -115 35 -220.5t97.5 -193.5t148.5 -154.5t188 -105.5l404 1376q-78 16 -154 17q-147 0 -278.5 -56.5t-229.5 -153.5t-154.5 -228t-56.5 -281zM670 74q88 -25 186 -25q150 0 281 56.5t228 154.5t153.5 229.5t56.5 278.5 q0 121 -38 230.5t-104.5 198.5t-158.5 154.5t-203 100.5z"/>
<glyph unicode="Ù" horiz-adv-x="993" d="M98 381v1155h66v-1155q0 -70 26.5 -130.5t71.5 -105.5t105.5 -71.5t130.5 -26.5q68 0 129 26.5t106 71.5t71.5 105.5t26.5 130.5v1155h66v-1153q0 -84 -31.5 -156.5t-85 -126t-127 -85t-155.5 -31.5q-84 0 -157 30.5t-126 85t-85 126t-32 155.5zM277 1715l27 59l413 -168 l-26 -59z"/>
<glyph unicode="Ú" horiz-adv-x="993" d="M98 381v1155h66v-1155q0 -70 26.5 -130.5t71.5 -105.5t105.5 -71.5t130.5 -26.5q68 0 129 26.5t106 71.5t71.5 105.5t26.5 130.5v1155h66v-1153q0 -84 -31.5 -156.5t-85 -126t-127 -85t-155.5 -31.5q-84 0 -157 30.5t-126 85t-85 126t-32 155.5zM277 1606l414 168l26 -59 l-413 -168z"/>
<glyph unicode="Û" horiz-adv-x="993" d="M98 381v1155h66v-1155q0 -70 26.5 -130.5t71.5 -105.5t105.5 -71.5t130.5 -26.5q68 0 129 26.5t106 71.5t71.5 105.5t26.5 130.5v1155h66v-1153q0 -84 -31.5 -156.5t-85 -126t-127 -85t-155.5 -31.5q-84 0 -157 30.5t-126 85t-85 126t-32 155.5zM315 1561l6 66l175 73 l174 -73l6 -66q-16 0 -53 16.5t-127 57.5q-90 -41 -127 -57.5t-54 -16.5z"/>
<glyph unicode="Ü" horiz-adv-x="993" d="M98 381v1155h66v-1155q0 -70 26.5 -130.5t71.5 -105.5t105.5 -71.5t130.5 -26.5q68 0 129 26.5t106 71.5t71.5 105.5t26.5 130.5v1155h66v-1153q0 -84 -31.5 -156.5t-85 -126t-127 -85t-155.5 -31.5q-84 0 -157 30.5t-126 85t-85 126t-32 155.5zM330 1616q0 18 12.5 31.5 t30.5 13.5q20 0 33.5 -13t13.5 -32q0 -20 -13 -33.5t-34 -13.5q-18 0 -30.5 13.5t-12.5 33.5zM572 1616q0 18 13 31.5t32 13.5q18 0 31.5 -13t13.5 -32q0 -20 -13.5 -33.5t-31.5 -13.5t-31.5 13.5t-13.5 33.5z"/>
<glyph unicode="Ý" horiz-adv-x="954" d="M41 1536h68l368 -897l367 897h71l-405 -975v-561h-66v561zM256 1606l414 168l26 -59l-413 -168z"/>
<glyph unicode="Þ" horiz-adv-x="821" d="M100 -2v1538h66v-336h190q84 0 159 -31.5t130 -87t87 -130t32 -158.5t-32 -158t-87 -129t-130 -87t-159 -32h-190v-389h-66zM166 453h190q72 0 134.5 26.5t108.5 72.5t72.5 107.5t26.5 133.5t-26.5 134t-72.5 108t-108.5 73t-134.5 27h-190v-682z"/>
<glyph unicode="ß" horiz-adv-x="946" d="M100 0v1536h256q84 0 159 -31.5t130 -87t87 -130.5t32 -159q0 -113 -54.5 -205t-146.5 -145q68 -14 125 -49t99 -86t67 -114.5t25 -135.5q0 -82 -31 -153.5t-84 -125t-125 -84t-154 -30.5h-196v66h196q68 0 128.5 25.5t104.5 69.5t69.5 104.5t25.5 127.5 q0 68 -25.5 128.5t-69.5 105.5t-104.5 70.5t-128.5 25.5h-196v65h65q72 0 134.5 27t109.5 73t73.5 107.5t26.5 132.5q0 72 -26.5 134.5t-72.5 108.5t-108.5 72.5t-134.5 26.5h-190v-1470h-66z"/>
<glyph unicode="à" horiz-adv-x="1232" d="M78 514q0 109 41 205t113.5 167.5t169 112.5t206.5 41q150 0 271.5 -74.5t189.5 -197.5v256h66v-1024l-66 51v205q-68 -123 -189.5 -197.5t-271.5 -74.5q-111 0 -207 41t-168.5 113.5t-113.5 168.5t-41 207zM145 514q0 -96 36 -181t98.5 -147.5t147.5 -98.5t181 -36 t180 36t146.5 98.5t98.5 147.5t36 181t-36 180t-98.5 146.5t-146 98.5t-180.5 36q-96 0 -181 -36t-147.5 -98.5t-98.5 -146.5t-36 -180zM395 1305l27 59l413 -168l-26 -59z"/>
<glyph unicode="á" horiz-adv-x="1232" d="M78 514q0 109 41 205t113.5 167.5t169 112.5t206.5 41q150 0 271.5 -74.5t189.5 -197.5v256h66v-1024l-66 51v205q-68 -123 -189.5 -197.5t-271.5 -74.5q-111 0 -207 41t-168.5 113.5t-113.5 168.5t-41 207zM145 514q0 -96 36 -181t98.5 -147.5t147.5 -98.5t181 -36 t180 36t146.5 98.5t98.5 147.5t36 181t-36 180t-98.5 146.5t-146 98.5t-180.5 36q-96 0 -181 -36t-147.5 -98.5t-98.5 -146.5t-36 -180zM395 1196l414 168l26 -59l-413 -168z"/>
<glyph unicode="â" horiz-adv-x="1232" d="M78 514q0 109 41 205t113.5 167.5t169 112.5t206.5 41q150 0 271.5 -74.5t189.5 -197.5v256h66v-1024l-66 51v205q-68 -123 -189.5 -197.5t-271.5 -74.5q-111 0 -207 41t-168.5 113.5t-113.5 168.5t-41 207zM145 514q0 -96 36 -181t98.5 -147.5t147.5 -98.5t181 -36 t180 36t146.5 98.5t98.5 147.5t36 181t-36 180t-98.5 146.5t-146 98.5t-180.5 36q-96 0 -181 -36t-147.5 -98.5t-98.5 -146.5t-36 -180zM436 1151l6 66l175 73l174 -73l6 -66q-16 0 -53 16.5t-127 57.5q-90 -41 -127 -57.5t-54 -16.5z"/>
<glyph unicode="ã" horiz-adv-x="1232" d="M78 514q0 109 41 205t113.5 167.5t169 112.5t206.5 41q150 0 271.5 -74.5t189.5 -197.5v256h66v-1024l-66 51v205q-68 -123 -189.5 -197.5t-271.5 -74.5q-111 0 -207 41t-168.5 113.5t-113.5 168.5t-41 207zM145 514q0 -96 36 -181t98.5 -147.5t147.5 -98.5t181 -36 t180 36t146.5 98.5t98.5 147.5t36 181t-36 180t-98.5 146.5t-146 98.5t-180.5 36q-96 0 -181 -36t-147.5 -98.5t-98.5 -146.5t-36 -180zM278 1200q14 25 37 45q20 16 51 30.5t76 14.5h10q41 0 80 -9t74 -19q18 -6 35.5 -12.5t36 -12.5t43 -9t59.5 -3t62.5 9t45.5 19 q23 12 39 31l27 -24q-20 -25 -43 -46q-23 -16 -51.5 -30.5t-65.5 -14.5h-14q-41 0 -81 9.5t-83 23.5q-45 12 -87 22.5t-77 10.5q-37 0 -64.5 -10.5t-45.5 -20.5q-23 -12 -37 -28z"/>
<glyph unicode="ä" horiz-adv-x="1232" d="M78 514q0 109 41 205t113.5 167.5t169 112.5t206.5 41q150 0 271.5 -74.5t189.5 -197.5v256h66v-1024l-66 51v205q-68 -123 -189.5 -197.5t-271.5 -74.5q-111 0 -207 41t-168.5 113.5t-113.5 168.5t-41 207zM145 514q0 -96 36 -181t98.5 -147.5t147.5 -98.5t181 -36 t180 36t146.5 98.5t98.5 147.5t36 181t-36 180t-98.5 146.5t-146 98.5t-180.5 36q-96 0 -181 -36t-147.5 -98.5t-98.5 -146.5t-36 -180zM450 1206q0 18 12.5 31.5t30.5 13.5q20 0 33.5 -13t13.5 -32q0 -20 -13 -33.5t-34 -13.5q-18 0 -30.5 13.5t-12.5 33.5zM692 1206 q0 18 13 31.5t32 13.5q18 0 31.5 -13t13.5 -32q0 -20 -13.5 -33.5t-31.5 -13.5t-31.5 13.5t-13.5 33.5z"/>
<glyph unicode="å" horiz-adv-x="1232" d="M78 514q0 109 41 205t113.5 167.5t169 112.5t206.5 41q150 0 271.5 -74.5t189.5 -197.5v256h66v-1024l-66 51v205q-68 -123 -189.5 -197.5t-271.5 -74.5q-111 0 -207 41t-168.5 113.5t-113.5 168.5t-41 207zM145 514q0 -96 36 -181t98.5 -147.5t147.5 -98.5t181 -36 t180 36t146.5 98.5t98.5 147.5t36 181t-36 180t-98.5 146.5t-146 98.5t-180.5 36q-96 0 -181 -36t-147.5 -98.5t-98.5 -146.5t-36 -180zM524 1231q0 39 25.5 64.5t66.5 25.5q39 0 64.5 -25.5t25.5 -64.5q0 -41 -25.5 -66.5t-64.5 -25.5q-41 0 -66.5 25.5t-25.5 66.5z M559 1231q0 -57 57 -57q23 0 39.5 15t16.5 42q0 23 -16.5 39t-39.5 16q-27 0 -42 -16.5t-15 -38.5z"/>
<glyph unicode="æ" horiz-adv-x="2138" d="M78 514q0 109 41 205t113.5 167.5t169 112.5t206.5 41q150 0 271.5 -74.5t189.5 -197.5v256h66v-1024l-66 51v205q-68 -123 -189.5 -197.5t-271.5 -74.5q-111 0 -207 41t-168.5 113.5t-113.5 168.5t-41 207zM145 514q0 -96 36 -181t98.5 -147.5t147.5 -98.5t181 -36 t180 36t146.5 98.5t98.5 147.5t36 181t-36 180t-98.5 146.5t-146 98.5t-180.5 36q-96 0 -181 -36t-147.5 -98.5t-98.5 -146.5t-36 -180zM1079 514q0 109 41 205t114 167.5t169 112.5t207 41q109 0 195.5 -41t148 -112.5t94.5 -167.5t33 -205l-2 -37h-932q6 -90 45 -168 t101.5 -135t143.5 -90t173 -33q111 0 208 49.5t160 132.5l54 -36q-72 -98 -182.5 -155.5t-239.5 -57.5q-111 0 -207 41t-169 113.5t-114 168.5t-41 207zM1147 543h868q-6 90 -34.5 169t-81 137t-125 92t-164.5 34q-94 0 -176 -34t-143.5 -92t-99.5 -137t-44 -169z"/>
<glyph unicode="ç" horiz-adv-x="1144" d="M78 514q0 109 41 205t113.5 167.5t169 112.5t206.5 41q147 0 268 -72.5t189 -193.5l-55 -35q-59 106 -165 171t-237 65q-96 0 -181 -36t-147.5 -98.5t-98.5 -146.5t-36 -180t36 -181t98.5 -147.5t147.5 -98.5t181 -36q129 0 235.5 64.5t166.5 169.5l57 -33 q-68 -121 -189.5 -194.5t-269.5 -73.5q-111 0 -207 41t-168.5 113.5t-113.5 168.5t-41 207zM373 -385l43 49q25 -10 56.5 -27.5t86.5 -17.5q23 0 49.5 8t48 23.5t36 39t14.5 54.5q0 59 -33 78.5t-60 19.5q-29 0 -48 -2t-31 -6q-14 -4 -25 -8l-43 24l106 150h58l-80 -104 q10 0 22.5 3t44.5 3q66 0 110 -41t44 -115q0 -49 -19.5 -86t-51 -60.5t-70.5 -34.5t-76 -11q-49 0 -104.5 17t-77.5 44z"/>
<glyph unicode="è" horiz-adv-x="1134" d="M78 514q0 109 41 205t113.5 167.5t169 112.5t206.5 41q109 0 196 -41t148.5 -112.5t94 -167.5t32.5 -205l-2 -37h-932q6 -90 45 -168t101.5 -135t143.5 -90t173 -33q111 0 208 49.5t161 132.5l53 -36q-72 -98 -182.5 -155.5t-239.5 -57.5q-111 0 -207 41t-168.5 113.5 t-113.5 168.5t-41 207zM145 543h869q-6 90 -35 169t-81 137t-125 92t-165 34q-94 0 -176 -34t-143.5 -92t-99 -137t-44.5 -169zM346 1305l27 59l413 -168l-26 -59z"/>
<glyph unicode="é" horiz-adv-x="1134" d="M78 514q0 109 41 205t113.5 167.5t169 112.5t206.5 41q109 0 196 -41t148.5 -112.5t94 -167.5t32.5 -205l-2 -37h-932q6 -90 45 -168t101.5 -135t143.5 -90t173 -33q111 0 208 49.5t161 132.5l53 -36q-72 -98 -182.5 -155.5t-239.5 -57.5q-111 0 -207 41t-168.5 113.5 t-113.5 168.5t-41 207zM145 543h869q-6 90 -35 169t-81 137t-125 92t-165 34q-94 0 -176 -34t-143.5 -92t-99 -137t-44.5 -169zM346 1196l414 168l26 -59l-413 -168z"/>
<glyph unicode="ê" horiz-adv-x="1134" d="M78 514q0 109 41 205t113.5 167.5t169 112.5t206.5 41q109 0 196 -41t148.5 -112.5t94 -167.5t32.5 -205l-2 -37h-932q6 -90 45 -168t101.5 -135t143.5 -90t173 -33q111 0 208 49.5t161 132.5l53 -36q-72 -98 -182.5 -155.5t-239.5 -57.5q-111 0 -207 41t-168.5 113.5 t-113.5 168.5t-41 207zM145 543h869q-6 90 -35 169t-81 137t-125 92t-165 34q-94 0 -176 -34t-143.5 -92t-99 -137t-44.5 -169zM387 1151l6 66l175 73l174 -73l6 -66q-16 0 -53 16.5t-127 57.5q-90 -41 -127 -57.5t-54 -16.5z"/>
<glyph unicode="ë" horiz-adv-x="1134" d="M78 514q0 109 41 205t113.5 167.5t169 112.5t206.5 41q109 0 196 -41t148.5 -112.5t94 -167.5t32.5 -205l-2 -37h-932q6 -90 45 -168t101.5 -135t143.5 -90t173 -33q111 0 208 49.5t161 132.5l53 -36q-72 -98 -182.5 -155.5t-239.5 -57.5q-111 0 -207 41t-168.5 113.5 t-113.5 168.5t-41 207zM145 543h869q-6 90 -35 169t-81 137t-125 92t-165 34q-94 0 -176 -34t-143.5 -92t-99 -137t-44.5 -169zM401 1206q0 18 12.5 31.5t30.5 13.5q20 0 33.5 -13t13.5 -32q0 -20 -13 -33.5t-34 -13.5q-18 0 -30.5 13.5t-12.5 33.5zM643 1206q0 18 13 31.5 t32 13.5q18 0 31.5 -13t13.5 -32q0 -20 -13.5 -33.5t-31.5 -13.5t-31.5 13.5t-13.5 33.5z"/>
<glyph unicode="ì" horiz-adv-x="266" d="M-84 1305l27 59l413 -168l-26 -59zM109 0v1026h65v-1026h-65z"/>
<glyph unicode="í" horiz-adv-x="266" d="M-84 1196l414 168l26 -59l-413 -168zM109 0v1026h65v-1026h-65z"/>
<glyph unicode="î" horiz-adv-x="266" d="M-45 1151l6 66l175 73l174 -73l6 -66q-16 0 -53 16.5t-127 57.5q-90 -41 -127 -57.5t-54 -16.5zM109 0v1026h65v-1026h-65z"/>
<glyph unicode="ï" horiz-adv-x="266" d="M-31 1206q0 18 12.5 31.5t30.5 13.5q20 0 33.5 -13t13.5 -32q0 -20 -13 -33.5t-34 -13.5q-18 0 -30.5 13.5t-12.5 33.5zM109 0v1026h65v-1026h-65zM211 1206q0 18 13 31.5t32 13.5q18 0 31.5 -13t13.5 -32q0 -20 -13.5 -33.5t-31.5 -13.5t-31.5 13.5t-13.5 33.5z"/>
<glyph unicode="ð" horiz-adv-x="1177" d="M61 508q0 111 41 207t112 166.5t167 111.5t205 41q66 0 125 -14t112 -39l-215 313l-139 -100l-37 53l139 101l-108 159l55 37l107 -158l145 107l39 -55l-147 -107l337 -489q53 -68 83 -153t30 -181q0 -113 -40 -208t-110.5 -166t-167 -110.5t-208.5 -39.5 q-111 0 -207 39.5t-167 110.5t-111 166t-40 208zM127 508q0 -98 36 -182t97.5 -145.5t145 -96.5t180.5 -35q98 0 182 35t145.5 96.5t97.5 145.5t36 182t-36 182t-97.5 145.5t-145.5 97.5t-182 36q-94 0 -178 -36t-146.5 -98.5t-98.5 -146.5t-36 -180z"/>
<glyph unicode="ñ" horiz-adv-x="983" d="M100 0v1024l66 -49v-113q53 80 139 129t191 49q82 0 153.5 -30.5t124.5 -84t85 -124t32 -152.5v-649h-66v653q0 68 -26.5 126.5t-70.5 102.5t-104.5 68.5t-127.5 24.5q-68 0 -128.5 -24.5t-104.5 -67.5t-70.5 -100.5t-26.5 -125.5v-657h-66zM154 1200q14 25 37 45 q20 16 51 30.5t76 14.5h10q41 0 80 -9t74 -19q18 -6 35.5 -12.5t36 -12.5t43 -9t59.5 -3t62.5 9t45.5 19q23 12 39 31l27 -24q-20 -25 -43 -46q-23 -16 -51.5 -30.5t-65.5 -14.5h-14q-41 0 -81 9.5t-83 23.5q-45 12 -87 22.5t-77 10.5q-37 0 -64.5 -10.5t-45.5 -20.5 q-23 -12 -37 -28z"/>
<glyph unicode="ò" horiz-adv-x="1212" d="M78 514q0 109 41 205t113.5 167.5t169 112.5t206.5 41q109 0 205 -41t168 -112.5t113 -167.5t41 -205q0 -111 -41 -207t-113 -168.5t-168 -113.5t-205 -41q-111 0 -207 41t-168.5 113.5t-113.5 168.5t-41 207zM145 514q0 -96 36 -181t98.5 -147.5t147.5 -98.5t181 -36 t180 36t146.5 98.5t98.5 147.5t36 181t-36 180t-98.5 146.5t-146 98.5t-180.5 36q-96 0 -181 -36t-147.5 -98.5t-98.5 -146.5t-36 -180zM385 1305l27 59l413 -168l-26 -59z"/>
<glyph unicode="ó" horiz-adv-x="1212" d="M78 514q0 109 41 205t113.5 167.5t169 112.5t206.5 41q109 0 205 -41t168 -112.5t113 -167.5t41 -205q0 -111 -41 -207t-113 -168.5t-168 -113.5t-205 -41q-111 0 -207 41t-168.5 113.5t-113.5 168.5t-41 207zM145 514q0 -96 36 -181t98.5 -147.5t147.5 -98.5t181 -36 t180 36t146.5 98.5t98.5 147.5t36 181t-36 180t-98.5 146.5t-146 98.5t-180.5 36q-96 0 -181 -36t-147.5 -98.5t-98.5 -146.5t-36 -180zM385 1196l414 168l26 -59l-413 -168z"/>
<glyph unicode="ô" horiz-adv-x="1212" d="M78 514q0 109 41 205t113.5 167.5t169 112.5t206.5 41q109 0 205 -41t168 -112.5t113 -167.5t41 -205q0 -111 -41 -207t-113 -168.5t-168 -113.5t-205 -41q-111 0 -207 41t-168.5 113.5t-113.5 168.5t-41 207zM145 514q0 -96 36 -181t98.5 -147.5t147.5 -98.5t181 -36 t180 36t146.5 98.5t98.5 147.5t36 181t-36 180t-98.5 146.5t-146 98.5t-180.5 36q-96 0 -181 -36t-147.5 -98.5t-98.5 -146.5t-36 -180zM426 1151l6 66l175 73l174 -73l6 -66q-16 0 -53 16.5t-127 57.5q-90 -41 -127 -57.5t-54 -16.5z"/>
<glyph unicode="õ" horiz-adv-x="1212" d="M78 514q0 109 41 205t113.5 167.5t169 112.5t206.5 41q109 0 205 -41t168 -112.5t113 -167.5t41 -205q0 -111 -41 -207t-113 -168.5t-168 -113.5t-205 -41q-111 0 -207 41t-168.5 113.5t-113.5 168.5t-41 207zM145 514q0 -96 36 -181t98.5 -147.5t147.5 -98.5t181 -36 t180 36t146.5 98.5t98.5 147.5t36 181t-36 180t-98.5 146.5t-146 98.5t-180.5 36q-96 0 -181 -36t-147.5 -98.5t-98.5 -146.5t-36 -180zM268 1200q14 25 37 45q20 16 51 30.5t76 14.5h10q41 0 80 -9t74 -19q18 -6 35.5 -12.5t36 -12.5t43 -9t59.5 -3t62.5 9t45.5 19 q23 12 39 31l27 -24q-20 -25 -43 -46q-23 -16 -51.5 -30.5t-65.5 -14.5h-14q-41 0 -81 9.5t-83 23.5q-45 12 -87 22.5t-77 10.5q-37 0 -64.5 -10.5t-45.5 -20.5q-23 -12 -37 -28z"/>
<glyph unicode="ö" horiz-adv-x="1212" d="M78 514q0 109 41 205t113.5 167.5t169 112.5t206.5 41q109 0 205 -41t168 -112.5t113 -167.5t41 -205q0 -111 -41 -207t-113 -168.5t-168 -113.5t-205 -41q-111 0 -207 41t-168.5 113.5t-113.5 168.5t-41 207zM145 514q0 -96 36 -181t98.5 -147.5t147.5 -98.5t181 -36 t180 36t146.5 98.5t98.5 147.5t36 181t-36 180t-98.5 146.5t-146 98.5t-180.5 36q-96 0 -181 -36t-147.5 -98.5t-98.5 -146.5t-36 -180zM440 1206q0 18 12.5 31.5t30.5 13.5q20 0 33.5 -13t13.5 -32q0 -20 -13 -33.5t-34 -13.5q-18 0 -30.5 13.5t-12.5 33.5zM682 1206 q0 18 13 31.5t32 13.5q18 0 31.5 -13t13.5 -32q0 -20 -13.5 -33.5t-31.5 -13.5t-31.5 13.5t-13.5 33.5z"/>
<glyph unicode="÷" horiz-adv-x="950" d="M35 494v65h883v-65h-883zM432 322q0 16 12.5 28t28.5 12t28.5 -12t12.5 -28t-12.5 -28.5t-28.5 -12.5t-28.5 12.5t-12.5 28.5zM432 725q0 16 12.5 28.5t28.5 12.5t28.5 -12.5t12.5 -28.5t-12.5 -28.5t-28.5 -12.5t-28.5 12.5t-12.5 28.5z"/>
<glyph unicode="ø" horiz-adv-x="1191" d="M68 514q0 109 41 205t113.5 167.5t168.5 112.5t207 41q27 0 52.5 -3t49.5 -7l27 90h68l-31 -106q78 -27 144.5 -75t114.5 -113.5t74.5 -144.5t26.5 -167q0 -111 -41 -207t-112.5 -168.5t-167.5 -113.5t-205 -41q-63 0 -129 16l-29 -100h-71l34 118q-74 29 -135 78 t-106 113.5t-69.5 141.5t-24.5 163zM135 514q0 -74 21.5 -140.5t59.5 -122.5t91 -99t117 -68l258 883q-39 8 -84 8q-96 0 -181 -36t-147.5 -98.5t-98.5 -146.5t-36 -180zM487 63q52 -12 111 -12q96 0 180 36t146.5 98.5t98.5 147.5t36 181q0 76 -23.5 145.5t-64.5 127 t-99.5 99.5t-126.5 64z"/>
<glyph unicode="ù" horiz-adv-x="980" d="M92 375v649h66v-653q0 -68 26.5 -126.5t70.5 -102.5t104.5 -68.5t127.5 -24.5q68 0 128.5 24.5t104.5 67.5t70.5 100.5t26.5 125.5v657h66v-1024l-66 49v113q-53 -80 -139 -129t-191 -49q-82 0 -153.5 30.5t-125.5 84t-85 124t-31 152.5zM270 1305l27 59l413 -168 l-26 -59z"/>
<glyph unicode="ú" horiz-adv-x="980" d="M92 375v649h66v-653q0 -68 26.5 -126.5t70.5 -102.5t104.5 -68.5t127.5 -24.5q68 0 128.5 24.5t104.5 67.5t70.5 100.5t26.5 125.5v657h66v-1024l-66 49v113q-53 -80 -139 -129t-191 -49q-82 0 -153.5 30.5t-125.5 84t-85 124t-31 152.5zM270 1196l414 168l26 -59 l-413 -168z"/>
<glyph unicode="û" horiz-adv-x="980" d="M92 375v649h66v-653q0 -68 26.5 -126.5t70.5 -102.5t104.5 -68.5t127.5 -24.5q68 0 128.5 24.5t104.5 67.5t70.5 100.5t26.5 125.5v657h66v-1024l-66 49v113q-53 -80 -139 -129t-191 -49q-82 0 -153.5 30.5t-125.5 84t-85 124t-31 152.5zM309 1151l6 66l175 73l174 -73 l6 -66q-16 0 -53 16.5t-127 57.5q-90 -41 -127 -57.5t-54 -16.5z"/>
<glyph unicode="ü" horiz-adv-x="980" d="M92 375v649h66v-653q0 -68 26.5 -126.5t70.5 -102.5t104.5 -68.5t127.5 -24.5q68 0 128.5 24.5t104.5 67.5t70.5 100.5t26.5 125.5v657h66v-1024l-66 49v113q-53 -80 -139 -129t-191 -49q-82 0 -153.5 30.5t-125.5 84t-85 124t-31 152.5zM323 1206q0 18 12.5 31.5 t30.5 13.5q20 0 33.5 -13t13.5 -32q0 -20 -13 -33.5t-34 -13.5q-18 0 -30.5 13.5t-12.5 33.5zM565 1206q0 18 13 31.5t32 13.5q18 0 31.5 -13t13.5 -32q0 -20 -13.5 -33.5t-31.5 -13.5t-31.5 13.5t-13.5 33.5z"/>
<glyph unicode="ý" horiz-adv-x="892" d="M49 1024h78l328 -920l327 920h78l-520 -1446h-76l154 424zM225 1196l414 168l26 -59l-413 -168z"/>
<glyph unicode="þ" horiz-adv-x="1214" d="M100 -410v1846h66v-668q68 123 189.5 197.5t271.5 74.5q111 0 207 -41t168.5 -113.5t113.5 -168.5t41 -207q0 -109 -41 -205t-113.5 -167.5t-169 -112.5t-206.5 -41q-150 0 -272 74.5t-189 197.5v-666h-66zM166 510q0 -96 36 -180t98 -146.5t146 -98.5t181 -36 q96 0 181 36t147.5 98.5t98.5 146.5t36 180t-36 181t-98.5 147.5t-147.5 98.5t-181 36t-180.5 -36t-146.5 -98.5t-98 -147.5t-36 -181z"/>
<glyph unicode="ÿ" horiz-adv-x="892" d="M49 1024h78l328 -920l327 920h78l-520 -1446h-76l154 424zM280 1206q0 18 12.5 31.5t30.5 13.5q20 0 33.5 -13t13.5 -32q0 -20 -13 -33.5t-34 -13.5q-18 0 -30.5 13.5t-12.5 33.5zM522 1206q0 18 13 31.5t32 13.5q18 0 31.5 -13t13.5 -32q0 -20 -13.5 -33.5t-31.5 -13.5 t-31.5 13.5t-13.5 33.5z"/>
<glyph unicode="Œ" horiz-adv-x="2359" d="M82 768q0 162 61.5 305.5t168 250t248.5 167.5t306 61q121 0 231.5 -34.5t204 -96t166 -147.5t117.5 -191v453h707v-66h-641v-614h641v-65h-641v-725h641v-66h-707v453q-45 -104 -117.5 -190.5t-166 -148t-204 -96t-231.5 -34.5q-164 0 -306 61t-248.5 167.5t-168 249 t-61.5 306.5zM147 768q0 -147 56.5 -278.5t155 -229.5t229.5 -154.5t278 -56.5q150 0 281 56.5t228.5 154.5t153.5 229.5t56 278.5q0 150 -56 281t-153.5 228t-228.5 153.5t-281 56.5q-147 0 -278 -56.5t-229.5 -153.5t-155 -228t-56.5 -281z"/>
<glyph unicode="œ" horiz-adv-x="2127" d="M78 514q0 109 41 205t113.5 167.5t169 112.5t206.5 41q109 0 205 -41t168 -112.5t113 -167.5t41 -205q0 -111 -41 -207t-113 -168.5t-168 -113.5t-205 -41q-111 0 -207 41t-168.5 113.5t-113.5 168.5t-41 207zM145 514q0 -96 36 -181t98.5 -147.5t147.5 -98.5t181 -36 t180 36t146.5 98.5t98.5 147.5t36 181t-36 180t-98.5 146.5t-146 98.5t-180.5 36q-96 0 -181 -36t-147.5 -98.5t-98.5 -146.5t-36 -180zM1077 514q0 109 41 205t114 167.5t169 112.5t207 41q109 0 195.5 -41t148 -112.5t94.5 -167.5t33 -205l-2 -37h-932q6 -90 45 -168 t101.5 -135t143.5 -90t173 -33q111 0 208 49.5t160 132.5l54 -36q-72 -98 -182.5 -155.5t-239.5 -57.5q-111 0 -207 41t-169 113.5t-114 168.5t-41 207zM1145 543h868q-6 90 -34.5 169t-81 137t-125 92t-164.5 34q-94 0 -176 -34t-143.5 -92t-99.5 -137t-44 -169z"/>
<glyph unicode="Ÿ" horiz-adv-x="954" d="M41 1536h68l368 -897l367 897h71l-405 -975v-561h-66v561zM311 1616q0 18 12.5 31.5t30.5 13.5q20 0 33.5 -13t13.5 -32q0 -20 -13 -33.5t-34 -13.5q-18 0 -30.5 13.5t-12.5 33.5zM553 1616q0 18 13 31.5t32 13.5q18 0 31.5 -13t13.5 -32q0 -20 -13.5 -33.5t-31.5 -13.5 t-31.5 13.5t-13.5 33.5z"/>
<glyph unicode="ˆ" horiz-adv-x="565" d="M98 1151l6 66l175 73l174 -73l6 -66q-16 0 -53 16.5t-127 57.5q-90 -41 -127 -57.5t-54 -16.5z"/>
<glyph unicode="˜" horiz-adv-x="851" d="M88 1200q14 25 37 45q20 16 51 30.5t76 14.5h10q41 0 80 -9t74 -19q18 -6 35.5 -12.5t36 -12.5t43 -9t59.5 -3t62.5 9t45.5 19q23 12 39 31l27 -24q-20 -25 -43 -46q-23 -16 -51.5 -30.5t-65.5 -14.5h-14q-41 0 -81 9.5t-83 23.5q-45 12 -87 22.5t-77 10.5 q-37 0 -64.5 -10.5t-45.5 -20.5q-23 -12 -37 -28z"/>
<glyph unicode=" " horiz-adv-x="887"/>
<glyph unicode=" " horiz-adv-x="1774"/>
<glyph unicode=" " horiz-adv-x="887"/>
<glyph unicode=" " horiz-adv-x="1774"/>
<glyph unicode=" " horiz-adv-x="591"/>
<glyph unicode=" " horiz-adv-x="443"/>
<glyph unicode=" " horiz-adv-x="295"/>
<glyph unicode=" " horiz-adv-x="295"/>
<glyph unicode=" " horiz-adv-x="221"/>
<glyph unicode=" " horiz-adv-x="354"/>
<glyph unicode=" " horiz-adv-x="98"/>
<glyph unicode="‐" horiz-adv-x="806" d="M106 580v65h596v-65h-596z"/>
<glyph unicode="‑" horiz-adv-x="806" d="M106 580v65h596v-65h-596z"/>
<glyph unicode="‒" horiz-adv-x="806" d="M106 580v65h596v-65h-596z"/>
<glyph unicode="–" horiz-adv-x="1155" d="M98 547v65h959v-65h-959z"/>
<glyph unicode="—" horiz-adv-x="1517" d="M98 547v65h1321v-65h-1321z"/>
<glyph unicode="‘" horiz-adv-x="206" d="M37 1530l76 12l6 -393l-17 4l-32 188z"/>
<glyph unicode="’" horiz-adv-x="215" d="M78 1149l6 393l76 -12l-33 -189l-33 -188z"/>
<glyph unicode="‚" horiz-adv-x="215" d="M78 -162l6 393l76 -12l-33 -188l-33 -189z"/>
<glyph unicode="“" horiz-adv-x="440" d="M74 1530l76 12l6 -393l-17 4l-33 188zM264 1530l76 12l6 -393l-16 4l-33 188z"/>
<glyph unicode="”" horiz-adv-x="444" d="M98 1149l6 393l76 -12l-33 -189l-32 -188zM289 1149l6 393l76 -12l-33 -189l-33 -188z"/>
<glyph unicode="„" horiz-adv-x="444" d="M98 -162l6 393l76 -12l-33 -188l-32 -189zM291 -162l6 393l76 -12l-33 -188l-33 -189z"/>
<glyph unicode="•" horiz-adv-x="393" d="M78 614q0 47 34.5 83t84.5 36q47 0 82.5 -35.5t35.5 -83.5q0 -49 -35.5 -83.5t-82.5 -34.5q-49 0 -84 34.5t-35 83.5z"/>
<glyph unicode="…" horiz-adv-x="1124" d="M129 39q0 18 13.5 31.5t33.5 13.5q18 0 31.5 -13.5t13.5 -31.5q0 -20 -13 -33.5t-32 -13.5q-20 0 -33.5 13.5t-13.5 33.5zM514 39q0 18 13.5 31.5t33.5 13.5q18 0 31.5 -13.5t13.5 -31.5q0 -20 -13 -33.5t-32 -13.5q-20 0 -33.5 13.5t-13.5 33.5zM903 39q0 18 13.5 31.5 t31.5 13.5q20 0 33.5 -13.5t13.5 -31.5q0 -20 -13 -33.5t-34 -13.5q-18 0 -31.5 13.5t-13.5 33.5z"/>
<glyph unicode=" " horiz-adv-x="354"/>
<glyph unicode="‹" horiz-adv-x="438" d="M29 559l262 408l53 -39l-238 -369l238 -369l-53 -38z"/>
<glyph unicode="›" horiz-adv-x="438" d="M29 190l237 369l-237 369l53 39l262 -408l-262 -407z"/>
<glyph unicode=" " horiz-adv-x="443"/>
<glyph unicode="€" horiz-adv-x="1155" d="M68 625v65h110v146h-110v65h110v203q0 86 35 167t96.5 142.5t143.5 98t178 36.5q90 0 170 -30.5t141.5 -86t97 -132t37.5 -166.5l-65 -5v9q-2 76 -34 139t-84 109.5t-119.5 72t-143.5 25.5q-82 0 -151.5 -32t-122 -84t-82 -120.5t-29.5 -142.5v-203h669v-65h-669v-146 h669v-65h-669v-197q0 -74 30.5 -142.5t83 -120.5t123 -84t148.5 -32q76 0 145.5 25.5t121.5 72t83 111t31 141.5h65q0 -90 -36.5 -165.5t-97 -130t-141.5 -85t-171 -30.5q-96 0 -178 36.5t-143.5 98t-96.5 142.5t-35 167v193h-110z"/>
<glyph unicode="™" horiz-adv-x="1288" d="M33 1501v33h489v-33h-229v-735h-33v735h-227zM594 766v768h29l284 -711l287 711h29v-768h-33v680l-270 -680h-23l-270 680v-680h-33z"/>
<glyph unicode="" horiz-adv-x="1024" d="M0 0v1024h1024v-1024h-1024z"/>
<glyph unicode="ﬁ" horiz-adv-x="978" d="M39 958v66h242v307q0 41 27.5 70t72.5 33h248v-66h-248q-14 0 -24.5 -11t-10.5 -26v-307h338v-66h-338v-958h-65v958h-242zM820 1194q0 18 13 31.5t34 13.5q18 0 31.5 -13.5t13.5 -31.5q0 -20 -13.5 -33.5t-31.5 -13.5q-20 0 -33.5 13.5t-13.5 33.5zM834 0v1026h65v-1026 h-65z"/>
<glyph unicode="ﬂ" horiz-adv-x="978" d="M39 958v66h242v307q0 41 27.5 70t72.5 33h248v-66h-248q-14 0 -24.5 -11t-10.5 -26v-307h338v-66h-338v-958h-65v958h-242zM827 0v1434h66v-1434h-66z"/>
</font>
</defs>
</svg>
